<mxfile host="app.diagrams.net" agent="Mozilla/5.0 (Windows NT 10.0; Win64; x64) AppleWebKit/537.36 (KHTML, like Gecko) Chrome/137.0.0.0 Safari/537.36" version="27.2.0">
  <diagram name="Page-1" id="AcjIs4VgYJxHotMTykyW">
    <mxGraphModel dx="3801" dy="3310" grid="1" gridSize="10" guides="1" tooltips="1" connect="1" arrows="1" fold="1" page="1" pageScale="1" pageWidth="850" pageHeight="1100" math="0" shadow="0">
      <root>
        <mxCell id="0" />
        <mxCell id="1" parent="0" />
        <mxCell id="4sYesMDpXX-5hcElLDRR-52" value="" style="rounded=0;whiteSpace=wrap;html=1;" vertex="1" parent="1">
          <mxGeometry x="259" y="-610" width="120" height="400" as="geometry" />
        </mxCell>
        <mxCell id="4sYesMDpXX-5hcElLDRR-23" value="" style="rounded=0;whiteSpace=wrap;html=1;" vertex="1" parent="1">
          <mxGeometry x="-240" y="-865" width="1005" height="785" as="geometry" />
        </mxCell>
        <mxCell id="4sYesMDpXX-5hcElLDRR-16" value="" style="sketch=0;points=[[0,0,0],[0.25,0,0],[0.5,0,0],[0.75,0,0],[1,0,0],[0,1,0],[0.25,1,0],[0.5,1,0],[0.75,1,0],[1,1,0],[0,0.25,0],[0,0.5,0],[0,0.75,0],[1,0.25,0],[1,0.5,0],[1,0.75,0]];outlineConnect=0;fontColor=#232F3E;fillColor=#E7157B;strokeColor=#ffffff;dashed=0;verticalLabelPosition=bottom;verticalAlign=top;align=center;html=1;fontSize=12;fontStyle=0;aspect=fixed;shape=mxgraph.aws4.resourceIcon;resIcon=mxgraph.aws4.step_functions;" vertex="1" parent="1">
          <mxGeometry x="198.79999999999998" y="-790" width="78" height="78" as="geometry" />
        </mxCell>
        <mxCell id="4sYesMDpXX-5hcElLDRR-17" value="Step Functions" style="text;html=1;align=center;verticalAlign=middle;whiteSpace=wrap;rounded=0;" vertex="1" parent="1">
          <mxGeometry x="188.3" y="-820" width="99" height="30" as="geometry" />
        </mxCell>
        <mxCell id="4sYesMDpXX-5hcElLDRR-19" value="" style="outlineConnect=0;dashed=0;verticalLabelPosition=bottom;verticalAlign=top;align=center;html=1;shape=mxgraph.aws3.lambda_function;fillColor=#F58534;gradientColor=none;" vertex="1" parent="1">
          <mxGeometry x="-130" y="-480" width="69" height="72" as="geometry" />
        </mxCell>
        <mxCell id="4sYesMDpXX-5hcElLDRR-24" value="" style="rounded=0;whiteSpace=wrap;html=1;" vertex="1" parent="1">
          <mxGeometry x="-425" y="-750" width="120" height="560" as="geometry" />
        </mxCell>
        <mxCell id="4sYesMDpXX-5hcElLDRR-25" value="" style="shape=image;verticalLabelPosition=bottom;labelBackgroundColor=default;verticalAlign=top;aspect=fixed;imageAspect=0;image=data:image/png,iVBORw0KGgoAAAANSUhEUgAAAgEAAAFpCAYAAAAFqfvLAAAeP0lEQVR42u3dCZglRYEn8ACUWxQPVBBEHE/ACxkP8EDxHB0FRXe88L4dcNSBcWUaB9hBVxfFY2yleS+zuhstzxkcF/FgZFWEZZRBQLC6KjOr2rZtEJH7aLo2MqtWRZqu+73MfL//9/2+5qjuroqIjIiXGREZgoiIiIgMYE6buHdYUewThvInhG5xQEjG/jIkxaF/4uDqv5fKr1s19uCQrt9JwYmIiNQ5p6/ZM6TZM0KSHRkdH/85iYP6D0I3vzQk+W+ijdHkPN0Q5dFPojOjz8eJwt/HXw8L6fh+oZNtrwJERESWOudM3i0OvE+Mg/Bb4wD/6WqgT/KrFzDAL4ZNURHS/JvVBCQpXhRWj91fZYmIiCwkKy6/RxxcXxidEJ0TB9vr+zzgz0ExHr/nr0TvCkNjj1CZIiIiM6Uzsf/07fbvR7c2Z9Cf0UT8uTpxcvCacPrI/VS0iIjI5ORWYSh/akiyT1Sfntsz6G9JuUbhe9E7Qyd7gEYgIiKDlWqFfv7xARr478rtoZudG8vhPdUOBhERkVZm5cgu04v6/nPAB/67cnM0XG1ZLO+QiIiIND5Te/M709vtDPazMxKS7NiQrL2PBiQiIs1K+Um2OoSn2ltvUJ+/60OaLQ+d0YdpVCIiUu+Ue/mT/I3RLwzgi+q2aFXoZI/TyEREpF4ZntwmpMVrp25jG7SXVDf/eugW+2p0NZn0LpvcWkGIyGCmvO2fFkfEwekyA3SvtxkW3eodB7I4WX7h3cPQxF+EoeI5IcneFsv3n6u1LN3s32J5/zj+t19On1B5dbWr4851cs30/xsLaT4af//507/3M9FxIc1eH7pjzw2d7JHV5EFEpNEpj/BN8h8akPu9oyD7hO2Fc0x5PkOSv2Bq8WX2pfjPVyzwHRNzdUv0s2goThaOmfpeJvZQMSJS/wzlD6wWq/W202TL4ifQ4ii3pu8iK8Z3r+5Yle126sVSm2paj+uqbaLlVto0f4iKE5H6pBxgkvzd0bUG3dr6URgae+zAt9VTR7aLA/7zpl40lWcNrs+x6Avx5/ir6mcSEelLVhaPrgYYg2wzdhJ0i1NCun6ngWqj5Wudu/nLqhc3NeplU7P2+2h1SIqXD1zdikifUr2+t/jH6dPsDLCNO3Aof0r7704Vh04fRnXNANXtjXHCc0ac8DzL6ZIislSfrPa28K8F7yZIs0+27lZyJ7vX9BHUl6rjcrJXHBPSNbvptERkcZLmb4qdy3U62Nb4WUjH92t8uyzXO5RbI5P8JnW6uR0H2ZeqXTsiIvNK+ZKfqWeqOtU23kJOsiMb2S67Y0+P3/+3aryqv2aKs6oyExGZfUdb7Du9X1on2mblNrmmPB6oDu4pD+pRb/P0wzipf6F1AyKy5STZSwZsYdWgHz38n7Xeh94ZPzB+n99VV4t2Z+D8OMk/SEcnIndMubq6m33EbdaBdFXoZM+sVXtcUewTv68va49LYlP1EqpkdC8dn4iEMDyxg+f/FpOFbv7qWrTFJDvegr+ebS88MQxv2FknKDKoKbcTJfl5OkSmPyF+sM+PosbUQ88VoZM9X2coMmjpjD5s6i1nOkLu4As9fbvd6nX3DUnxReXe9/UC3bCq2FXHKDIQdwDG94sX/q91fGxe9q892TmQ5ofHv+83yrs2fl3ViYi0ON3igHixX6nDYwb/Xp3DvxQpz6GoFqcp55oaslZApJ0TgINsAWQOt4i/XS3WW9y7UE+Mf/YaZVt7l4dk7DE6TZG2JMkfH/1O58YcJwI/WJRPheVBNUlx1NSxtsq1IW6q6kxEGp7qrPX8ap0a8/SdMHzJtvP/9L9+p+l9/8qykadL5iu9tliksXcARh9uESCLcLrg18Pw5DZzbn8r1z4o/v4LlWHjXRROX7OnDlWkSSkv2iRfqwNjkXxqTu1v6oU/G5Rbax4NjVsnINKUrLj8HtXsXefF4t4R+NDsHgFU2/+c/Nc+14W0eLEOVqTOWX7h3UM3O1uHxZKcLJhmr9/yI6hqAeDtyqq1NoYke5uOVqS26wDyFToqltDNoZM9+U7trtoBkJ2sfAZmMni0zlakbikvTB0UvThdLpnY4w4TgDT7pHIZOMfpdEXqkqH8qfZh00PnVccLV3cA8k8pj4E9Zvpkna9I3x8BxE9l3Xy9DokeLxQ8LXSLf1EWA3+WwAk6YZF+pVwImOQ/1hkBffR3OmORvtwFyE/SAQF9XyyYZEfqkEV6OgEoDp7asqMTAvru1tDJnq9jFunJY4DRe8aLLtfxADVyQ/QUHbTIUqd8sYcOB6jfgtH11XsjRGTJJgAv1NkANfbTMDyxg85aZLGzcmSXqZd56GiAOm8dzBIdtsji3wX4rA4GaMhE4O06bZHFytSpgF7OAjTFLRYKiixGlk1uHS+mC3UqQMOMVY8xa3t3df1OYdXYg0Nn/MD4vb4gpMVrp97DUhwzdQ5LdnLo5h+L/235H5V3ZMsXZlWOn/7aN0eHhe7Y00O32DesHrt/GJ7cxuAli5Mkf6POBGjmjoGi09f+s5PtPTXA5++Kv348+lp0UfT7JT87Ic1H46/fnTpmO/9Q6GZ/E5Kxx1SnvYrMKisuv8fUm9t0JkBjHbbkfWX5yXto7LHx0/rr48TjlDgAnxP/3qtre7jS1ERkKPpAnKg8Myxft6MBTzZzF8B72oHGuzIOdA9Y3EH/km3jYH9Q7COPjX/+v0fXNLyMbgtJcX41genmL6seKcjALwZ84PQpXDoRoOG7BfJvLvzOaLFPHCT/NnSzs+OfeWP738mQXxgnBCdWC8OtMRjItQCn6jyAFq0PeMWc+sDJya2mdkZVd0QvGfDy+22cEJwRJ1OHO4xpICYAo3vFSr9ZxwG0yLrq3SczrtrPHzW18j5fo8w2q7wLcmZIiyOqxyLSwpRbUTR0oH3vF/jY5vu8NbvFwf998Wt+ppzmpFz8+KnQmdjfwNmaHQHju08ftKGBA21zW7WK//+nWxww/aHnRmWzYBfG8nxrGN6ws4G00Y8Cin/WmIH23g3Izp0+/8QhaEuj3CnxP73RsZGPAdbvFCvvKo0YgEU4j2C4OhFRGpJy+4uGC8Cibjcszgqd7MkG2Tpn6h0BVsMCsFTOjJOBxxlw67kW4FANFIAeHET05WorptTqcKBhjROAnu3UKHdmrF53XwNwv1NWgsOBAOjHaYRJcZSjifu6IDB/v4YIQB9dVB3TLH15FHCRBghA39cLlI8IytfYS48yNPYIDQ+AGvlVSLKXGKB7cxfgOA0OgNrpFp2wcmQXA/XSTgIu0dgAqKk8JMXBBuulSCd7pAYGQO23E3bzD9lBsOi7ArL3alwANEPxg+pNt7Jok4CzNSoAGmRDdIgBfKGZemPgTRoUAI17PJAUxxjIF7QgsHiRhgRAo3cPdLLtDejzehRQnKIRAdBw/ycka+9jUJ/z44DsAo0HgBZYE5LRhxvYZ5vhiR1iod2i4QDQEleFbnGQAX5WjwLGnq7BANAyN0QvMMjPuCgwO1ZjAaCFbglD2UsN9FtcD5B/RUMBoKU2hm7xOoP9Xb8v4AqNBIBWTwSS/I0G/M0vCtyogQDQcptCmr/JwH+HlwaNH6hhADAwdwTS4giD/x/fF/AGjQKAAXJz6I491wRgaj3ASRoEAIO3fbA42CQgyVdpDAAMoN+GobFHDPok4EcaAgADaiyka3Yb5EnArzQCAAZXcX5Yvm7HAdweeMm2sQBu1wAAGGjd/IwwObnVgN0FmNhD5QNAdUfgmAGbBIw9RqUDQOX2wdo6mOSHqHQA+IPfhJVrHzQgk4Di5SocAO7gJ+HUke0G4O2BxVtUNgDcaaHgxwbgyODib1U2AGxufUDx7JZPAvL3q2gA2Ky1IVl7nza/POgfVDIA3KWvtnlNwD+qYADY4vkBr2npJCA/QeUCwBZdGU4fuV8Ltwhmx6tcAJhR2sbDgj6oYgFgNtsG23aaYJq/T8UCwCyk+Wi73jbonAAAmMPdgOzDbVoT8DaVCgCzdmNYNfbgtjwOeJUKBYA5WdWSSUD2PJUJAHOyKSTFwc2fBAzlT1CZADBn54XJya0aviZgdC8VCQDz2S1QvLjZk4DhiR1UJADMy09bcDcgv1ZFAsC8HNb0bYIXq0QAmJefh2WTWzd4ElB8QyUCwHzXBuSHN/nUwFNUIgDMdxKQXeDoYAAYXE9p6sLAF6g8AFiQLzd0EjCxh8oDgAXZGLrjD23q3YArVSAALGiB4P9q6iTguyoQABbkqnDqyHZNnAR8XOUBwAJ1i1c0cIdA/mqVBwALnQRkZzdvEtDJ9lZ5ALBgm5q5QDApxlUeACxUsayJ6wJWqzgAWLDLG7guIHuHigOAxdguOL5f09YFPFLFAcCi+KcmPhIYUXEAMIiPBJL8VBUHAIugM7F/syYBafY8FQcAi7JL4JhmTQLK4w6T/FoVBwAL9v0mPhIYVnEAsGC3hBWX36Npk4DDVBwALILu+F838ZHA71QeACz0vID8s018odBpKg8AFuyy5k0C0vxZKg4AFmxTOG3i3s2aBExObhW/8StUHgAsdF1A/ldNfCTwfpUHAAt2UvMmAauKXeM3foPKA4AF+Y/QyCRFV+UBwIJcH5ZNbt2sCUD5DXezj6g8AFigzujDGvRa4Yn94zf9YxUHAItyXsDh9R/8hyd2CEl2fCiPOlRpALBIimX1ngAMjT8tfqMjKgoAFv1OwFdq+ul/cptqhpLkG1UUACyJK+o3ATh9zZ5xAvADlQMAS+rW6kN3fW7/Zy+N39RvVQwA9ED5wbseRwIXx8Rv6HaVAgA9Uq696+/Wv2z7+I0MqQwA6PXiwOK1/ZsArBjfPaTZBSoCAPriuD4d/zv2mPiXr1UBANA3X+jD2wCLA+JffJXCB4C++lo/DgD6vYIHgD7rZuf28BFAfkh0nYIHgDpMAvJLezMBSPMXxr/wZoUOALWZBKzvxRqAg+JfdoMCB4BaubUXrwC+WkEDQA0t3R2A8YfGv2CdQgaAQZoEpGt2C2k+qoABYJAmAcsvvHucAJyjcAFg0CYBSf4ZBQsAgzYJSPM3KVQAGLRJQJI/xVkAADBok4Dlo/eMf1imQAFg0CYBSb5KYQLAoE0CkuLlChIABm0SsHLtg4ITAQFgwCYBk5NbxT/g+woRABpp00JeDPQ6BQgAjXX1/CYAq4pd42/+jQIEgMYame9iwM8pPABotJ/M4/XA4wfG33i7wgOABkvzb85jMWBxvsIDgMZL5/pugMMVGgC0QDf7yOwnAMOT28TfdJmCA4A2PA7I3u4NgQAwiDrZ82e5GDDbPv6GQqEBQEsMjT1ilgcDZe9QYADQGpvC8MQOM08Alk1uHb/4CgUGAK2xbnZ3AYaylyosAGjVzoCzZ/so4FwFBgBtmgTkH5vFjoDxJyosAGib7MhZTAKyREEBQNvuBBQHzHA40Iad4xdep7AAoFU2zrwzoJu9QUEBQOseBVw8m9cF/0BBAUDLpPlnZzohcO/qIAGFBQBt2xnw6hnuAuTHKSgAaKEVxT4zTQIuVFAA0Dq/2vIEYMX47h4FAEArFwV+aYa7ANnbFBIAtHJR4JtmOCAo/6aCAoAWOn3Nnls4IGhih/hFNygoABi08wGS/BCFBABt3BqYfWSGUwLzDykoAGilQ2Y6JfAshQQArXNlOGfybnc9AVg2uXX8omsUFAC07VFA8S8zHRX8OAUFAK3cGvisGdYDFG9VUADQtrsA+fowPLnNTIcEfUJhAUDr7gJ8duZXB3ezsxUWALRMJ3vyzJOAJF+rsACgVX4+8wRg5cguwUuDAKBljwKyo2eeBKTZkxQWALTKzWH1uvvO4lFA9kqFBQCt2hVwRphVytsFCgwAWqQ4eHaTgPKlAgoMANqyFuCCMOskearQAKAtk4DiiLlMAr6j0ACgFbItvyzozpOAixQaALRiLcBRYU5J8hGFBgCNtyEMb9h5rpOACQUHAI1fEHh0mHPKmYPCA4AmWxeGJ3aYzyTgWoUHAE2+C5C/K8wrSX6LAgSAxirCqSPbzXcScLsCBIDG3gV4VZh3ypcMKEQAaKLzwuTkVguZBFgTAADNsykkY38ZFpQkv1JBAkDjtgQmYcFJ8rUKEwAa5fchmdhj4ZOAbn6pwgSAQdgSeOdXCZ+rQAGgMX4Shie3WaRJQP51BQoAjXBbGBp7bFi0dPPTFCoANOIxwAlhUdPNT1SwAFB7Pw3Dl2y7uJOAtHiLggWAWrspdCb2D4ueoeI5ChcAau2dYUnSGX2YwgWA2q4D+N8LOxp4SynfPJTkGxU0ANTO2pCu2S0saZL8FwoaAGrl1pAUB4clT5IPK2wAqNVjgHeFniTJj1PgAFAbq0PPkmQvUeAAUAs/C8vX7di7ScDqsfsrdADou1+F09fsGXqeJB9T+ADQN9eFTva40Jek+UoVAAB9sTF0x/869C3laUQqAQD6sBMge3voa9L8USoCAHotOzbUItYFAEDvdItTQm2SZstVCgD0xGdCrZLkh6kUAFhyK8Kyya3rNQkY3rBz/MZuVDkAsGQ+tXRvBVz43YCvqiAAWIo1ANlHQq2TZv9NRQHAou8CODnUPh4JAMBi2hjKs3gak25+hkoDgAW7PiTFi0KjkhSHqjgAWJBfh3T8iaFxKbctpPmoCgSAeT3/vzh0sr1DY9PNP6QSAWCuii+GdP1OodFJ1+wWf5ibVCYAzHYBYHFMfc8AmPuZAaerVACY0YbokNCqpOP7xR9qk8oFgLv03bBifPfQynSzs1UwANzJLSHN39ee2/+b3y54sIoGgDv4RRjKnxAGIkn+PRUOAPltIc0+2fzV/3PJUP5UFQ/AgPuv0Bk/MAxkkuIsDQCAAXRjSLJjwzmTdwsDm5XFo6vbIBoDAIPjzJDmDwlS3Q34nAYBwAC4LKTZ8wz8dz5F8BqNA4CWWhcH/7eH4cltDPqbnQhkR2skALTMlaGbvz8sX7ejgX6mNwwm+Y81GABa4NqQZCeH5aP3NMDPem3A2GNiwd2q8QDQSN18fRz8jw+ril0N6vOaCMSZk4YEQLP8PI5fR4bhS7Y1kC8kp45sVx2coEEBUG/lneuvVqv9W33Of3/ODrhRAwOghkaqW/6nr9nTgL10bxl8r4YGQG1W+afZ8tDJnulTf+92C5yp4QHQJ78L3aITB/7nD/bRvv1KJ7tXrIQ1GiIAPZHmo9Xb/JLi0GqNmvR7t0D++OgmjROAJVBEq+In/rd6xl/b9QHF6zRUgNqukL+6Id9rueD8/4Zu/un4if9VBv1GHSucn+BiA6jb7fPif0zdtZ3Yo9oql+QfiL8m1WBbLqbrz/d1fbVvv5t/PToxfo9HhKGxRzi3v8kpV2N28zNcdAC1kc94Jn66fqfQLfYNSfGi+PXvDt3sw9Un8an+/DvRz6rn8OWfNXVHoXTL9J9/+5/8t7XV13XzS+OfcW78969FX6gmIUn+dyHJXhknH0+qXkgnrV0ouP105bv4APptKHupgUl6fJDQyC7Tt5lcgAB9U5xlQJL+ZPW6+1a3hFyIAP1wXUjzhxiMpI9bByf2CEn2SxcjQM+92SAkNbgjMHb/OBG42AUJ0CvZvxp8pD45beLeIc0ucGECLLkN1YcvkdpNBJL8hy5QgCWzKaTFiw04Us+UZzw7RwBgaZSH7ojUOuWBQuU7nl2wAIu5HfDbTtuT5iQt3hIb7s0uXIAFLwT8ZfVGV5FmTQSyJ1XHTLqIAebr2urIX5FGplzFmubnuJAB5uyWkBSHGkikBesEiqPCH19IAcCW3R66xSsMINKedMYPjA17xMUNMIM0O9qgIe3LisvvUb3Ccur1lC50gDv7J4OFtDtD+VNjQ7/MxQ5wh50AJxsgZEAeD2TbT58pcKMLH3AYUPH3BgYZvFRvI8zT6khMHQEwkMcBWwMgg57u2NPjxfBjHQIwWNsAsyMNACJ/uDNQHBovjAt1DkDLXR0dotMX+fOUZwuk+eHxAvmJjgJo5VHAyejDdfYiM2Vo/Gmhm/2bbYVAS3y/ev26iMxlMjDxF9X2mW6+XicCNHQB4CfD8gvvrkMXmW+GL9k2pMURIc2/6ShioCHWxT7rWTpwkcVMeUstzd8UL7DvRLfpaID6Kc4K6ZrddNgiS5l0/U4hLV4c0mx5vPAmdDxAn11TvTxt2eTWOmiRXqbaXTC+X+hm7whpvjJejIUOCejhp/9vhBXju+uMReqSofyBIc2eVx3NOTUxuCi6dok7g5ujK6KvxQnJh0M3f1nojD7MOQjQ4mf/XgEs0qCsXnff6jXH5YWbFO+ZHqw/Hf/5i9NrDaLi/OmB+09N/b80/0r8/5+Lv+fE+HvfG//5NdHB1XHI5R2JzSXJ36yzhFa5vnoXyvCGnXWqIrLlLF+34/RpYTpPaLbbq3eflHcaRURmnSQ/VQcKjbWxultYrj0SEZlzVhaP1pFSc78Lafb66AJlcYd1Pp+vDi8TEVng3YD/0KlSYyf9oa12i4Om1r+Un4AHsiyujD5qxb+ILF7Kkw8NNNTTjZs94KZc8NrN/mF618sgPO//TkiyV4ZTR7bTYYnI4qY8RKSbX2rAoXbKHTJbSrnzpdoFk38+2tCyn/8XIc1PCCuKfXRSIrK0qbYmGnSoldtCJ9t71m14eHKbkGbPiJ+YPxF/b97Qn7nc9vvBOPg/SqckIr29G5DkPzfwUCNDC2rTneyR8c94Z/TV6Lc1/RnXxAl4p1r4mIzupSMSkf7F2gDqdBdgMT8Nl5PcchtdNdjmn4rOq9Yb9PbRxvrq2X63OCX+bK+q1jWIiNTrbkB2sQGIGvhMT9p7+bhhqHhOdcegHJy7+dfjP/8wXge/jL9eN8fvufz6y6LvVQf3JNnJ8dd3xz/32eH0kfvpYESkAXcD8sMNQPT9rXd1GTSHJ3YIq4pdw8q1D6oW6JV3J7rFAdX+/PLfy9eId7J76ThEpD2Z+iRjMKJfPuAiFBHpV6ZOEbzVYEQfjMVP1tu7CEVE+ns34KMGJHp/LoDX34qI9D/lq0iTfMLARO8mANnZd/naaxER6XEcIETvXO9kPBGRuiUpvm2Aogd3Ad7hYhMRqd0kYGKPGp+2Rhuk+TkeA4iI1DXODmDp3FDtuRcRkTrfESi6BiyW4C7Au1xcIiJ1T7VboDpK1cDFIim+4TGAiEhT0hk/0CFCLI44oVw+ek8XlYhIk5JkxxrAWPA6gM7E/i4mEZGmpbx9m+YrDWTMfx1A9noXkohIU1O+WS0pzjegMQ+fdwGJiDQ9newBcSIwblBjDr4fTh3ZzsUjItKGJPnjq+NeDW7MvBDw4jhxvJeLRkSkTUmLI2Inf7tBji3Iw4rx3V0sIiJtTDd7g4kAd+G3oZM90kUiItLmJMV7DHj8mRtDtzjIxSEiMghJs6MNfPzhLICkONRFISIyWHcElhkAB165WPQQF4OIyCCmm59oIBxY10RPcRGIiAz2HYH3WCw4cH4X0uxJGr+IiITQLV4RB4abDY4D4Vehkz1OoxcRkT+mkz2z+oRokGyz/wrJ6F4au4iIbO6OwL6OGG6tb4WVI7to5CIictdZufZBccA4z6DZKh8Nyya31rhFRGTmDF+ybRw4TjV4Nt5N0Rs1aBERmXuGspdObyUzoDbP5RYAiojIwpKMPrx6s5xBtUnSMLxhZ41XREQWnnT9TnFg+UK0yQBba78P3exvNFgREVmCuwLFoXGgGTPY1tKPQnf8oRqpiIgsXZav2zEk2clx0Nlo4K3J6X9JcZTV/yIi0rsM5U+NA9AvDMJ9dWZIJvbQGEVEpPfpZNuHNP/vcTC61oDcU2tCd+y5GqCIiPQ/6Zrd4sD0meg2A/SSuir6QBie2EGjExGReqXaTpgP20Ww6K6v1mF0sntpZCIiUu8MjT8tpPk5Bu8Fu6U6uXH12P01KhERaVbS8SfGT7BfspNgHvv9k+wT8ZP/3hqRiIg0O+VgNrWt0BHEWzYWkuKYsKrYVaMREZF25bSJe8fJwLG2Fv6Z8tFJ+Z4Ge/1FRGQg0i32nb478JsBHfzzqZ9/9OEag4iIDGbK1xZPva3wa9Ovvm3zwL8uTn5OqdZKiIiIyJ+kOpI4f0FIs0/GX69owaC/Mf4sF8RfT4q/PiMMT26jkkVERGaTNH9I6GbvCEnxjTiQbmjIwJ9Fnw9pcUS1BkJEREQWISvGd4+D64tDkh1fnZvfzdf3/fZ+dX5//H7K72sof6BKEhER6VWS0b1Ct3h26GZvmJ4cnB59N/7zL+OvNy98v35+SfStkGbL46/Hxb/rdaE79vSwfPSeCl9ERKTOKffcd7IHhBXFPmFo7LGhM35gSIpDoxdVt+zT/IXVv5eL9cr/X35decdheMPOCk9EBiH/DytdnIA7HZ+8AAAAAElFTkSuQmCCwETvJgDZ2Xf52msREelxHCBE71zvZDwRkbolKb5tgKIHdwHe4WITEandJGBijxqftkYbpPk5HgOIiNQ1zg5g6dxQ7bkXEZE63xEougYsluAuwLtcXCIidU+1W6A6StXAxSIpvuExgIhIU9IZP9AhQiyOOKFcPnpPF5WISJOSZMcawFjwOoDOxP4uJhGRpqW8fZvmKw1kzH8dQPZ6F5KISFNTvlktKc43oDEPn3cBiYg0PZ3sAXEiMG5QYw6+H04d2c7FIyLShiT546vjXg1uzLwQ8OI4cbyXi0ZEpE1JiyNiJ3+7QY4tyMOK8d1dLCIibUw3e4OJAHfht6GTPdJFIiLS5iTFewx4/JkbQ7c4yMUhIjIISbOjDXz84SyApDjURSEiMlh3BJYZAAdeuVj0EBeDiMggppufaCAcWNdET3ERiIgM9h2B91gsOHB+F9LsSRq/iIiE0C1eEQeGmw2OA+FXoZM9TqMXEZE/ppM9s/qEaJBss/8KyeheGruIiGzujsC+jhhurW8=;" vertex="1" parent="1">
          <mxGeometry x="-406.5" y="-700" width="83" height="58.41" as="geometry" />
        </mxCell>
        <mxCell id="4sYesMDpXX-5hcElLDRR-26" value="" style="rounded=0;whiteSpace=wrap;html=1;" vertex="1" parent="1">
          <mxGeometry x="60" y="-630" width="120" height="420" as="geometry" />
        </mxCell>
        <mxCell id="4sYesMDpXX-5hcElLDRR-27" value="" style="sketch=0;points=[[0,0,0],[0.25,0,0],[0.5,0,0],[0.75,0,0],[1,0,0],[0,1,0],[0.25,1,0],[0.5,1,0],[0.75,1,0],[1,1,0],[0,0.25,0],[0,0.5,0],[0,0.75,0],[1,0.25,0],[1,0.5,0],[1,0.75,0]];outlineConnect=0;fontColor=#232F3E;fillColor=#7AA116;strokeColor=#ffffff;dashed=0;verticalLabelPosition=bottom;verticalAlign=top;align=center;html=1;fontSize=12;fontStyle=0;aspect=fixed;shape=mxgraph.aws4.resourceIcon;resIcon=mxgraph.aws4.s3;" vertex="1" parent="1">
          <mxGeometry x="90.5" y="-610" width="49.5" height="49.5" as="geometry" />
        </mxCell>
        <mxCell id="4sYesMDpXX-5hcElLDRR-32" value="S3 - camadas x" style="text;html=1;align=center;verticalAlign=middle;whiteSpace=wrap;rounded=0;" vertex="1" parent="1">
          <mxGeometry x="63.75" y="-660" width="110.5" height="30" as="geometry" />
        </mxCell>
        <mxCell id="4sYesMDpXX-5hcElLDRR-33" value="" style="rounded=0;whiteSpace=wrap;html=1;" vertex="1" parent="1">
          <mxGeometry x="470" y="-630" width="120" height="420" as="geometry" />
        </mxCell>
        <mxCell id="4sYesMDpXX-5hcElLDRR-53" value="" style="rounded=0;whiteSpace=wrap;html=1;" vertex="1" parent="1">
          <mxGeometry x="259" y="-630" width="120" height="421" as="geometry" />
        </mxCell>
        <mxCell id="4sYesMDpXX-5hcElLDRR-21" value="" style="sketch=0;points=[[0,0,0],[0.25,0,0],[0.5,0,0],[0.75,0,0],[1,0,0],[0,1,0],[0.25,1,0],[0.5,1,0],[0.75,1,0],[1,1,0],[0,0.25,0],[0,0.5,0],[0,0.75,0],[1,0.25,0],[1,0.5,0],[1,0.75,0]];outlineConnect=0;fontColor=#232F3E;fillColor=#8C4FFF;strokeColor=#ffffff;dashed=0;verticalLabelPosition=bottom;verticalAlign=top;align=center;html=1;fontSize=12;fontStyle=0;aspect=fixed;shape=mxgraph.aws4.resourceIcon;resIcon=mxgraph.aws4.glue;" vertex="1" parent="1">
          <mxGeometry x="295" y="-610" width="48" height="48" as="geometry" />
        </mxCell>
        <mxCell id="4sYesMDpXX-5hcElLDRR-43" value="Account" style="text;html=1;align=center;verticalAlign=middle;whiteSpace=wrap;rounded=0;" vertex="1" parent="1">
          <mxGeometry x="289" y="-560" width="60" height="30" as="geometry" />
        </mxCell>
        <mxCell id="4sYesMDpXX-5hcElLDRR-45" value="Oportunities" style="text;html=1;align=center;verticalAlign=middle;whiteSpace=wrap;rounded=0;" vertex="1" parent="1">
          <mxGeometry x="289" y="-470" width="60" height="30" as="geometry" />
        </mxCell>
        <mxCell id="4sYesMDpXX-5hcElLDRR-47" value="Prospect" style="text;html=1;align=center;verticalAlign=middle;whiteSpace=wrap;rounded=0;" vertex="1" parent="1">
          <mxGeometry x="287.3" y="-384.5" width="60" height="30" as="geometry" />
        </mxCell>
        <mxCell id="4sYesMDpXX-5hcElLDRR-49" value="Contact" style="text;html=1;align=center;verticalAlign=middle;whiteSpace=wrap;rounded=0;" vertex="1" parent="1">
          <mxGeometry x="289" y="-301.5" width="60" height="30" as="geometry" />
        </mxCell>
        <mxCell id="4sYesMDpXX-5hcElLDRR-51" value="Interacty" style="text;html=1;align=center;verticalAlign=middle;whiteSpace=wrap;rounded=0;" vertex="1" parent="1">
          <mxGeometry x="289" y="-231.5" width="60" height="30" as="geometry" />
        </mxCell>
        <mxCell id="4sYesMDpXX-5hcElLDRR-54" value="GlueJobs" style="text;html=1;align=center;verticalAlign=middle;whiteSpace=wrap;rounded=0;" vertex="1" parent="1">
          <mxGeometry x="289" y="-660" width="60" height="30" as="geometry" />
        </mxCell>
        <mxCell id="4sYesMDpXX-5hcElLDRR-56" value="&lt;br&gt;S3 - SOR" style="text;html=1;align=center;verticalAlign=middle;whiteSpace=wrap;rounded=0;" vertex="1" parent="1">
          <mxGeometry x="470" y="-660" width="110.5" height="30" as="geometry" />
        </mxCell>
        <mxCell id="4sYesMDpXX-5hcElLDRR-57" value="" style="sketch=0;points=[[0,0,0],[0.25,0,0],[0.5,0,0],[0.75,0,0],[1,0,0],[0,1,0],[0.25,1,0],[0.5,1,0],[0.75,1,0],[1,1,0],[0,0.25,0],[0,0.5,0],[0,0.75,0],[1,0.25,0],[1,0.5,0],[1,0.75,0]];outlineConnect=0;fontColor=#232F3E;fillColor=#8C4FFF;strokeColor=#ffffff;dashed=0;verticalLabelPosition=bottom;verticalAlign=top;align=center;html=1;fontSize=12;fontStyle=0;aspect=fixed;shape=mxgraph.aws4.resourceIcon;resIcon=mxgraph.aws4.glue;" vertex="1" parent="1">
          <mxGeometry x="295" y="-518" width="48" height="48" as="geometry" />
        </mxCell>
        <mxCell id="4sYesMDpXX-5hcElLDRR-59" value="" style="sketch=0;points=[[0,0,0],[0.25,0,0],[0.5,0,0],[0.75,0,0],[1,0,0],[0,1,0],[0.25,1,0],[0.5,1,0],[0.75,1,0],[1,1,0],[0,0.25,0],[0,0.5,0],[0,0.75,0],[1,0.25,0],[1,0.5,0],[1,0.75,0]];outlineConnect=0;fontColor=#232F3E;fillColor=#8C4FFF;strokeColor=#ffffff;dashed=0;verticalLabelPosition=bottom;verticalAlign=top;align=center;html=1;fontSize=12;fontStyle=0;aspect=fixed;shape=mxgraph.aws4.resourceIcon;resIcon=mxgraph.aws4.glue;" vertex="1" parent="1">
          <mxGeometry x="295" y="-432.5" width="48" height="48" as="geometry" />
        </mxCell>
        <mxCell id="4sYesMDpXX-5hcElLDRR-60" value="" style="sketch=0;points=[[0,0,0],[0.25,0,0],[0.5,0,0],[0.75,0,0],[1,0,0],[0,1,0],[0.25,1,0],[0.5,1,0],[0.75,1,0],[1,1,0],[0,0.25,0],[0,0.5,0],[0,0.75,0],[1,0.25,0],[1,0.5,0],[1,0.75,0]];outlineConnect=0;fontColor=#232F3E;fillColor=#8C4FFF;strokeColor=#ffffff;dashed=0;verticalLabelPosition=bottom;verticalAlign=top;align=center;html=1;fontSize=12;fontStyle=0;aspect=fixed;shape=mxgraph.aws4.resourceIcon;resIcon=mxgraph.aws4.glue;" vertex="1" parent="1">
          <mxGeometry x="293.3" y="-349.5" width="48" height="48" as="geometry" />
        </mxCell>
        <mxCell id="4sYesMDpXX-5hcElLDRR-61" value="" style="sketch=0;points=[[0,0,0],[0.25,0,0],[0.5,0,0],[0.75,0,0],[1,0,0],[0,1,0],[0.25,1,0],[0.5,1,0],[0.75,1,0],[1,1,0],[0,0.25,0],[0,0.5,0],[0,0.75,0],[1,0.25,0],[1,0.5,0],[1,0.75,0]];outlineConnect=0;fontColor=#232F3E;fillColor=#8C4FFF;strokeColor=#ffffff;dashed=0;verticalLabelPosition=bottom;verticalAlign=top;align=center;html=1;fontSize=12;fontStyle=0;aspect=fixed;shape=mxgraph.aws4.resourceIcon;resIcon=mxgraph.aws4.glue;" vertex="1" parent="1">
          <mxGeometry x="295" y="-271.5" width="48" height="48" as="geometry" />
        </mxCell>
        <mxCell id="4sYesMDpXX-5hcElLDRR-62" value="" style="sketch=0;points=[[0,0,0],[0.25,0,0],[0.5,0,0],[0.75,0,0],[1,0,0],[0,1,0],[0.25,1,0],[0.5,1,0],[0.75,1,0],[1,1,0],[0,0.25,0],[0,0.5,0],[0,0.75,0],[1,0.25,0],[1,0.5,0],[1,0.75,0]];outlineConnect=0;fontColor=#232F3E;fillColor=#7AA116;strokeColor=#ffffff;dashed=0;verticalLabelPosition=bottom;verticalAlign=top;align=center;html=1;fontSize=12;fontStyle=0;aspect=fixed;shape=mxgraph.aws4.resourceIcon;resIcon=mxgraph.aws4.s3;" vertex="1" parent="1">
          <mxGeometry x="95.25" y="-519.5" width="49.5" height="49.5" as="geometry" />
        </mxCell>
        <mxCell id="4sYesMDpXX-5hcElLDRR-63" value="" style="sketch=0;points=[[0,0,0],[0.25,0,0],[0.5,0,0],[0.75,0,0],[1,0,0],[0,1,0],[0.25,1,0],[0.5,1,0],[0.75,1,0],[1,1,0],[0,0.25,0],[0,0.5,0],[0,0.75,0],[1,0.25,0],[1,0.5,0],[1,0.75,0]];outlineConnect=0;fontColor=#232F3E;fillColor=#7AA116;strokeColor=#ffffff;dashed=0;verticalLabelPosition=bottom;verticalAlign=top;align=center;html=1;fontSize=12;fontStyle=0;aspect=fixed;shape=mxgraph.aws4.resourceIcon;resIcon=mxgraph.aws4.s3;" vertex="1" parent="1">
          <mxGeometry x="95.25" y="-432.5" width="49.5" height="49.5" as="geometry" />
        </mxCell>
        <mxCell id="4sYesMDpXX-5hcElLDRR-64" value="" style="sketch=0;points=[[0,0,0],[0.25,0,0],[0.5,0,0],[0.75,0,0],[1,0,0],[0,1,0],[0.25,1,0],[0.5,1,0],[0.75,1,0],[1,1,0],[0,0.25,0],[0,0.5,0],[0,0.75,0],[1,0.25,0],[1,0.5,0],[1,0.75,0]];outlineConnect=0;fontColor=#232F3E;fillColor=#7AA116;strokeColor=#ffffff;dashed=0;verticalLabelPosition=bottom;verticalAlign=top;align=center;html=1;fontSize=12;fontStyle=0;aspect=fixed;shape=mxgraph.aws4.resourceIcon;resIcon=mxgraph.aws4.s3;" vertex="1" parent="1">
          <mxGeometry x="95.25" y="-353.25" width="49.5" height="49.5" as="geometry" />
        </mxCell>
        <mxCell id="4sYesMDpXX-5hcElLDRR-65" value="" style="sketch=0;points=[[0,0,0],[0.25,0,0],[0.5,0,0],[0.75,0,0],[1,0,0],[0,1,0],[0.25,1,0],[0.5,1,0],[0.75,1,0],[1,1,0],[0,0.25,0],[0,0.5,0],[0,0.75,0],[1,0.25,0],[1,0.5,0],[1,0.75,0]];outlineConnect=0;fontColor=#232F3E;fillColor=#7AA116;strokeColor=#ffffff;dashed=0;verticalLabelPosition=bottom;verticalAlign=top;align=center;html=1;fontSize=12;fontStyle=0;aspect=fixed;shape=mxgraph.aws4.resourceIcon;resIcon=mxgraph.aws4.s3;" vertex="1" parent="1">
          <mxGeometry x="95.25" y="-273" width="49.5" height="49.5" as="geometry" />
        </mxCell>
        <mxCell id="4sYesMDpXX-5hcElLDRR-66" value="Account" style="text;html=1;align=center;verticalAlign=middle;whiteSpace=wrap;rounded=0;" vertex="1" parent="1">
          <mxGeometry x="84.75" y="-560.5" width="60" height="30" as="geometry" />
        </mxCell>
        <mxCell id="4sYesMDpXX-5hcElLDRR-67" value="Oportunities" style="text;html=1;align=center;verticalAlign=middle;whiteSpace=wrap;rounded=0;" vertex="1" parent="1">
          <mxGeometry x="90.25" y="-470" width="60" height="30" as="geometry" />
        </mxCell>
        <mxCell id="4sYesMDpXX-5hcElLDRR-68" value="Prospect" style="text;html=1;align=center;verticalAlign=middle;whiteSpace=wrap;rounded=0;" vertex="1" parent="1">
          <mxGeometry x="90.5" y="-384.5" width="60" height="30" as="geometry" />
        </mxCell>
        <mxCell id="4sYesMDpXX-5hcElLDRR-69" value="Contact" style="text;html=1;align=center;verticalAlign=middle;whiteSpace=wrap;rounded=0;" vertex="1" parent="1">
          <mxGeometry x="89" y="-303.75" width="60" height="30" as="geometry" />
        </mxCell>
        <mxCell id="4sYesMDpXX-5hcElLDRR-70" value="Interatcty" style="text;html=1;align=center;verticalAlign=middle;whiteSpace=wrap;rounded=0;" vertex="1" parent="1">
          <mxGeometry x="90.5" y="-231.5" width="60" height="30" as="geometry" />
        </mxCell>
        <mxCell id="4sYesMDpXX-5hcElLDRR-71" value="" style="sketch=0;points=[[0,0,0],[0.25,0,0],[0.5,0,0],[0.75,0,0],[1,0,0],[0,1,0],[0.25,1,0],[0.5,1,0],[0.75,1,0],[1,1,0],[0,0.25,0],[0,0.5,0],[0,0.75,0],[1,0.25,0],[1,0.5,0],[1,0.75,0]];outlineConnect=0;fontColor=#232F3E;fillColor=#7AA116;strokeColor=#ffffff;dashed=0;verticalLabelPosition=bottom;verticalAlign=top;align=center;html=1;fontSize=12;fontStyle=0;aspect=fixed;shape=mxgraph.aws4.resourceIcon;resIcon=mxgraph.aws4.s3;" vertex="1" parent="1">
          <mxGeometry x="500.5" y="-611.5" width="49.5" height="49.5" as="geometry" />
        </mxCell>
        <mxCell id="4sYesMDpXX-5hcElLDRR-72" value="" style="sketch=0;points=[[0,0,0],[0.25,0,0],[0.5,0,0],[0.75,0,0],[1,0,0],[0,1,0],[0.25,1,0],[0.5,1,0],[0.75,1,0],[1,1,0],[0,0.25,0],[0,0.5,0],[0,0.75,0],[1,0.25,0],[1,0.5,0],[1,0.75,0]];outlineConnect=0;fontColor=#232F3E;fillColor=#7AA116;strokeColor=#ffffff;dashed=0;verticalLabelPosition=bottom;verticalAlign=top;align=center;html=1;fontSize=12;fontStyle=0;aspect=fixed;shape=mxgraph.aws4.resourceIcon;resIcon=mxgraph.aws4.s3;" vertex="1" parent="1">
          <mxGeometry x="500.5" y="-519.5" width="49.5" height="49.5" as="geometry" />
        </mxCell>
        <mxCell id="4sYesMDpXX-5hcElLDRR-73" value="Account" style="text;html=1;align=center;verticalAlign=middle;whiteSpace=wrap;rounded=0;" vertex="1" parent="1">
          <mxGeometry x="495.25" y="-560" width="60" height="30" as="geometry" />
        </mxCell>
        <mxCell id="4sYesMDpXX-5hcElLDRR-74" value="Oportunities" style="text;html=1;align=center;verticalAlign=middle;whiteSpace=wrap;rounded=0;" vertex="1" parent="1">
          <mxGeometry x="500" y="-462.5" width="60" height="30" as="geometry" />
        </mxCell>
        <mxCell id="4sYesMDpXX-5hcElLDRR-75" value="" style="sketch=0;points=[[0,0,0],[0.25,0,0],[0.5,0,0],[0.75,0,0],[1,0,0],[0,1,0],[0.25,1,0],[0.5,1,0],[0.75,1,0],[1,1,0],[0,0.25,0],[0,0.5,0],[0,0.75,0],[1,0.25,0],[1,0.5,0],[1,0.75,0]];outlineConnect=0;fontColor=#232F3E;fillColor=#7AA116;strokeColor=#ffffff;dashed=0;verticalLabelPosition=bottom;verticalAlign=top;align=center;html=1;fontSize=12;fontStyle=0;aspect=fixed;shape=mxgraph.aws4.resourceIcon;resIcon=mxgraph.aws4.s3;" vertex="1" parent="1">
          <mxGeometry x="505.25" y="-432.5" width="49.5" height="49.5" as="geometry" />
        </mxCell>
        <mxCell id="4sYesMDpXX-5hcElLDRR-76" value="Prospect" style="text;html=1;align=center;verticalAlign=middle;whiteSpace=wrap;rounded=0;" vertex="1" parent="1">
          <mxGeometry x="500.5" y="-379.5" width="60" height="30" as="geometry" />
        </mxCell>
        <mxCell id="4sYesMDpXX-5hcElLDRR-77" value="" style="sketch=0;points=[[0,0,0],[0.25,0,0],[0.5,0,0],[0.75,0,0],[1,0,0],[0,1,0],[0.25,1,0],[0.5,1,0],[0.75,1,0],[1,1,0],[0,0.25,0],[0,0.5,0],[0,0.75,0],[1,0.25,0],[1,0.5,0],[1,0.75,0]];outlineConnect=0;fontColor=#232F3E;fillColor=#7AA116;strokeColor=#ffffff;dashed=0;verticalLabelPosition=bottom;verticalAlign=top;align=center;html=1;fontSize=12;fontStyle=0;aspect=fixed;shape=mxgraph.aws4.resourceIcon;resIcon=mxgraph.aws4.s3;" vertex="1" parent="1">
          <mxGeometry x="505.25" y="-349.5" width="49.5" height="49.5" as="geometry" />
        </mxCell>
        <mxCell id="4sYesMDpXX-5hcElLDRR-78" value="Contact" style="text;html=1;align=center;verticalAlign=middle;whiteSpace=wrap;rounded=0;" vertex="1" parent="1">
          <mxGeometry x="500" y="-300" width="60" height="30" as="geometry" />
        </mxCell>
        <mxCell id="4sYesMDpXX-5hcElLDRR-79" value="" style="sketch=0;points=[[0,0,0],[0.25,0,0],[0.5,0,0],[0.75,0,0],[1,0,0],[0,1,0],[0.25,1,0],[0.5,1,0],[0.75,1,0],[1,1,0],[0,0.25,0],[0,0.5,0],[0,0.75,0],[1,0.25,0],[1,0.5,0],[1,0.75,0]];outlineConnect=0;fontColor=#232F3E;fillColor=#7AA116;strokeColor=#ffffff;dashed=0;verticalLabelPosition=bottom;verticalAlign=top;align=center;html=1;fontSize=12;fontStyle=0;aspect=fixed;shape=mxgraph.aws4.resourceIcon;resIcon=mxgraph.aws4.s3;" vertex="1" parent="1">
          <mxGeometry x="505.25" y="-272.25" width="49.5" height="49.5" as="geometry" />
        </mxCell>
        <mxCell id="4sYesMDpXX-5hcElLDRR-80" value="Interatcty" style="text;html=1;align=center;verticalAlign=middle;whiteSpace=wrap;rounded=0;" vertex="1" parent="1">
          <mxGeometry x="500" y="-231.5" width="60" height="30" as="geometry" />
        </mxCell>
        <mxCell id="4sYesMDpXX-5hcElLDRR-81" value="" style="shape=image;verticalLabelPosition=bottom;labelBackgroundColor=default;verticalAlign=top;aspect=fixed;imageAspect=0;image=data:image/png,iVBORw0KGgoAAAANSUhEUgAAAgEAAAFpCAYAAAAFqfvLAAAeP0lEQVR42u3dCZglRYEn8ACUWxQPVBBEHE/ACxkP8EDxHB0FRXe88L4dcNSBcWUaB9hBVxfFY2yleS+zuhstzxkcF/FgZFWEZZRBQLC6KjOr2rZtEJH7aLo2MqtWRZqu+73MfL//9/2+5qjuroqIjIiXGREZgoiIiIgMYE6buHdYUewThvInhG5xQEjG/jIkxaF/4uDqv5fKr1s19uCQrt9JwYmIiNQ5p6/ZM6TZM0KSHRkdH/85iYP6D0I3vzQk+W+ijdHkPN0Q5dFPojOjz8eJwt/HXw8L6fh+oZNtrwJERESWOudM3i0OvE+Mg/Bb4wD/6WqgT/KrFzDAL4ZNURHS/JvVBCQpXhRWj91fZYmIiCwkKy6/RxxcXxidEJ0TB9vr+zzgz0ExHr/nr0TvCkNjj1CZIiIiM6Uzsf/07fbvR7c2Z9Cf0UT8uTpxcvCacPrI/VS0iIjI5ORWYSh/akiyT1Sfntsz6G9JuUbhe9E7Qyd7gEYgIiKDlWqFfv7xARr478rtoZudG8vhPdUOBhERkVZm5cgu04v6/nPAB/67cnM0XG1ZLO+QiIiIND5Te/M709vtDPazMxKS7NiQrL2PBiQiIs1K+Um2OoSn2ltvUJ+/60OaLQ+d0YdpVCIiUu+Ue/mT/I3RLwzgi+q2aFXoZI/TyEREpF4ZntwmpMVrp25jG7SXVDf/eugW+2p0NZn0LpvcWkGIyGCmvO2fFkfEwekyA3SvtxkW3eodB7I4WX7h3cPQxF+EoeI5IcneFsv3n6u1LN3s32J5/zj+t19On1B5dbWr4851cs30/xsLaT4af//507/3M9FxIc1eH7pjzw2d7JHV5EFEpNEpj/BN8h8akPu9oyD7hO2Fc0x5PkOSv2Bq8WX2pfjPVyzwHRNzdUv0s2goThaOmfpeJvZQMSJS/wzlD6wWq/W202TL4ifQ4ii3pu8iK8Z3r+5Yle126sVSm2paj+uqbaLlVto0f4iKE5H6pBxgkvzd0bUG3dr6URgae+zAt9VTR7aLA/7zpl40lWcNrs+x6Avx5/ir6mcSEelLVhaPrgYYg2wzdhJ0i1NCun6ngWqj5Wudu/nLqhc3NeplU7P2+2h1SIqXD1zdikifUr2+t/jH6dPsDLCNO3Aof0r7704Vh04fRnXNANXtjXHCc0ac8DzL6ZIislSfrPa28K8F7yZIs0+27lZyJ7vX9BHUl6rjcrJXHBPSNbvptERkcZLmb4qdy3U62Nb4WUjH92t8uyzXO5RbI5P8JnW6uR0H2ZeqXTsiIvNK+ZKfqWeqOtU23kJOsiMb2S67Y0+P3/+3aryqv2aKs6oyExGZfUdb7Du9X1on2mblNrmmPB6oDu4pD+pRb/P0wzipf6F1AyKy5STZSwZsYdWgHz38n7Xeh94ZPzB+n99VV4t2Z+D8OMk/SEcnIndMubq6m33EbdaBdFXoZM+sVXtcUewTv68va49LYlP1EqpkdC8dn4iEMDyxg+f/FpOFbv7qWrTFJDvegr+ebS88MQxv2FknKDKoKbcTJfl5OkSmPyF+sM+PosbUQ88VoZM9X2coMmjpjD5s6i1nOkLu4As9fbvd6nX3DUnxReXe9/UC3bCq2FXHKDIQdwDG94sX/q91fGxe9q892TmQ5ofHv+83yrs2fl3ViYi0ON3igHixX6nDYwb/Xp3DvxQpz6GoFqcp55oaslZApJ0TgINsAWQOt4i/XS3WW9y7UE+Mf/YaZVt7l4dk7DE6TZG2JMkfH/1O58YcJwI/WJRPheVBNUlx1NSxtsq1IW6q6kxEGp7qrPX8ap0a8/SdMHzJtvP/9L9+p+l9/8qykadL5iu9tliksXcARh9uESCLcLrg18Pw5DZzbn8r1z4o/v4LlWHjXRROX7OnDlWkSSkv2iRfqwNjkXxqTu1v6oU/G5Rbax4NjVsnINKUrLj8HtXsXefF4t4R+NDsHgFU2/+c/Nc+14W0eLEOVqTOWX7h3UM3O1uHxZKcLJhmr9/yI6hqAeDtyqq1NoYke5uOVqS26wDyFToqltDNoZM9+U7trtoBkJ2sfAZmMni0zlakbikvTB0UvThdLpnY4w4TgDT7pHIZOMfpdEXqkqH8qfZh00PnVccLV3cA8k8pj4E9Zvpkna9I3x8BxE9l3Xy9DokeLxQ8LXSLf1EWA3+WwAk6YZF+pVwImOQ/1hkBffR3OmORvtwFyE/SAQF9XyyYZEfqkEV6OgEoDp7asqMTAvru1tDJnq9jFunJY4DRe8aLLtfxADVyQ/QUHbTIUqd8sYcOB6jfgtH11XsjRGTJJgAv1NkANfbTMDyxg85aZLGzcmSXqZd56GiAOm8dzBIdtsji3wX4rA4GaMhE4O06bZHFytSpgF7OAjTFLRYKiixGlk1uHS+mC3UqQMOMVY8xa3t3df1OYdXYg0Nn/MD4vb4gpMVrp97DUhwzdQ5LdnLo5h+L/235H5V3ZMsXZlWOn/7aN0eHhe7Y00O32DesHrt/GJ7cxuAli5Mkf6POBGjmjoGi09f+s5PtPTXA5++Kv348+lp0UfT7JT87Ic1H46/fnTpmO/9Q6GZ/E5Kxx1SnvYrMKisuv8fUm9t0JkBjHbbkfWX5yXto7LHx0/rr48TjlDgAnxP/3qtre7jS1ERkKPpAnKg8Myxft6MBTzZzF8B72oHGuzIOdA9Y3EH/km3jYH9Q7COPjX/+v0fXNLyMbgtJcX41genmL6seKcjALwZ84PQpXDoRoOG7BfJvLvzOaLFPHCT/NnSzs+OfeWP738mQXxgnBCdWC8OtMRjItQCn6jyAFq0PeMWc+sDJya2mdkZVd0QvGfDy+22cEJwRJ1OHO4xpICYAo3vFSr9ZxwG0yLrq3SczrtrPHzW18j5fo8w2q7wLcmZIiyOqxyLSwpRbUTR0oH3vF/jY5vu8NbvFwf998Wt+ppzmpFz8+KnQmdjfwNmaHQHju08ftKGBA21zW7WK//+nWxww/aHnRmWzYBfG8nxrGN6ws4G00Y8Cin/WmIH23g3Izp0+/8QhaEuj3CnxP73RsZGPAdbvFCvvKo0YgEU4j2C4OhFRGpJy+4uGC8Cibjcszgqd7MkG2Tpn6h0BVsMCsFTOjJOBxxlw67kW4FANFIAeHET05WorptTqcKBhjROAnu3UKHdmrF53XwNwv1NWgsOBAOjHaYRJcZSjifu6IDB/v4YIQB9dVB3TLH15FHCRBghA39cLlI8IytfYS48yNPYIDQ+AGvlVSLKXGKB7cxfgOA0OgNrpFp2wcmQXA/XSTgIu0dgAqKk8JMXBBuulSCd7pAYGQO23E3bzD9lBsOi7ArL3alwANEPxg+pNt7Jok4CzNSoAGmRDdIgBfKGZemPgTRoUAI17PJAUxxjIF7QgsHiRhgRAo3cPdLLtDejzehRQnKIRAdBw/ycka+9jUJ/z44DsAo0HgBZYE5LRhxvYZ5vhiR1iod2i4QDQEleFbnGQAX5WjwLGnq7BANAyN0QvMMjPuCgwO1ZjAaCFbglD2UsN9FtcD5B/RUMBoKU2hm7xOoP9Xb8v4AqNBIBWTwSS/I0G/M0vCtyogQDQcptCmr/JwH+HlwaNH6hhADAwdwTS4giD/x/fF/AGjQKAAXJz6I491wRgaj3ASRoEAIO3fbA42CQgyVdpDAAMoN+GobFHDPok4EcaAgADaiyka3Yb5EnArzQCAAZXcX5Yvm7HAdweeMm2sQBu1wAAGGjd/IwwObnVgN0FmNhD5QNAdUfgmAGbBIw9RqUDQOX2wdo6mOSHqHQA+IPfhJVrHzQgk4Di5SocAO7gJ+HUke0G4O2BxVtUNgDcaaHgxwbgyODib1U2AGxufUDx7JZPAvL3q2gA2Ky1IVl7nza/POgfVDIA3KWvtnlNwD+qYADY4vkBr2npJCA/QeUCwBZdGU4fuV8Ltwhmx6tcAJhR2sbDgj6oYgFgNtsG23aaYJq/T8UCwCyk+Wi73jbonAAAmMPdgOzDbVoT8DaVCgCzdmNYNfbgtjwOeJUKBYA5WdWSSUD2PJUJAHOyKSTFwc2fBAzlT1CZADBn54XJya0aviZgdC8VCQDz2S1QvLjZk4DhiR1UJADMy09bcDcgv1ZFAsC8HNb0bYIXq0QAmJefh2WTWzd4ElB8QyUCwHzXBuSHN/nUwFNUIgDMdxKQXeDoYAAYXE9p6sLAF6g8AFiQLzd0EjCxh8oDgAXZGLrjD23q3YArVSAALGiB4P9q6iTguyoQABbkqnDqyHZNnAR8XOUBwAJ1i1c0cIdA/mqVBwALnQRkZzdvEtDJ9lZ5ALBgm5q5QDApxlUeACxUsayJ6wJWqzgAWLDLG7guIHuHigOAxdguOL5f09YFPFLFAcCi+KcmPhIYUXEAMIiPBJL8VBUHAIugM7F/syYBafY8FQcAi7JL4JhmTQLK4w6T/FoVBwAL9v0mPhIYVnEAsGC3hBWX36Npk4DDVBwALILu+F838ZHA71QeACz0vID8s018odBpKg8AFuyy5k0C0vxZKg4AFmxTOG3i3s2aBExObhW/8StUHgAsdF1A/ldNfCTwfpUHAAt2UvMmAauKXeM3foPKA4AF+Y/QyCRFV+UBwIJcH5ZNbt2sCUD5DXezj6g8AFigzujDGvRa4Yn94zf9YxUHAItyXsDh9R/8hyd2CEl2fCiPOlRpALBIimX1ngAMjT8tfqMjKgoAFv1OwFdq+ul/cptqhpLkG1UUACyJK+o3ATh9zZ5xAvADlQMAS+rW6kN3fW7/Zy+N39RvVQwA9ED5wbseRwIXx8Rv6HaVAgA9Uq696+/Wv2z7+I0MqQwA6PXiwOK1/ZsArBjfPaTZBSoCAPriuD4d/zv2mPiXr1UBANA3X+jD2wCLA+JffJXCB4C++lo/DgD6vYIHgD7rZuf28BFAfkh0nYIHgDpMAvJLezMBSPMXxr/wZoUOALWZBKzvxRqAg+JfdoMCB4BaubUXrwC+WkEDQA0t3R2A8YfGv2CdQgaAQZoEpGt2C2k+qoABYJAmAcsvvHucAJyjcAFg0CYBSf4ZBQsAgzYJSPM3KVQAGLRJQJI/xVkAADBok4Dlo/eMf1imQAFg0CYBSb5KYQLAoE0CkuLlChIABm0SsHLtg4ITAQFgwCYBk5NbxT/g+woRABpp00JeDPQ6BQgAjXX1/CYAq4pd42/+jQIEgMYame9iwM8pPABotJ/M4/XA4wfG33i7wgOABkvzb85jMWBxvsIDgMZL5/pugMMVGgC0QDf7yOwnAMOT28TfdJmCA4A2PA7I3u4NgQAwiDrZ82e5GDDbPv6GQqEBQEsMjT1ilgcDZe9QYADQGpvC8MQOM08Alk1uHb/4CgUGAK2xbnZ3AYaylyosAGjVzoCzZ/so4FwFBgBtmgTkH5vFjoDxJyosAGib7MhZTAKyREEBQNvuBBQHzHA40Iad4xdep7AAoFU2zrwzoJu9QUEBQOseBVw8m9cF/0BBAUDLpPlnZzohcO/qIAGFBQBt2xnw6hnuAuTHKSgAaKEVxT4zTQIuVFAA0Dq/2vIEYMX47h4FAEArFwV+aYa7ANnbFBIAtHJR4JtmOCAo/6aCAoAWOn3Nnls4IGhih/hFNygoABi08wGS/BCFBABt3BqYfWSGUwLzDykoAGilQ2Y6JfAshQQArXNlOGfybnc9AVg2uXX8omsUFAC07VFA8S8zHRX8OAUFAK3cGvisGdYDFG9VUADQtrsA+fowPLnNTIcEfUJhAUDr7gJ8duZXB3ezsxUWALRMJ3vyzJOAJF+rsACgVX4+8wRg5cguwUuDAKBljwKyo2eeBKTZkxQWALTKzWH1uvvO4lFA9kqFBQCt2hVwRphVytsFCgwAWqQ4eHaTgPKlAgoMANqyFuCCMOskearQAKAtk4DiiLlMAr6j0ACgFbItvyzozpOAixQaALRiLcBRYU5J8hGFBgCNtyEMb9h5rpOACQUHAI1fEHh0mHPKmYPCA4AmWxeGJ3aYzyTgWoUHAE2+C5C/K8wrSX6LAgSAxirCqSPbzXcScLsCBIDG3gV4VZh3ypcMKEQAaKLzwuTkVguZBFgTAADNsykkY38ZFpQkv1JBAkDjtgQmYcFJ8rUKEwAa5fchmdhj4ZOAbn6pwgSAQdgSeOdXCZ+rQAGgMX4Shie3WaRJQP51BQoAjXBbGBp7bFi0dPPTFCoANOIxwAlhUdPNT1SwAFB7Pw3Dl2y7uJOAtHiLggWAWrspdCb2D4ueoeI5ChcAau2dYUnSGX2YwgWA2q4D+N8LOxp4SynfPJTkGxU0ANTO2pCu2S0saZL8FwoaAGrl1pAUB4clT5IPK2wAqNVjgHeFniTJj1PgAFAbq0PPkmQvUeAAUAs/C8vX7di7ScDqsfsrdADou1+F09fsGXqeJB9T+ADQN9eFTva40Jek+UoVAAB9sTF0x/869C3laUQqAQD6sBMge3voa9L8USoCAHotOzbUItYFAEDvdItTQm2SZstVCgD0xGdCrZLkh6kUAFhyK8Kyya3rNQkY3rBz/MZuVDkAsGQ+tXRvBVz43YCvqiAAWIo1ANlHQq2TZv9NRQHAou8CODnUPh4JAMBi2hjKs3gak25+hkoDgAW7PiTFi0KjkhSHqjgAWJBfh3T8iaFxKbctpPmoCgSAeT3/vzh0sr1DY9PNP6QSAWCuii+GdP1OodFJ1+wWf5ibVCYAzHYBYHFMfc8AmPuZAaerVACY0YbokNCqpOP7xR9qk8oFgLv03bBifPfQynSzs1UwANzJLSHN39ee2/+b3y54sIoGgDv4RRjKnxAGIkn+PRUOAPltIc0+2fzV/3PJUP5UFQ/AgPuv0Bk/MAxkkuIsDQCAAXRjSLJjwzmTdwsDm5XFo6vbIBoDAIPjzJDmDwlS3Q34nAYBwAC4LKTZ8wz8dz5F8BqNA4CWWhcH/7eH4cltDPqbnQhkR2skALTMlaGbvz8sX7ejgX6mNwwm+Y81GABa4NqQZCeH5aP3NMDPem3A2GNiwd2q8QDQSN18fRz8jw+ril0N6vOaCMSZk4YEQLP8PI5fR4bhS7Y1kC8kp45sVx2coEEBUG/lneuvVqv9W33Of3/ODrhRAwOghkaqW/6nr9nTgL10bxl8r4YGQG1W+afZ8tDJnulTf+92C5yp4QHQJ78L3aITB/7nD/bRvv1KJ7tXrIQ1GiIAPZHmo9Xb/JLi0GqNmvR7t0D++OgmjROAJVBEq+In/rd6xl/b9QHF6zRUgNqukL+6Id9rueD8/4Zu/un4if9VBv1GHSucn+BiA6jb7fPif0zdtZ3Yo9oql+QfiL8m1WBbLqbrz/d1fbVvv5t/PToxfo9HhKGxRzi3v8kpV2N28zNcdAC1kc94Jn66fqfQLfYNSfGi+PXvDt3sw9Un8an+/DvRz6rn8OWfNXVHoXTL9J9/+5/8t7XV13XzS+OfcW78969FX6gmIUn+dyHJXhknH0+qXkgnrV0ouP105bv4APptKHupgUl6fJDQyC7Tt5lcgAB9U5xlQJL+ZPW6+1a3hFyIAP1wXUjzhxiMpI9bByf2CEn2SxcjQM+92SAkNbgjMHb/OBG42AUJ0CvZvxp8pD45beLeIc0ucGECLLkN1YcvkdpNBJL8hy5QgCWzKaTFiw04Us+UZzw7RwBgaZSH7ojUOuWBQuU7nl2wAIu5HfDbTtuT5iQt3hIb7s0uXIAFLwT8ZfVGV5FmTQSyJ1XHTLqIAebr2urIX5FGplzFmubnuJAB5uyWkBSHGkikBesEiqPCH19IAcCW3R66xSsMINKedMYPjA17xMUNMIM0O9qgIe3LisvvUb3Ccur1lC50gDv7J4OFtDtD+VNjQ7/MxQ5wh50AJxsgZEAeD2TbT58pcKMLH3AYUPH3BgYZvFRvI8zT6khMHQEwkMcBWwMgg57u2NPjxfBjHQIwWNsAsyMNACJ/uDNQHBovjAt1DkDLXR0dotMX+fOUZwuk+eHxAvmJjgJo5VHAyejDdfYiM2Vo/Gmhm/2bbYVAS3y/ev26iMxlMjDxF9X2mW6+XicCNHQB4CfD8gvvrkMXmW+GL9k2pMURIc2/6ShioCHWxT7rWTpwkcVMeUstzd8UL7DvRLfpaID6Kc4K6ZrddNgiS5l0/U4hLV4c0mx5vPAmdDxAn11TvTxt2eTWOmiRXqbaXTC+X+hm7whpvjJejIUOCejhp/9vhBXju+uMReqSofyBIc2eVx3NOTUxuCi6dok7g5ujK6KvxQnJh0M3f1nojD7MOQjQ4mf/XgEs0qCsXnff6jXH5YWbFO+ZHqw/Hf/5i9NrDaLi/OmB+09N/b80/0r8/5+Lv+fE+HvfG//5NdHB1XHI5R2JzSXJ36yzhFa5vnoXyvCGnXWqIrLlLF+34/RpYTpPaLbbq3eflHcaRURmnSQ/VQcKjbWxultYrj0SEZlzVhaP1pFSc78Lafb66AJlcYd1Pp+vDi8TEVng3YD/0KlSYyf9oa12i4Om1r+Un4AHsiyujD5qxb+ILF7Kkw8NNNTTjZs94KZc8NrN/mF618sgPO//TkiyV4ZTR7bTYYnI4qY8RKSbX2rAoXbKHTJbSrnzpdoFk38+2tCyn/8XIc1PCCuKfXRSIrK0qbYmGnSoldtCJ9t71m14eHKbkGbPiJ+YPxF/b97Qn7nc9vvBOPg/SqckIr29G5DkPzfwUCNDC2rTneyR8c94Z/TV6Lc1/RnXxAl4p1r4mIzupSMSkf7F2gDqdBdgMT8Nl5PcchtdNdjmn4rOq9Yb9PbRxvrq2X63OCX+bK+q1jWIiNTrbkB2sQGIGvhMT9p7+bhhqHhOdcegHJy7+dfjP/8wXge/jL9eN8fvufz6y6LvVQf3JNnJ8dd3xz/32eH0kfvpYESkAXcD8sMNQPT9rXd1GTSHJ3YIq4pdw8q1D6oW6JV3J7rFAdX+/PLfy9eId7J76ThEpD2Z+iRjMKJfPuAiFBHpV6ZOEbzVYEQfjMVP1tu7CEVE+ns34KMGJHp/LoDX34qI9D/lq0iTfMLARO8mANnZd/naaxER6XEcIETvXO9kPBGRuiUpvm2Aogd3Ad7hYhMRqd0kYGKPGp+2Rhuk+TkeA4iI1DXODmDp3FDtuRcRkTrfESi6BiyW4C7Au1xcIiJ1T7VboDpK1cDFIim+4TGAiEhT0hk/0CFCLI44oVw+ek8XlYhIk5JkxxrAWPA6gM7E/i4mEZGmpbx9m+YrDWTMfx1A9noXkohIU1O+WS0pzjegMQ+fdwGJiDQ9newBcSIwblBjDr4fTh3ZzsUjItKGJPnjq+NeDW7MvBDw4jhxvJeLRkSkTUmLI2Inf7tBji3Iw4rx3V0sIiJtTDd7g4kAd+G3oZM90kUiItLmJMV7DHj8mRtDtzjIxSEiMghJs6MNfPzhLICkONRFISIyWHcElhkAB165WPQQF4OIyCCmm59oIBxY10RPcRGIiAz2HYH3WCw4cH4X0uxJGr+IiITQLV4RB4abDY4D4Vehkz1OoxcRkT+mkz2z+oRokGyz/wrJ6F4au4iIbO6OwL6OGG6tb4WVI7to5CIictdZufZBccA4z6DZKh8Nyya31rhFRGTmDF+ybRw4TjV4Nt5N0Rs1aBERmXuGspdObyUzoDbP5RYAiojIwpKMPrx6s5xBtUnSMLxhZ41XREQWnnT9TnFg+UK0yQBba78P3exvNFgREVmCuwLFoXGgGTPY1tKPQnf8oRqpiIgsXZav2zEk2clx0Nlo4K3J6X9JcZTV/yIi0rsM5U+NA9AvDMJ9dWZIJvbQGEVEpPfpZNuHNP/vcTC61oDcU2tCd+y5GqCIiPQ/6Zrd4sD0meg2A/SSuir6QBie2EGjExGReqXaTpgP20Ww6K6v1mF0sntpZCIiUu8MjT8tpPk5Bu8Fu6U6uXH12P01KhERaVbS8SfGT7BfspNgHvv9k+wT8ZP/3hqRiIg0O+VgNrWt0BHEWzYWkuKYsKrYVaMREZF25bSJe8fJwLG2Fv6Z8tFJ+Z4Ge/1FRGQg0i32nb478JsBHfzzqZ9/9OEag4iIDGbK1xZPva3wa9Ovvm3zwL8uTn5OqdZKiIiIyJ+kOpI4f0FIs0/GX69owaC/Mf4sF8RfT4q/PiMMT26jkkVERGaTNH9I6GbvCEnxjTiQbmjIwJ9Fnw9pcUS1BkJEREQWISvGd4+D64tDkh1fnZvfzdf3/fZ+dX5//H7K72sof6BKEhER6VWS0b1Ct3h26GZvmJ4cnB59N/7zL+OvNy98v35+SfStkGbL46/Hxb/rdaE79vSwfPSeCl9ERKTOKffcd7IHhBXFPmFo7LGhM35gSIpDoxdVt+zT/IXVv5eL9cr/X35decdheMPOCk9EBiH/DytdnIA7HZ+8AAAAAElFTkSuQmCCwETvJgDZ2Xf52msREelxHCBE71zvZDwRkbolKb5tgKIHdwHe4WITEandJGBijxqftkYbpPk5HgOIiNQ1zg5g6dxQ7bkXEZE63xEougYsluAuwLtcXCIidU+1W6A6StXAxSIpvuExgIhIU9IZP9AhQiyOOKFcPnpPF5WISJOSZMcawFjwOoDOxP4uJhGRpqW8fZvmKw1kzH8dQPZ6F5KISFNTvlktKc43oDEPn3cBiYg0PZ3sAXEiMG5QYw6+H04d2c7FIyLShiT546vjXg1uzLwQ8OI4cbyXi0ZEpE1JiyNiJ3+7QY4tyMOK8d1dLCIibUw3e4OJAHfht6GTPdJFIiLS5iTFewx4/JkbQ7c4yMUhIjIISbOjDXz84SyApDjURSEiMlh3BJYZAAdeuVj0EBeDiMggppufaCAcWNdET3ERiIgM9h2B91gsOHB+F9LsSRq/iIiE0C1eEQeGmw2OA+FXoZM9TqMXEZE/ppM9s/qEaJBss/8KyeheGruIiGzujsC+jhhurW8=;" vertex="1" parent="1">
          <mxGeometry x="-406.5" y="-614.45" width="83" height="58.41" as="geometry" />
        </mxCell>
        <mxCell id="4sYesMDpXX-5hcElLDRR-82" value="" style="shape=image;verticalLabelPosition=bottom;labelBackgroundColor=default;verticalAlign=top;aspect=fixed;imageAspect=0;image=data:image/png,iVBORw0KGgoAAAANSUhEUgAAAgEAAAFpCAYAAAAFqfvLAAAeP0lEQVR42u3dCZglRYEn8ACUWxQPVBBEHE/ACxkP8EDxHB0FRXe88L4dcNSBcWUaB9hBVxfFY2yleS+zuhstzxkcF/FgZFWEZZRBQLC6KjOr2rZtEJH7aLo2MqtWRZqu+73MfL//9/2+5qjuroqIjIiXGREZgoiIiIgMYE6buHdYUewThvInhG5xQEjG/jIkxaF/4uDqv5fKr1s19uCQrt9JwYmIiNQ5p6/ZM6TZM0KSHRkdH/85iYP6D0I3vzQk+W+ijdHkPN0Q5dFPojOjz8eJwt/HXw8L6fh+oZNtrwJERESWOudM3i0OvE+Mg/Bb4wD/6WqgT/KrFzDAL4ZNURHS/JvVBCQpXhRWj91fZYmIiCwkKy6/RxxcXxidEJ0TB9vr+zzgz0ExHr/nr0TvCkNjj1CZIiIiM6Uzsf/07fbvR7c2Z9Cf0UT8uTpxcvCacPrI/VS0iIjI5ORWYSh/akiyT1Sfntsz6G9JuUbhe9E7Qyd7gEYgIiKDlWqFfv7xARr478rtoZudG8vhPdUOBhERkVZm5cgu04v6/nPAB/67cnM0XG1ZLO+QiIiIND5Te/M709vtDPazMxKS7NiQrL2PBiQiIs1K+Um2OoSn2ltvUJ+/60OaLQ+d0YdpVCIiUu+Ue/mT/I3RLwzgi+q2aFXoZI/TyEREpF4ZntwmpMVrp25jG7SXVDf/eugW+2p0NZn0LpvcWkGIyGCmvO2fFkfEwekyA3SvtxkW3eodB7I4WX7h3cPQxF+EoeI5IcneFsv3n6u1LN3s32J5/zj+t19On1B5dbWr4851cs30/xsLaT4af//507/3M9FxIc1eH7pjzw2d7JHV5EFEpNEpj/BN8h8akPu9oyD7hO2Fc0x5PkOSv2Bq8WX2pfjPVyzwHRNzdUv0s2goThaOmfpeJvZQMSJS/wzlD6wWq/W202TL4ifQ4ii3pu8iK8Z3r+5Yle126sVSm2paj+uqbaLlVto0f4iKE5H6pBxgkvzd0bUG3dr6URgae+zAt9VTR7aLA/7zpl40lWcNrs+x6Avx5/ir6mcSEelLVhaPrgYYg2wzdhJ0i1NCun6ngWqj5Wudu/nLqhc3NeplU7P2+2h1SIqXD1zdikifUr2+t/jH6dPsDLCNO3Aof0r7704Vh04fRnXNANXtjXHCc0ac8DzL6ZIislSfrPa28K8F7yZIs0+27lZyJ7vX9BHUl6rjcrJXHBPSNbvptERkcZLmb4qdy3U62Nb4WUjH92t8uyzXO5RbI5P8JnW6uR0H2ZeqXTsiIvNK+ZKfqWeqOtU23kJOsiMb2S67Y0+P3/+3aryqv2aKs6oyExGZfUdb7Du9X1on2mblNrmmPB6oDu4pD+pRb/P0wzipf6F1AyKy5STZSwZsYdWgHz38n7Xeh94ZPzB+n99VV4t2Z+D8OMk/SEcnIndMubq6m33EbdaBdFXoZM+sVXtcUewTv68va49LYlP1EqpkdC8dn4iEMDyxg+f/FpOFbv7qWrTFJDvegr+ebS88MQxv2FknKDKoKbcTJfl5OkSmPyF+sM+PosbUQ88VoZM9X2coMmjpjD5s6i1nOkLu4As9fbvd6nX3DUnxReXe9/UC3bCq2FXHKDIQdwDG94sX/q91fGxe9q892TmQ5ofHv+83yrs2fl3ViYi0ON3igHixX6nDYwb/Xp3DvxQpz6GoFqcp55oaslZApJ0TgINsAWQOt4i/XS3WW9y7UE+Mf/YaZVt7l4dk7DE6TZG2JMkfH/1O58YcJwI/WJRPheVBNUlx1NSxtsq1IW6q6kxEGp7qrPX8ap0a8/SdMHzJtvP/9L9+p+l9/8qykadL5iu9tliksXcARh9uESCLcLrg18Pw5DZzbn8r1z4o/v4LlWHjXRROX7OnDlWkSSkv2iRfqwNjkXxqTu1v6oU/G5Rbax4NjVsnINKUrLj8HtXsXefF4t4R+NDsHgFU2/+c/Nc+14W0eLEOVqTOWX7h3UM3O1uHxZKcLJhmr9/yI6hqAeDtyqq1NoYke5uOVqS26wDyFToqltDNoZM9+U7trtoBkJ2sfAZmMni0zlakbikvTB0UvThdLpnY4w4TgDT7pHIZOMfpdEXqkqH8qfZh00PnVccLV3cA8k8pj4E9Zvpkna9I3x8BxE9l3Xy9DokeLxQ8LXSLf1EWA3+WwAk6YZF+pVwImOQ/1hkBffR3OmORvtwFyE/SAQF9XyyYZEfqkEV6OgEoDp7asqMTAvru1tDJnq9jFunJY4DRe8aLLtfxADVyQ/QUHbTIUqd8sYcOB6jfgtH11XsjRGTJJgAv1NkANfbTMDyxg85aZLGzcmSXqZd56GiAOm8dzBIdtsji3wX4rA4GaMhE4O06bZHFytSpgF7OAjTFLRYKiixGlk1uHS+mC3UqQMOMVY8xa3t3df1OYdXYg0Nn/MD4vb4gpMVrp97DUhwzdQ5LdnLo5h+L/235H5V3ZMsXZlWOn/7aN0eHhe7Y00O32DesHrt/GJ7cxuAli5Mkf6POBGjmjoGi09f+s5PtPTXA5++Kv348+lp0UfT7JT87Ic1H46/fnTpmO/9Q6GZ/E5Kxx1SnvYrMKisuv8fUm9t0JkBjHbbkfWX5yXto7LHx0/rr48TjlDgAnxP/3qtre7jS1ERkKPpAnKg8Myxft6MBTzZzF8B72oHGuzIOdA9Y3EH/km3jYH9Q7COPjX/+v0fXNLyMbgtJcX41genmL6seKcjALwZ84PQpXDoRoOG7BfJvLvzOaLFPHCT/NnSzs+OfeWP738mQXxgnBCdWC8OtMRjItQCn6jyAFq0PeMWc+sDJya2mdkZVd0QvGfDy+22cEJwRJ1OHO4xpICYAo3vFSr9ZxwG0yLrq3SczrtrPHzW18j5fo8w2q7wLcmZIiyOqxyLSwpRbUTR0oH3vF/jY5vu8NbvFwf998Wt+ppzmpFz8+KnQmdjfwNmaHQHju08ftKGBA21zW7WK//+nWxww/aHnRmWzYBfG8nxrGN6ws4G00Y8Cin/WmIH23g3Izp0+/8QhaEuj3CnxP73RsZGPAdbvFCvvKo0YgEU4j2C4OhFRGpJy+4uGC8Cibjcszgqd7MkG2Tpn6h0BVsMCsFTOjJOBxxlw67kW4FANFIAeHET05WorptTqcKBhjROAnu3UKHdmrF53XwNwv1NWgsOBAOjHaYRJcZSjifu6IDB/v4YIQB9dVB3TLH15FHCRBghA39cLlI8IytfYS48yNPYIDQ+AGvlVSLKXGKB7cxfgOA0OgNrpFp2wcmQXA/XSTgIu0dgAqKk8JMXBBuulSCd7pAYGQO23E3bzD9lBsOi7ArL3alwANEPxg+pNt7Jok4CzNSoAGmRDdIgBfKGZemPgTRoUAI17PJAUxxjIF7QgsHiRhgRAo3cPdLLtDejzehRQnKIRAdBw/ycka+9jUJ/z44DsAo0HgBZYE5LRhxvYZ5vhiR1iod2i4QDQEleFbnGQAX5WjwLGnq7BANAyN0QvMMjPuCgwO1ZjAaCFbglD2UsN9FtcD5B/RUMBoKU2hm7xOoP9Xb8v4AqNBIBWTwSS/I0G/M0vCtyogQDQcptCmr/JwH+HlwaNH6hhADAwdwTS4giD/x/fF/AGjQKAAXJz6I491wRgaj3ASRoEAIO3fbA42CQgyVdpDAAMoN+GobFHDPok4EcaAgADaiyka3Yb5EnArzQCAAZXcX5Yvm7HAdweeMm2sQBu1wAAGGjd/IwwObnVgN0FmNhD5QNAdUfgmAGbBIw9RqUDQOX2wdo6mOSHqHQA+IPfhJVrHzQgk4Di5SocAO7gJ+HUke0G4O2BxVtUNgDcaaHgxwbgyODib1U2AGxufUDx7JZPAvL3q2gA2Ky1IVl7nza/POgfVDIA3KWvtnlNwD+qYADY4vkBr2npJCA/QeUCwBZdGU4fuV8Ltwhmx6tcAJhR2sbDgj6oYgFgNtsG23aaYJq/T8UCwCyk+Wi73jbonAAAmMPdgOzDbVoT8DaVCgCzdmNYNfbgtjwOeJUKBYA5WdWSSUD2PJUJAHOyKSTFwc2fBAzlT1CZADBn54XJya0aviZgdC8VCQDz2S1QvLjZk4DhiR1UJADMy09bcDcgv1ZFAsC8HNb0bYIXq0QAmJefh2WTWzd4ElB8QyUCwHzXBuSHN/nUwFNUIgDMdxKQXeDoYAAYXE9p6sLAF6g8AFiQLzd0EjCxh8oDgAXZGLrjD23q3YArVSAALGiB4P9q6iTguyoQABbkqnDqyHZNnAR8XOUBwAJ1i1c0cIdA/mqVBwALnQRkZzdvEtDJ9lZ5ALBgm5q5QDApxlUeACxUsayJ6wJWqzgAWLDLG7guIHuHigOAxdguOL5f09YFPFLFAcCi+KcmPhIYUXEAMIiPBJL8VBUHAIugM7F/syYBafY8FQcAi7JL4JhmTQLK4w6T/FoVBwAL9v0mPhIYVnEAsGC3hBWX36Npk4DDVBwALILu+F838ZHA71QeACz0vID8s018odBpKg8AFuyy5k0C0vxZKg4AFmxTOG3i3s2aBExObhW/8StUHgAsdF1A/ldNfCTwfpUHAAt2UvMmAauKXeM3foPKA4AF+Y/QyCRFV+UBwIJcH5ZNbt2sCUD5DXezj6g8AFigzujDGvRa4Yn94zf9YxUHAItyXsDh9R/8hyd2CEl2fCiPOlRpALBIimX1ngAMjT8tfqMjKgoAFv1OwFdq+ul/cptqhpLkG1UUACyJK+o3ATh9zZ5xAvADlQMAS+rW6kN3fW7/Zy+N39RvVQwA9ED5wbseRwIXx8Rv6HaVAgA9Uq696+/Wv2z7+I0MqQwA6PXiwOK1/ZsArBjfPaTZBSoCAPriuD4d/zv2mPiXr1UBANA3X+jD2wCLA+JffJXCB4C++lo/DgD6vYIHgD7rZuf28BFAfkh0nYIHgDpMAvJLezMBSPMXxr/wZoUOALWZBKzvxRqAg+JfdoMCB4BaubUXrwC+WkEDQA0t3R2A8YfGv2CdQgaAQZoEpGt2C2k+qoABYJAmAcsvvHucAJyjcAFg0CYBSf4ZBQsAgzYJSPM3KVQAGLRJQJI/xVkAADBok4Dlo/eMf1imQAFg0CYBSb5KYQLAoE0CkuLlChIABm0SsHLtg4ITAQFgwCYBk5NbxT/g+woRABpp00JeDPQ6BQgAjXX1/CYAq4pd42/+jQIEgMYame9iwM8pPABotJ/M4/XA4wfG33i7wgOABkvzb85jMWBxvsIDgMZL5/pugMMVGgC0QDf7yOwnAMOT28TfdJmCA4A2PA7I3u4NgQAwiDrZ82e5GDDbPv6GQqEBQEsMjT1ilgcDZe9QYADQGpvC8MQOM08Alk1uHb/4CgUGAK2xbnZ3AYaylyosAGjVzoCzZ/so4FwFBgBtmgTkH5vFjoDxJyosAGib7MhZTAKyREEBQNvuBBQHzHA40Iad4xdep7AAoFU2zrwzoJu9QUEBQOseBVw8m9cF/0BBAUDLpPlnZzohcO/qIAGFBQBt2xnw6hnuAuTHKSgAaKEVxT4zTQIuVFAA0Dq/2vIEYMX47h4FAEArFwV+aYa7ANnbFBIAtHJR4JtmOCAo/6aCAoAWOn3Nnls4IGhih/hFNygoABi08wGS/BCFBABt3BqYfWSGUwLzDykoAGilQ2Y6JfAshQQArXNlOGfybnc9AVg2uXX8omsUFAC07VFA8S8zHRX8OAUFAK3cGvisGdYDFG9VUADQtrsA+fowPLnNTIcEfUJhAUDr7gJ8duZXB3ezsxUWALRMJ3vyzJOAJF+rsACgVX4+8wRg5cguwUuDAKBljwKyo2eeBKTZkxQWALTKzWH1uvvO4lFA9kqFBQCt2hVwRphVytsFCgwAWqQ4eHaTgPKlAgoMANqyFuCCMOskearQAKAtk4DiiLlMAr6j0ACgFbItvyzozpOAixQaALRiLcBRYU5J8hGFBgCNtyEMb9h5rpOACQUHAI1fEHh0mHPKmYPCA4AmWxeGJ3aYzyTgWoUHAE2+C5C/K8wrSX6LAgSAxirCqSPbzXcScLsCBIDG3gV4VZh3ypcMKEQAaKLzwuTkVguZBFgTAADNsykkY38ZFpQkv1JBAkDjtgQmYcFJ8rUKEwAa5fchmdhj4ZOAbn6pwgSAQdgSeOdXCZ+rQAGgMX4Shie3WaRJQP51BQoAjXBbGBp7bFi0dPPTFCoANOIxwAlhUdPNT1SwAFB7Pw3Dl2y7uJOAtHiLggWAWrspdCb2D4ueoeI5ChcAau2dYUnSGX2YwgWA2q4D+N8LOxp4SynfPJTkGxU0ANTO2pCu2S0saZL8FwoaAGrl1pAUB4clT5IPK2wAqNVjgHeFniTJj1PgAFAbq0PPkmQvUeAAUAs/C8vX7di7ScDqsfsrdADou1+F09fsGXqeJB9T+ADQN9eFTva40Jek+UoVAAB9sTF0x/869C3laUQqAQD6sBMge3voa9L8USoCAHotOzbUItYFAEDvdItTQm2SZstVCgD0xGdCrZLkh6kUAFhyK8Kyya3rNQkY3rBz/MZuVDkAsGQ+tXRvBVz43YCvqiAAWIo1ANlHQq2TZv9NRQHAou8CODnUPh4JAMBi2hjKs3gak25+hkoDgAW7PiTFi0KjkhSHqjgAWJBfh3T8iaFxKbctpPmoCgSAeT3/vzh0sr1DY9PNP6QSAWCuii+GdP1OodFJ1+wWf5ibVCYAzHYBYHFMfc8AmPuZAaerVACY0YbokNCqpOP7xR9qk8oFgLv03bBifPfQynSzs1UwANzJLSHN39ee2/+b3y54sIoGgDv4RRjKnxAGIkn+PRUOAPltIc0+2fzV/3PJUP5UFQ/AgPuv0Bk/MAxkkuIsDQCAAXRjSLJjwzmTdwsDm5XFo6vbIBoDAIPjzJDmDwlS3Q34nAYBwAC4LKTZ8wz8dz5F8BqNA4CWWhcH/7eH4cltDPqbnQhkR2skALTMlaGbvz8sX7ejgX6mNwwm+Y81GABa4NqQZCeH5aP3NMDPem3A2GNiwd2q8QDQSN18fRz8jw+ril0N6vOaCMSZk4YEQLP8PI5fR4bhS7Y1kC8kp45sVx2coEEBUG/lneuvVqv9W33Of3/ODrhRAwOghkaqW/6nr9nTgL10bxl8r4YGQG1W+afZ8tDJnulTf+92C5yp4QHQJ78L3aITB/7nD/bRvv1KJ7tXrIQ1GiIAPZHmo9Xb/JLi0GqNmvR7t0D++OgmjROAJVBEq+In/rd6xl/b9QHF6zRUgNqukL+6Id9rueD8/4Zu/un4if9VBv1GHSucn+BiA6jb7fPif0zdtZ3Yo9oql+QfiL8m1WBbLqbrz/d1fbVvv5t/PToxfo9HhKGxRzi3v8kpV2N28zNcdAC1kc94Jn66fqfQLfYNSfGi+PXvDt3sw9Un8an+/DvRz6rn8OWfNXVHoXTL9J9/+5/8t7XV13XzS+OfcW78969FX6gmIUn+dyHJXhknH0+qXkgnrV0ouP105bv4APptKHupgUl6fJDQyC7Tt5lcgAB9U5xlQJL+ZPW6+1a3hFyIAP1wXUjzhxiMpI9bByf2CEn2SxcjQM+92SAkNbgjMHb/OBG42AUJ0CvZvxp8pD45beLeIc0ucGECLLkN1YcvkdpNBJL8hy5QgCWzKaTFiw04Us+UZzw7RwBgaZSH7ojUOuWBQuU7nl2wAIu5HfDbTtuT5iQt3hIb7s0uXIAFLwT8ZfVGV5FmTQSyJ1XHTLqIAebr2urIX5FGplzFmubnuJAB5uyWkBSHGkikBesEiqPCH19IAcCW3R66xSsMINKedMYPjA17xMUNMIM0O9qgIe3LisvvUb3Ccur1lC50gDv7J4OFtDtD+VNjQ7/MxQ5wh50AJxsgZEAeD2TbT58pcKMLH3AYUPH3BgYZvFRvI8zT6khMHQEwkMcBWwMgg57u2NPjxfBjHQIwWNsAsyMNACJ/uDNQHBovjAt1DkDLXR0dotMX+fOUZwuk+eHxAvmJjgJo5VHAyejDdfYiM2Vo/Gmhm/2bbYVAS3y/ev26iMxlMjDxF9X2mW6+XicCNHQB4CfD8gvvrkMXmW+GL9k2pMURIc2/6ShioCHWxT7rWTpwkcVMeUstzd8UL7DvRLfpaID6Kc4K6ZrddNgiS5l0/U4hLV4c0mx5vPAmdDxAn11TvTxt2eTWOmiRXqbaXTC+X+hm7whpvjJejIUOCejhp/9vhBXju+uMReqSofyBIc2eVx3NOTUxuCi6dok7g5ujK6KvxQnJh0M3f1nojD7MOQjQ4mf/XgEs0qCsXnff6jXH5YWbFO+ZHqw/Hf/5i9NrDaLi/OmB+09N/b80/0r8/5+Lv+fE+HvfG//5NdHB1XHI5R2JzSXJ36yzhFa5vnoXyvCGnXWqIrLlLF+34/RpYTpPaLbbq3eflHcaRURmnSQ/VQcKjbWxultYrj0SEZlzVhaP1pFSc78Lafb66AJlcYd1Pp+vDi8TEVng3YD/0KlSYyf9oa12i4Om1r+Un4AHsiyujD5qxb+ILF7Kkw8NNNTTjZs94KZc8NrN/mF618sgPO//TkiyV4ZTR7bTYYnI4qY8RKSbX2rAoXbKHTJbSrnzpdoFk38+2tCyn/8XIc1PCCuKfXRSIrK0qbYmGnSoldtCJ9t71m14eHKbkGbPiJ+YPxF/b97Qn7nc9vvBOPg/SqckIr29G5DkPzfwUCNDC2rTneyR8c94Z/TV6Lc1/RnXxAl4p1r4mIzupSMSkf7F2gDqdBdgMT8Nl5PcchtdNdjmn4rOq9Yb9PbRxvrq2X63OCX+bK+q1jWIiNTrbkB2sQGIGvhMT9p7+bhhqHhOdcegHJy7+dfjP/8wXge/jL9eN8fvufz6y6LvVQf3JNnJ8dd3xz/32eH0kfvpYESkAXcD8sMNQPT9rXd1GTSHJ3YIq4pdw8q1D6oW6JV3J7rFAdX+/PLfy9eId7J76ThEpD2Z+iRjMKJfPuAiFBHpV6ZOEbzVYEQfjMVP1tu7CEVE+ns34KMGJHp/LoDX34qI9D/lq0iTfMLARO8mANnZd/naaxER6XEcIETvXO9kPBGRuiUpvm2Aogd3Ad7hYhMRqd0kYGKPGp+2Rhuk+TkeA4iI1DXODmDp3FDtuRcRkTrfESi6BiyW4C7Au1xcIiJ1T7VboDpK1cDFIim+4TGAiEhT0hk/0CFCLI44oVw+ek8XlYhIk5JkxxrAWPA6gM7E/i4mEZGmpbx9m+YrDWTMfx1A9noXkohIU1O+WS0pzjegMQ+fdwGJiDQ9newBcSIwblBjDr4fTh3ZzsUjItKGJPnjq+NeDW7MvBDw4jhxvJeLRkSkTUmLI2Inf7tBji3Iw4rx3V0sIiJtTDd7g4kAd+G3oZM90kUiItLmJMV7DHj8mRtDtzjIxSEiMghJs6MNfPzhLICkONRFISIyWHcElhkAB165WPQQF4OIyCCmm59oIBxY10RPcRGIiAz2HYH3WCw4cH4X0uxJGr+IiITQLV4RB4abDY4D4Vehkz1OoxcRkT+mkz2z+oRokGyz/wrJ6F4au4iIbO6OwL6OGG6tb4WVI7to5CIictdZufZBccA4z6DZKh8Nyya31rhFRGTmDF+ybRw4TjV4Nt5N0Rs1aBERmXuGspdObyUzoDbP5RYAiojIwpKMPrx6s5xBtUnSMLxhZ41XREQWnnT9TnFg+UK0yQBba78P3exvNFgREVmCuwLFoXGgGTPY1tKPQnf8oRqpiIgsXZav2zEk2clx0Nlo4K3J6X9JcZTV/yIi0rsM5U+NA9AvDMJ9dWZIJvbQGEVEpPfpZNuHNP/vcTC61oDcU2tCd+y5GqCIiPQ/6Zrd4sD0meg2A/SSuir6QBie2EGjExGReqXaTpgP20Ww6K6v1mF0sntpZCIiUu8MjT8tpPk5Bu8Fu6U6uXH12P01KhERaVbS8SfGT7BfspNgHvv9k+wT8ZP/3hqRiIg0O+VgNrWt0BHEWzYWkuKYsKrYVaMREZF25bSJe8fJwLG2Fv6Z8tFJ+Z4Ge/1FRGQg0i32nb478JsBHfzzqZ9/9OEag4iIDGbK1xZPva3wa9Ovvm3zwL8uTn5OqdZKiIiIyJ+kOpI4f0FIs0/GX69owaC/Mf4sF8RfT4q/PiMMT26jkkVERGaTNH9I6GbvCEnxjTiQbmjIwJ9Fnw9pcUS1BkJEREQWISvGd4+D64tDkh1fnZvfzdf3/fZ+dX5//H7K72sof6BKEhER6VWS0b1Ct3h26GZvmJ4cnB59N/7zL+OvNy98v35+SfStkGbL46/Hxb/rdaE79vSwfPSeCl9ERKTOKffcd7IHhBXFPmFo7LGhM35gSIpDoxdVt+zT/IXVv5eL9cr/X35decdheMPOCk9EBiH/DytdnIA7HZ+8AAAAAElFTkSuQmCCwETvJgDZ2Xf52msREelxHCBE71zvZDwRkbolKb5tgKIHdwHe4WITEandJGBijxqftkYbpPk5HgOIiNQ1zg5g6dxQ7bkXEZE63xEougYsluAuwLtcXCIidU+1W6A6StXAxSIpvuExgIhIU9IZP9AhQiyOOKFcPnpPF5WISJOSZMcawFjwOoDOxP4uJhGRpqW8fZvmKw1kzH8dQPZ6F5KISFNTvlktKc43oDEPn3cBiYg0PZ3sAXEiMG5QYw6+H04d2c7FIyLShiT546vjXg1uzLwQ8OI4cbyXi0ZEpE1JiyNiJ3+7QY4tyMOK8d1dLCIibUw3e4OJAHfht6GTPdJFIiLS5iTFewx4/JkbQ7c4yMUhIjIISbOjDXz84SyApDjURSEiMlh3BJYZAAdeuVj0EBeDiMggppufaCAcWNdET3ERiIgM9h2B91gsOHB+F9LsSRq/iIiE0C1eEQeGmw2OA+FXoZM9TqMXEZE/ppM9s/qEaJBss/8KyeheGruIiGzujsC+jhhurW8=;" vertex="1" parent="1">
          <mxGeometry x="-406.5" y="-530" width="83" height="58.41" as="geometry" />
        </mxCell>
        <mxCell id="4sYesMDpXX-5hcElLDRR-83" value="" style="shape=image;verticalLabelPosition=bottom;labelBackgroundColor=default;verticalAlign=top;aspect=fixed;imageAspect=0;image=data:image/png,iVBORw0KGgoAAAANSUhEUgAAAgEAAAFpCAYAAAAFqfvLAAAeP0lEQVR42u3dCZglRYEn8ACUWxQPVBBEHE/ACxkP8EDxHB0FRXe88L4dcNSBcWUaB9hBVxfFY2yleS+zuhstzxkcF/FgZFWEZZRBQLC6KjOr2rZtEJH7aLo2MqtWRZqu+73MfL//9/2+5qjuroqIjIiXGREZgoiIiIgMYE6buHdYUewThvInhG5xQEjG/jIkxaF/4uDqv5fKr1s19uCQrt9JwYmIiNQ5p6/ZM6TZM0KSHRkdH/85iYP6D0I3vzQk+W+ijdHkPN0Q5dFPojOjz8eJwt/HXw8L6fh+oZNtrwJERESWOudM3i0OvE+Mg/Bb4wD/6WqgT/KrFzDAL4ZNURHS/JvVBCQpXhRWj91fZYmIiCwkKy6/RxxcXxidEJ0TB9vr+zzgz0ExHr/nr0TvCkNjj1CZIiIiM6Uzsf/07fbvR7c2Z9Cf0UT8uTpxcvCacPrI/VS0iIjI5ORWYSh/akiyT1Sfntsz6G9JuUbhe9E7Qyd7gEYgIiKDlWqFfv7xARr478rtoZudG8vhPdUOBhERkVZm5cgu04v6/nPAB/67cnM0XG1ZLO+QiIiIND5Te/M709vtDPazMxKS7NiQrL2PBiQiIs1K+Um2OoSn2ltvUJ+/60OaLQ+d0YdpVCIiUu+Ue/mT/I3RLwzgi+q2aFXoZI/TyEREpF4ZntwmpMVrp25jG7SXVDf/eugW+2p0NZn0LpvcWkGIyGCmvO2fFkfEwekyA3SvtxkW3eodB7I4WX7h3cPQxF+EoeI5IcneFsv3n6u1LN3s32J5/zj+t19On1B5dbWr4851cs30/xsLaT4af//507/3M9FxIc1eH7pjzw2d7JHV5EFEpNEpj/BN8h8akPu9oyD7hO2Fc0x5PkOSv2Bq8WX2pfjPVyzwHRNzdUv0s2goThaOmfpeJvZQMSJS/wzlD6wWq/W202TL4ifQ4ii3pu8iK8Z3r+5Yle126sVSm2paj+uqbaLlVto0f4iKE5H6pBxgkvzd0bUG3dr6URgae+zAt9VTR7aLA/7zpl40lWcNrs+x6Avx5/ir6mcSEelLVhaPrgYYg2wzdhJ0i1NCun6ngWqj5Wudu/nLqhc3NeplU7P2+2h1SIqXD1zdikifUr2+t/jH6dPsDLCNO3Aof0r7704Vh04fRnXNANXtjXHCc0ac8DzL6ZIislSfrPa28K8F7yZIs0+27lZyJ7vX9BHUl6rjcrJXHBPSNbvptERkcZLmb4qdy3U62Nb4WUjH92t8uyzXO5RbI5P8JnW6uR0H2ZeqXTsiIvNK+ZKfqWeqOtU23kJOsiMb2S67Y0+P3/+3aryqv2aKs6oyExGZfUdb7Du9X1on2mblNrmmPB6oDu4pD+pRb/P0wzipf6F1AyKy5STZSwZsYdWgHz38n7Xeh94ZPzB+n99VV4t2Z+D8OMk/SEcnIndMubq6m33EbdaBdFXoZM+sVXtcUewTv68va49LYlP1EqpkdC8dn4iEMDyxg+f/FpOFbv7qWrTFJDvegr+ebS88MQxv2FknKDKoKbcTJfl5OkSmPyF+sM+PosbUQ88VoZM9X2coMmjpjD5s6i1nOkLu4As9fbvd6nX3DUnxReXe9/UC3bCq2FXHKDIQdwDG94sX/q91fGxe9q892TmQ5ofHv+83yrs2fl3ViYi0ON3igHixX6nDYwb/Xp3DvxQpz6GoFqcp55oaslZApJ0TgINsAWQOt4i/XS3WW9y7UE+Mf/YaZVt7l4dk7DE6TZG2JMkfH/1O58YcJwI/WJRPheVBNUlx1NSxtsq1IW6q6kxEGp7qrPX8ap0a8/SdMHzJtvP/9L9+p+l9/8qykadL5iu9tliksXcARh9uESCLcLrg18Pw5DZzbn8r1z4o/v4LlWHjXRROX7OnDlWkSSkv2iRfqwNjkXxqTu1v6oU/G5Rbax4NjVsnINKUrLj8HtXsXefF4t4R+NDsHgFU2/+c/Nc+14W0eLEOVqTOWX7h3UM3O1uHxZKcLJhmr9/yI6hqAeDtyqq1NoYke5uOVqS26wDyFToqltDNoZM9+U7trtoBkJ2sfAZmMni0zlakbikvTB0UvThdLpnY4w4TgDT7pHIZOMfpdEXqkqH8qfZh00PnVccLV3cA8k8pj4E9Zvpkna9I3x8BxE9l3Xy9DokeLxQ8LXSLf1EWA3+WwAk6YZF+pVwImOQ/1hkBffR3OmORvtwFyE/SAQF9XyyYZEfqkEV6OgEoDp7asqMTAvru1tDJnq9jFunJY4DRe8aLLtfxADVyQ/QUHbTIUqd8sYcOB6jfgtH11XsjRGTJJgAv1NkANfbTMDyxg85aZLGzcmSXqZd56GiAOm8dzBIdtsji3wX4rA4GaMhE4O06bZHFytSpgF7OAjTFLRYKiixGlk1uHS+mC3UqQMOMVY8xa3t3df1OYdXYg0Nn/MD4vb4gpMVrp97DUhwzdQ5LdnLo5h+L/235H5V3ZMsXZlWOn/7aN0eHhe7Y00O32DesHrt/GJ7cxuAli5Mkf6POBGjmjoGi09f+s5PtPTXA5++Kv348+lp0UfT7JT87Ic1H46/fnTpmO/9Q6GZ/E5Kxx1SnvYrMKisuv8fUm9t0JkBjHbbkfWX5yXto7LHx0/rr48TjlDgAnxP/3qtre7jS1ERkKPpAnKg8Myxft6MBTzZzF8B72oHGuzIOdA9Y3EH/km3jYH9Q7COPjX/+v0fXNLyMbgtJcX41genmL6seKcjALwZ84PQpXDoRoOG7BfJvLvzOaLFPHCT/NnSzs+OfeWP738mQXxgnBCdWC8OtMRjItQCn6jyAFq0PeMWc+sDJya2mdkZVd0QvGfDy+22cEJwRJ1OHO4xpICYAo3vFSr9ZxwG0yLrq3SczrtrPHzW18j5fo8w2q7wLcmZIiyOqxyLSwpRbUTR0oH3vF/jY5vu8NbvFwf998Wt+ppzmpFz8+KnQmdjfwNmaHQHju08ftKGBA21zW7WK//+nWxww/aHnRmWzYBfG8nxrGN6ws4G00Y8Cin/WmIH23g3Izp0+/8QhaEuj3CnxP73RsZGPAdbvFCvvKo0YgEU4j2C4OhFRGpJy+4uGC8Cibjcszgqd7MkG2Tpn6h0BVsMCsFTOjJOBxxlw67kW4FANFIAeHET05WorptTqcKBhjROAnu3UKHdmrF53XwNwv1NWgsOBAOjHaYRJcZSjifu6IDB/v4YIQB9dVB3TLH15FHCRBghA39cLlI8IytfYS48yNPYIDQ+AGvlVSLKXGKB7cxfgOA0OgNrpFp2wcmQXA/XSTgIu0dgAqKk8JMXBBuulSCd7pAYGQO23E3bzD9lBsOi7ArL3alwANEPxg+pNt7Jok4CzNSoAGmRDdIgBfKGZemPgTRoUAI17PJAUxxjIF7QgsHiRhgRAo3cPdLLtDejzehRQnKIRAdBw/ycka+9jUJ/z44DsAo0HgBZYE5LRhxvYZ5vhiR1iod2i4QDQEleFbnGQAX5WjwLGnq7BANAyN0QvMMjPuCgwO1ZjAaCFbglD2UsN9FtcD5B/RUMBoKU2hm7xOoP9Xb8v4AqNBIBWTwSS/I0G/M0vCtyogQDQcptCmr/JwH+HlwaNH6hhADAwdwTS4giD/x/fF/AGjQKAAXJz6I491wRgaj3ASRoEAIO3fbA42CQgyVdpDAAMoN+GobFHDPok4EcaAgADaiyka3Yb5EnArzQCAAZXcX5Yvm7HAdweeMm2sQBu1wAAGGjd/IwwObnVgN0FmNhD5QNAdUfgmAGbBIw9RqUDQOX2wdo6mOSHqHQA+IPfhJVrHzQgk4Di5SocAO7gJ+HUke0G4O2BxVtUNgDcaaHgxwbgyODib1U2AGxufUDx7JZPAvL3q2gA2Ky1IVl7nza/POgfVDIA3KWvtnlNwD+qYADY4vkBr2npJCA/QeUCwBZdGU4fuV8Ltwhmx6tcAJhR2sbDgj6oYgFgNtsG23aaYJq/T8UCwCyk+Wi73jbonAAAmMPdgOzDbVoT8DaVCgCzdmNYNfbgtjwOeJUKBYA5WdWSSUD2PJUJAHOyKSTFwc2fBAzlT1CZADBn54XJya0aviZgdC8VCQDz2S1QvLjZk4DhiR1UJADMy09bcDcgv1ZFAsC8HNb0bYIXq0QAmJefh2WTWzd4ElB8QyUCwHzXBuSHN/nUwFNUIgDMdxKQXeDoYAAYXE9p6sLAF6g8AFiQLzd0EjCxh8oDgAXZGLrjD23q3YArVSAALGiB4P9q6iTguyoQABbkqnDqyHZNnAR8XOUBwAJ1i1c0cIdA/mqVBwALnQRkZzdvEtDJ9lZ5ALBgm5q5QDApxlUeACxUsayJ6wJWqzgAWLDLG7guIHuHigOAxdguOL5f09YFPFLFAcCi+KcmPhIYUXEAMIiPBJL8VBUHAIugM7F/syYBafY8FQcAi7JL4JhmTQLK4w6T/FoVBwAL9v0mPhIYVnEAsGC3hBWX36Npk4DDVBwALILu+F838ZHA71QeACz0vID8s018odBpKg8AFuyy5k0C0vxZKg4AFmxTOG3i3s2aBExObhW/8StUHgAsdF1A/ldNfCTwfpUHAAt2UvMmAauKXeM3foPKA4AF+Y/QyCRFV+UBwIJcH5ZNbt2sCUD5DXezj6g8AFigzujDGvRa4Yn94zf9YxUHAItyXsDh9R/8hyd2CEl2fCiPOlRpALBIimX1ngAMjT8tfqMjKgoAFv1OwFdq+ul/cptqhpLkG1UUACyJK+o3ATh9zZ5xAvADlQMAS+rW6kN3fW7/Zy+N39RvVQwA9ED5wbseRwIXx8Rv6HaVAgA9Uq696+/Wv2z7+I0MqQwA6PXiwOK1/ZsArBjfPaTZBSoCAPriuD4d/zv2mPiXr1UBANA3X+jD2wCLA+JffJXCB4C++lo/DgD6vYIHgD7rZuf28BFAfkh0nYIHgDpMAvJLezMBSPMXxr/wZoUOALWZBKzvxRqAg+JfdoMCB4BaubUXrwC+WkEDQA0t3R2A8YfGv2CdQgaAQZoEpGt2C2k+qoABYJAmAcsvvHucAJyjcAFg0CYBSf4ZBQsAgzYJSPM3KVQAGLRJQJI/xVkAADBok4Dlo/eMf1imQAFg0CYBSb5KYQLAoE0CkuLlChIABm0SsHLtg4ITAQFgwCYBk5NbxT/g+woRABpp00JeDPQ6BQgAjXX1/CYAq4pd42/+jQIEgMYame9iwM8pPABotJ/M4/XA4wfG33i7wgOABkvzb85jMWBxvsIDgMZL5/pugMMVGgC0QDf7yOwnAMOT28TfdJmCA4A2PA7I3u4NgQAwiDrZ82e5GDDbPv6GQqEBQEsMjT1ilgcDZe9QYADQGpvC8MQOM08Alk1uHb/4CgUGAK2xbnZ3AYaylyosAGjVzoCzZ/so4FwFBgBtmgTkH5vFjoDxJyosAGib7MhZTAKyREEBQNvuBBQHzHA40Iad4xdep7AAoFU2zrwzoJu9QUEBQOseBVw8m9cF/0BBAUDLpPlnZzohcO/qIAGFBQBt2xnw6hnuAuTHKSgAaKEVxT4zTQIuVFAA0Dq/2vIEYMX47h4FAEArFwV+aYa7ANnbFBIAtHJR4JtmOCAo/6aCAoAWOn3Nnls4IGhih/hFNygoABi08wGS/BCFBABt3BqYfWSGUwLzDykoAGilQ2Y6JfAshQQArXNlOGfybnc9AVg2uXX8omsUFAC07VFA8S8zHRX8OAUFAK3cGvisGdYDFG9VUADQtrsA+fowPLnNTIcEfUJhAUDr7gJ8duZXB3ezsxUWALRMJ3vyzJOAJF+rsACgVX4+8wRg5cguwUuDAKBljwKyo2eeBKTZkxQWALTKzWH1uvvO4lFA9kqFBQCt2hVwRphVytsFCgwAWqQ4eHaTgPKlAgoMANqyFuCCMOskearQAKAtk4DiiLlMAr6j0ACgFbItvyzozpOAixQaALRiLcBRYU5J8hGFBgCNtyEMb9h5rpOACQUHAI1fEHh0mHPKmYPCA4AmWxeGJ3aYzyTgWoUHAE2+C5C/K8wrSX6LAgSAxirCqSPbzXcScLsCBIDG3gV4VZh3ypcMKEQAaKLzwuTkVguZBFgTAADNsykkY38ZFpQkv1JBAkDjtgQmYcFJ8rUKEwAa5fchmdhj4ZOAbn6pwgSAQdgSeOdXCZ+rQAGgMX4Shie3WaRJQP51BQoAjXBbGBp7bFi0dPPTFCoANOIxwAlhUdPNT1SwAFB7Pw3Dl2y7uJOAtHiLggWAWrspdCb2D4ueoeI5ChcAau2dYUnSGX2YwgWA2q4D+N8LOxp4SynfPJTkGxU0ANTO2pCu2S0saZL8FwoaAGrl1pAUB4clT5IPK2wAqNVjgHeFniTJj1PgAFAbq0PPkmQvUeAAUAs/C8vX7di7ScDqsfsrdADou1+F09fsGXqeJB9T+ADQN9eFTva40Jek+UoVAAB9sTF0x/869C3laUQqAQD6sBMge3voa9L8USoCAHotOzbUItYFAEDvdItTQm2SZstVCgD0xGdCrZLkh6kUAFhyK8Kyya3rNQkY3rBz/MZuVDkAsGQ+tXRvBVz43YCvqiAAWIo1ANlHQq2TZv9NRQHAou8CODnUPh4JAMBi2hjKs3gak25+hkoDgAW7PiTFi0KjkhSHqjgAWJBfh3T8iaFxKbctpPmoCgSAeT3/vzh0sr1DY9PNP6QSAWCuii+GdP1OodFJ1+wWf5ibVCYAzHYBYHFMfc8AmPuZAaerVACY0YbokNCqpOP7xR9qk8oFgLv03bBifPfQynSzs1UwANzJLSHN39ee2/+b3y54sIoGgDv4RRjKnxAGIkn+PRUOAPltIc0+2fzV/3PJUP5UFQ/AgPuv0Bk/MAxkkuIsDQCAAXRjSLJjwzmTdwsDm5XFo6vbIBoDAIPjzJDmDwlS3Q34nAYBwAC4LKTZ8wz8dz5F8BqNA4CWWhcH/7eH4cltDPqbnQhkR2skALTMlaGbvz8sX7ejgX6mNwwm+Y81GABa4NqQZCeH5aP3NMDPem3A2GNiwd2q8QDQSN18fRz8jw+ril0N6vOaCMSZk4YEQLP8PI5fR4bhS7Y1kC8kp45sVx2coEEBUG/lneuvVqv9W33Of3/ODrhRAwOghkaqW/6nr9nTgL10bxl8r4YGQG1W+afZ8tDJnulTf+92C5yp4QHQJ78L3aITB/7nD/bRvv1KJ7tXrIQ1GiIAPZHmo9Xb/JLi0GqNmvR7t0D++OgmjROAJVBEq+In/rd6xl/b9QHF6zRUgNqukL+6Id9rueD8/4Zu/un4if9VBv1GHSucn+BiA6jb7fPif0zdtZ3Yo9oql+QfiL8m1WBbLqbrz/d1fbVvv5t/PToxfo9HhKGxRzi3v8kpV2N28zNcdAC1kc94Jn66fqfQLfYNSfGi+PXvDt3sw9Un8an+/DvRz6rn8OWfNXVHoXTL9J9/+5/8t7XV13XzS+OfcW78969FX6gmIUn+dyHJXhknH0+qXkgnrV0ouP105bv4APptKHupgUl6fJDQyC7Tt5lcgAB9U5xlQJL+ZPW6+1a3hFyIAP1wXUjzhxiMpI9bByf2CEn2SxcjQM+92SAkNbgjMHb/OBG42AUJ0CvZvxp8pD45beLeIc0ucGECLLkN1YcvkdpNBJL8hy5QgCWzKaTFiw04Us+UZzw7RwBgaZSH7ojUOuWBQuU7nl2wAIu5HfDbTtuT5iQt3hIb7s0uXIAFLwT8ZfVGV5FmTQSyJ1XHTLqIAebr2urIX5FGplzFmubnuJAB5uyWkBSHGkikBesEiqPCH19IAcCW3R66xSsMINKedMYPjA17xMUNMIM0O9qgIe3LisvvUb3Ccur1lC50gDv7J4OFtDtD+VNjQ7/MxQ5wh50AJxsgZEAeD2TbT58pcKMLH3AYUPH3BgYZvFRvI8zT6khMHQEwkMcBWwMgg57u2NPjxfBjHQIwWNsAsyMNACJ/uDNQHBovjAt1DkDLXR0dotMX+fOUZwuk+eHxAvmJjgJo5VHAyejDdfYiM2Vo/Gmhm/2bbYVAS3y/ev26iMxlMjDxF9X2mW6+XicCNHQB4CfD8gvvrkMXmW+GL9k2pMURIc2/6ShioCHWxT7rWTpwkcVMeUstzd8UL7DvRLfpaID6Kc4K6ZrddNgiS5l0/U4hLV4c0mx5vPAmdDxAn11TvTxt2eTWOmiRXqbaXTC+X+hm7whpvjJejIUOCejhp/9vhBXju+uMReqSofyBIc2eVx3NOTUxuCi6dok7g5ujK6KvxQnJh0M3f1nojD7MOQjQ4mf/XgEs0qCsXnff6jXH5YWbFO+ZHqw/Hf/5i9NrDaLi/OmB+09N/b80/0r8/5+Lv+fE+HvfG//5NdHB1XHI5R2JzSXJ36yzhFa5vnoXyvCGnXWqIrLlLF+34/RpYTpPaLbbq3eflHcaRURmnSQ/VQcKjbWxultYrj0SEZlzVhaP1pFSc78Lafb66AJlcYd1Pp+vDi8TEVng3YD/0KlSYyf9oa12i4Om1r+Un4AHsiyujD5qxb+ILF7Kkw8NNNTTjZs94KZc8NrN/mF618sgPO//TkiyV4ZTR7bTYYnI4qY8RKSbX2rAoXbKHTJbSrnzpdoFk38+2tCyn/8XIc1PCCuKfXRSIrK0qbYmGnSoldtCJ9t71m14eHKbkGbPiJ+YPxF/b97Qn7nc9vvBOPg/SqckIr29G5DkPzfwUCNDC2rTneyR8c94Z/TV6Lc1/RnXxAl4p1r4mIzupSMSkf7F2gDqdBdgMT8Nl5PcchtdNdjmn4rOq9Yb9PbRxvrq2X63OCX+bK+q1jWIiNTrbkB2sQGIGvhMT9p7+bhhqHhOdcegHJy7+dfjP/8wXge/jL9eN8fvufz6y6LvVQf3JNnJ8dd3xz/32eH0kfvpYESkAXcD8sMNQPT9rXd1GTSHJ3YIq4pdw8q1D6oW6JV3J7rFAdX+/PLfy9eId7J76ThEpD2Z+iRjMKJfPuAiFBHpV6ZOEbzVYEQfjMVP1tu7CEVE+ns34KMGJHp/LoDX34qI9D/lq0iTfMLARO8mANnZd/naaxER6XEcIETvXO9kPBGRuiUpvm2Aogd3Ad7hYhMRqd0kYGKPGp+2Rhuk+TkeA4iI1DXODmDp3FDtuRcRkTrfESi6BiyW4C7Au1xcIiJ1T7VboDpK1cDFIim+4TGAiEhT0hk/0CFCLI44oVw+ek8XlYhIk5JkxxrAWPA6gM7E/i4mEZGmpbx9m+YrDWTMfx1A9noXkohIU1O+WS0pzjegMQ+fdwGJiDQ9newBcSIwblBjDr4fTh3ZzsUjItKGJPnjq+NeDW7MvBDw4jhxvJeLRkSkTUmLI2Inf7tBji3Iw4rx3V0sIiJtTDd7g4kAd+G3oZM90kUiItLmJMV7DHj8mRtDtzjIxSEiMghJs6MNfPzhLICkONRFISIyWHcElhkAB165WPQQF4OIyCCmm59oIBxY10RPcRGIiAz2HYH3WCw4cH4X0uxJGr+IiITQLV4RB4abDY4D4Vehkz1OoxcRkT+mkz2z+oRokGyz/wrJ6F4au4iIbO6OwL6OGG6tb4WVI7to5CIictdZufZBccA4z6DZKh8Nyya31rhFRGTmDF+ybRw4TjV4Nt5N0Rs1aBERmXuGspdObyUzoDbP5RYAiojIwpKMPrx6s5xBtUnSMLxhZ41XREQWnnT9TnFg+UK0yQBba78P3exvNFgREVmCuwLFoXGgGTPY1tKPQnf8oRqpiIgsXZav2zEk2clx0Nlo4K3J6X9JcZTV/yIi0rsM5U+NA9AvDMJ9dWZIJvbQGEVEpPfpZNuHNP/vcTC61oDcU2tCd+y5GqCIiPQ/6Zrd4sD0meg2A/SSuir6QBie2EGjExGReqXaTpgP20Ww6K6v1mF0sntpZCIiUu8MjT8tpPk5Bu8Fu6U6uXH12P01KhERaVbS8SfGT7BfspNgHvv9k+wT8ZP/3hqRiIg0O+VgNrWt0BHEWzYWkuKYsKrYVaMREZF25bSJe8fJwLG2Fv6Z8tFJ+Z4Ge/1FRGQg0i32nb478JsBHfzzqZ9/9OEag4iIDGbK1xZPva3wa9Ovvm3zwL8uTn5OqdZKiIiIyJ+kOpI4f0FIs0/GX69owaC/Mf4sF8RfT4q/PiMMT26jkkVERGaTNH9I6GbvCEnxjTiQbmjIwJ9Fnw9pcUS1BkJEREQWISvGd4+D64tDkh1fnZvfzdf3/fZ+dX5//H7K72sof6BKEhER6VWS0b1Ct3h26GZvmJ4cnB59N/7zL+OvNy98v35+SfStkGbL46/Hxb/rdaE79vSwfPSeCl9ERKTOKffcd7IHhBXFPmFo7LGhM35gSIpDoxdVt+zT/IXVv5eL9cr/X35decdheMPOCk9EBiH/DytdnIA7HZ+8AAAAAElFTkSuQmCCwETvJgDZ2Xf52msREelxHCBE71zvZDwRkbolKb5tgKIHdwHe4WITEandJGBijxqftkYbpPk5HgOIiNQ1zg5g6dxQ7bkXEZE63xEougYsluAuwLtcXCIidU+1W6A6StXAxSIpvuExgIhIU9IZP9AhQiyOOKFcPnpPF5WISJOSZMcawFjwOoDOxP4uJhGRpqW8fZvmKw1kzH8dQPZ6F5KISFNTvlktKc43oDEPn3cBiYg0PZ3sAXEiMG5QYw6+H04d2c7FIyLShiT546vjXg1uzLwQ8OI4cbyXi0ZEpE1JiyNiJ3+7QY4tyMOK8d1dLCIibUw3e4OJAHfht6GTPdJFIiLS5iTFewx4/JkbQ7c4yMUhIjIISbOjDXz84SyApDjURSEiMlh3BJYZAAdeuVj0EBeDiMggppufaCAcWNdET3ERiIgM9h2B91gsOHB+F9LsSRq/iIiE0C1eEQeGmw2OA+FXoZM9TqMXEZE/ppM9s/qEaJBss/8KyeheGruIiGzujsC+jhhurW8=;" vertex="1" parent="1">
          <mxGeometry x="-406.5" y="-437.90999999999997" width="83" height="58.41" as="geometry" />
        </mxCell>
        <mxCell id="4sYesMDpXX-5hcElLDRR-84" value="" style="shape=image;verticalLabelPosition=bottom;labelBackgroundColor=default;verticalAlign=top;aspect=fixed;imageAspect=0;image=data:image/png,iVBORw0KGgoAAAANSUhEUgAAAgEAAAFpCAYAAAAFqfvLAAAeP0lEQVR42u3dCZglRYEn8ACUWxQPVBBEHE/ACxkP8EDxHB0FRXe88L4dcNSBcWUaB9hBVxfFY2yleS+zuhstzxkcF/FgZFWEZZRBQLC6KjOr2rZtEJH7aLo2MqtWRZqu+73MfL//9/2+5qjuroqIjIiXGREZgoiIiIgMYE6buHdYUewThvInhG5xQEjG/jIkxaF/4uDqv5fKr1s19uCQrt9JwYmIiNQ5p6/ZM6TZM0KSHRkdH/85iYP6D0I3vzQk+W+ijdHkPN0Q5dFPojOjz8eJwt/HXw8L6fh+oZNtrwJERESWOudM3i0OvE+Mg/Bb4wD/6WqgT/KrFzDAL4ZNURHS/JvVBCQpXhRWj91fZYmIiCwkKy6/RxxcXxidEJ0TB9vr+zzgz0ExHr/nr0TvCkNjj1CZIiIiM6Uzsf/07fbvR7c2Z9Cf0UT8uTpxcvCacPrI/VS0iIjI5ORWYSh/akiyT1Sfntsz6G9JuUbhe9E7Qyd7gEYgIiKDlWqFfv7xARr478rtoZudG8vhPdUOBhERkVZm5cgu04v6/nPAB/67cnM0XG1ZLO+QiIiIND5Te/M709vtDPazMxKS7NiQrL2PBiQiIs1K+Um2OoSn2ltvUJ+/60OaLQ+d0YdpVCIiUu+Ue/mT/I3RLwzgi+q2aFXoZI/TyEREpF4ZntwmpMVrp25jG7SXVDf/eugW+2p0NZn0LpvcWkGIyGCmvO2fFkfEwekyA3SvtxkW3eodB7I4WX7h3cPQxF+EoeI5IcneFsv3n6u1LN3s32J5/zj+t19On1B5dbWr4851cs30/xsLaT4af//507/3M9FxIc1eH7pjzw2d7JHV5EFEpNEpj/BN8h8akPu9oyD7hO2Fc0x5PkOSv2Bq8WX2pfjPVyzwHRNzdUv0s2goThaOmfpeJvZQMSJS/wzlD6wWq/W202TL4ifQ4ii3pu8iK8Z3r+5Yle126sVSm2paj+uqbaLlVto0f4iKE5H6pBxgkvzd0bUG3dr6URgae+zAt9VTR7aLA/7zpl40lWcNrs+x6Avx5/ir6mcSEelLVhaPrgYYg2wzdhJ0i1NCun6ngWqj5Wudu/nLqhc3NeplU7P2+2h1SIqXD1zdikifUr2+t/jH6dPsDLCNO3Aof0r7704Vh04fRnXNANXtjXHCc0ac8DzL6ZIislSfrPa28K8F7yZIs0+27lZyJ7vX9BHUl6rjcrJXHBPSNbvptERkcZLmb4qdy3U62Nb4WUjH92t8uyzXO5RbI5P8JnW6uR0H2ZeqXTsiIvNK+ZKfqWeqOtU23kJOsiMb2S67Y0+P3/+3aryqv2aKs6oyExGZfUdb7Du9X1on2mblNrmmPB6oDu4pD+pRb/P0wzipf6F1AyKy5STZSwZsYdWgHz38n7Xeh94ZPzB+n99VV4t2Z+D8OMk/SEcnIndMubq6m33EbdaBdFXoZM+sVXtcUewTv68va49LYlP1EqpkdC8dn4iEMDyxg+f/FpOFbv7qWrTFJDvegr+ebS88MQxv2FknKDKoKbcTJfl5OkSmPyF+sM+PosbUQ88VoZM9X2coMmjpjD5s6i1nOkLu4As9fbvd6nX3DUnxReXe9/UC3bCq2FXHKDIQdwDG94sX/q91fGxe9q892TmQ5ofHv+83yrs2fl3ViYi0ON3igHixX6nDYwb/Xp3DvxQpz6GoFqcp55oaslZApJ0TgINsAWQOt4i/XS3WW9y7UE+Mf/YaZVt7l4dk7DE6TZG2JMkfH/1O58YcJwI/WJRPheVBNUlx1NSxtsq1IW6q6kxEGp7qrPX8ap0a8/SdMHzJtvP/9L9+p+l9/8qykadL5iu9tliksXcARh9uESCLcLrg18Pw5DZzbn8r1z4o/v4LlWHjXRROX7OnDlWkSSkv2iRfqwNjkXxqTu1v6oU/G5Rbax4NjVsnINKUrLj8HtXsXefF4t4R+NDsHgFU2/+c/Nc+14W0eLEOVqTOWX7h3UM3O1uHxZKcLJhmr9/yI6hqAeDtyqq1NoYke5uOVqS26wDyFToqltDNoZM9+U7trtoBkJ2sfAZmMni0zlakbikvTB0UvThdLpnY4w4TgDT7pHIZOMfpdEXqkqH8qfZh00PnVccLV3cA8k8pj4E9Zvpkna9I3x8BxE9l3Xy9DokeLxQ8LXSLf1EWA3+WwAk6YZF+pVwImOQ/1hkBffR3OmORvtwFyE/SAQF9XyyYZEfqkEV6OgEoDp7asqMTAvru1tDJnq9jFunJY4DRe8aLLtfxADVyQ/QUHbTIUqd8sYcOB6jfgtH11XsjRGTJJgAv1NkANfbTMDyxg85aZLGzcmSXqZd56GiAOm8dzBIdtsji3wX4rA4GaMhE4O06bZHFytSpgF7OAjTFLRYKiixGlk1uHS+mC3UqQMOMVY8xa3t3df1OYdXYg0Nn/MD4vb4gpMVrp97DUhwzdQ5LdnLo5h+L/235H5V3ZMsXZlWOn/7aN0eHhe7Y00O32DesHrt/GJ7cxuAli5Mkf6POBGjmjoGi09f+s5PtPTXA5++Kv348+lp0UfT7JT87Ic1H46/fnTpmO/9Q6GZ/E5Kxx1SnvYrMKisuv8fUm9t0JkBjHbbkfWX5yXto7LHx0/rr48TjlDgAnxP/3qtre7jS1ERkKPpAnKg8Myxft6MBTzZzF8B72oHGuzIOdA9Y3EH/km3jYH9Q7COPjX/+v0fXNLyMbgtJcX41genmL6seKcjALwZ84PQpXDoRoOG7BfJvLvzOaLFPHCT/NnSzs+OfeWP738mQXxgnBCdWC8OtMRjItQCn6jyAFq0PeMWc+sDJya2mdkZVd0QvGfDy+22cEJwRJ1OHO4xpICYAo3vFSr9ZxwG0yLrq3SczrtrPHzW18j5fo8w2q7wLcmZIiyOqxyLSwpRbUTR0oH3vF/jY5vu8NbvFwf998Wt+ppzmpFz8+KnQmdjfwNmaHQHju08ftKGBA21zW7WK//+nWxww/aHnRmWzYBfG8nxrGN6ws4G00Y8Cin/WmIH23g3Izp0+/8QhaEuj3CnxP73RsZGPAdbvFCvvKo0YgEU4j2C4OhFRGpJy+4uGC8Cibjcszgqd7MkG2Tpn6h0BVsMCsFTOjJOBxxlw67kW4FANFIAeHET05WorptTqcKBhjROAnu3UKHdmrF53XwNwv1NWgsOBAOjHaYRJcZSjifu6IDB/v4YIQB9dVB3TLH15FHCRBghA39cLlI8IytfYS48yNPYIDQ+AGvlVSLKXGKB7cxfgOA0OgNrpFp2wcmQXA/XSTgIu0dgAqKk8JMXBBuulSCd7pAYGQO23E3bzD9lBsOi7ArL3alwANEPxg+pNt7Jok4CzNSoAGmRDdIgBfKGZemPgTRoUAI17PJAUxxjIF7QgsHiRhgRAo3cPdLLtDejzehRQnKIRAdBw/ycka+9jUJ/z44DsAo0HgBZYE5LRhxvYZ5vhiR1iod2i4QDQEleFbnGQAX5WjwLGnq7BANAyN0QvMMjPuCgwO1ZjAaCFbglD2UsN9FtcD5B/RUMBoKU2hm7xOoP9Xb8v4AqNBIBWTwSS/I0G/M0vCtyogQDQcptCmr/JwH+HlwaNH6hhADAwdwTS4giD/x/fF/AGjQKAAXJz6I491wRgaj3ASRoEAIO3fbA42CQgyVdpDAAMoN+GobFHDPok4EcaAgADaiyka3Yb5EnArzQCAAZXcX5Yvm7HAdweeMm2sQBu1wAAGGjd/IwwObnVgN0FmNhD5QNAdUfgmAGbBIw9RqUDQOX2wdo6mOSHqHQA+IPfhJVrHzQgk4Di5SocAO7gJ+HUke0G4O2BxVtUNgDcaaHgxwbgyODib1U2AGxufUDx7JZPAvL3q2gA2Ky1IVl7nza/POgfVDIA3KWvtnlNwD+qYADY4vkBr2npJCA/QeUCwBZdGU4fuV8Ltwhmx6tcAJhR2sbDgj6oYgFgNtsG23aaYJq/T8UCwCyk+Wi73jbonAAAmMPdgOzDbVoT8DaVCgCzdmNYNfbgtjwOeJUKBYA5WdWSSUD2PJUJAHOyKSTFwc2fBAzlT1CZADBn54XJya0aviZgdC8VCQDz2S1QvLjZk4DhiR1UJADMy09bcDcgv1ZFAsC8HNb0bYIXq0QAmJefh2WTWzd4ElB8QyUCwHzXBuSHN/nUwFNUIgDMdxKQXeDoYAAYXE9p6sLAF6g8AFiQLzd0EjCxh8oDgAXZGLrjD23q3YArVSAALGiB4P9q6iTguyoQABbkqnDqyHZNnAR8XOUBwAJ1i1c0cIdA/mqVBwALnQRkZzdvEtDJ9lZ5ALBgm5q5QDApxlUeACxUsayJ6wJWqzgAWLDLG7guIHuHigOAxdguOL5f09YFPFLFAcCi+KcmPhIYUXEAMIiPBJL8VBUHAIugM7F/syYBafY8FQcAi7JL4JhmTQLK4w6T/FoVBwAL9v0mPhIYVnEAsGC3hBWX36Npk4DDVBwALILu+F838ZHA71QeACz0vID8s018odBpKg8AFuyy5k0C0vxZKg4AFmxTOG3i3s2aBExObhW/8StUHgAsdF1A/ldNfCTwfpUHAAt2UvMmAauKXeM3foPKA4AF+Y/QyCRFV+UBwIJcH5ZNbt2sCUD5DXezj6g8AFigzujDGvRa4Yn94zf9YxUHAItyXsDh9R/8hyd2CEl2fCiPOlRpALBIimX1ngAMjT8tfqMjKgoAFv1OwFdq+ul/cptqhpLkG1UUACyJK+o3ATh9zZ5xAvADlQMAS+rW6kN3fW7/Zy+N39RvVQwA9ED5wbseRwIXx8Rv6HaVAgA9Uq696+/Wv2z7+I0MqQwA6PXiwOK1/ZsArBjfPaTZBSoCAPriuD4d/zv2mPiXr1UBANA3X+jD2wCLA+JffJXCB4C++lo/DgD6vYIHgD7rZuf28BFAfkh0nYIHgDpMAvJLezMBSPMXxr/wZoUOALWZBKzvxRqAg+JfdoMCB4BaubUXrwC+WkEDQA0t3R2A8YfGv2CdQgaAQZoEpGt2C2k+qoABYJAmAcsvvHucAJyjcAFg0CYBSf4ZBQsAgzYJSPM3KVQAGLRJQJI/xVkAADBok4Dlo/eMf1imQAFg0CYBSb5KYQLAoE0CkuLlChIABm0SsHLtg4ITAQFgwCYBk5NbxT/g+woRABpp00JeDPQ6BQgAjXX1/CYAq4pd42/+jQIEgMYame9iwM8pPABotJ/M4/XA4wfG33i7wgOABkvzb85jMWBxvsIDgMZL5/pugMMVGgC0QDf7yOwnAMOT28TfdJmCA4A2PA7I3u4NgQAwiDrZ82e5GDDbPv6GQqEBQEsMjT1ilgcDZe9QYADQGpvC8MQOM08Alk1uHb/4CgUGAK2xbnZ3AYaylyosAGjVzoCzZ/so4FwFBgBtmgTkH5vFjoDxJyosAGib7MhZTAKyREEBQNvuBBQHzHA40Iad4xdep7AAoFU2zrwzoJu9QUEBQOseBVw8m9cF/0BBAUDLpPlnZzohcO/qIAGFBQBt2xnw6hnuAuTHKSgAaKEVxT4zTQIuVFAA0Dq/2vIEYMX47h4FAEArFwV+aYa7ANnbFBIAtHJR4JtmOCAo/6aCAoAWOn3Nnls4IGhih/hFNygoABi08wGS/BCFBABt3BqYfWSGUwLzDykoAGilQ2Y6JfAshQQArXNlOGfybnc9AVg2uXX8omsUFAC07VFA8S8zHRX8OAUFAK3cGvisGdYDFG9VUADQtrsA+fowPLnNTIcEfUJhAUDr7gJ8duZXB3ezsxUWALRMJ3vyzJOAJF+rsACgVX4+8wRg5cguwUuDAKBljwKyo2eeBKTZkxQWALTKzWH1uvvO4lFA9kqFBQCt2hVwRphVytsFCgwAWqQ4eHaTgPKlAgoMANqyFuCCMOskearQAKAtk4DiiLlMAr6j0ACgFbItvyzozpOAixQaALRiLcBRYU5J8hGFBgCNtyEMb9h5rpOACQUHAI1fEHh0mHPKmYPCA4AmWxeGJ3aYzyTgWoUHAE2+C5C/K8wrSX6LAgSAxirCqSPbzXcScLsCBIDG3gV4VZh3ypcMKEQAaKLzwuTkVguZBFgTAADNsykkY38ZFpQkv1JBAkDjtgQmYcFJ8rUKEwAa5fchmdhj4ZOAbn6pwgSAQdgSeOdXCZ+rQAGgMX4Shie3WaRJQP51BQoAjXBbGBp7bFi0dPPTFCoANOIxwAlhUdPNT1SwAFB7Pw3Dl2y7uJOAtHiLggWAWrspdCb2D4ueoeI5ChcAau2dYUnSGX2YwgWA2q4D+N8LOxp4SynfPJTkGxU0ANTO2pCu2S0saZL8FwoaAGrl1pAUB4clT5IPK2wAqNVjgHeFniTJj1PgAFAbq0PPkmQvUeAAUAs/C8vX7di7ScDqsfsrdADou1+F09fsGXqeJB9T+ADQN9eFTva40Jek+UoVAAB9sTF0x/869C3laUQqAQD6sBMge3voa9L8USoCAHotOzbUItYFAEDvdItTQm2SZstVCgD0xGdCrZLkh6kUAFhyK8Kyya3rNQkY3rBz/MZuVDkAsGQ+tXRvBVz43YCvqiAAWIo1ANlHQq2TZv9NRQHAou8CODnUPh4JAMBi2hjKs3gak25+hkoDgAW7PiTFi0KjkhSHqjgAWJBfh3T8iaFxKbctpPmoCgSAeT3/vzh0sr1DY9PNP6QSAWCuii+GdP1OodFJ1+wWf5ibVCYAzHYBYHFMfc8AmPuZAaerVACY0YbokNCqpOP7xR9qk8oFgLv03bBifPfQynSzs1UwANzJLSHN39ee2/+b3y54sIoGgDv4RRjKnxAGIkn+PRUOAPltIc0+2fzV/3PJUP5UFQ/AgPuv0Bk/MAxkkuIsDQCAAXRjSLJjwzmTdwsDm5XFo6vbIBoDAIPjzJDmDwlS3Q34nAYBwAC4LKTZ8wz8dz5F8BqNA4CWWhcH/7eH4cltDPqbnQhkR2skALTMlaGbvz8sX7ejgX6mNwwm+Y81GABa4NqQZCeH5aP3NMDPem3A2GNiwd2q8QDQSN18fRz8jw+ril0N6vOaCMSZk4YEQLP8PI5fR4bhS7Y1kC8kp45sVx2coEEBUG/lneuvVqv9W33Of3/ODrhRAwOghkaqW/6nr9nTgL10bxl8r4YGQG1W+afZ8tDJnulTf+92C5yp4QHQJ78L3aITB/7nD/bRvv1KJ7tXrIQ1GiIAPZHmo9Xb/JLi0GqNmvR7t0D++OgmjROAJVBEq+In/rd6xl/b9QHF6zRUgNqukL+6Id9rueD8/4Zu/un4if9VBv1GHSucn+BiA6jb7fPif0zdtZ3Yo9oql+QfiL8m1WBbLqbrz/d1fbVvv5t/PToxfo9HhKGxRzi3v8kpV2N28zNcdAC1kc94Jn66fqfQLfYNSfGi+PXvDt3sw9Un8an+/DvRz6rn8OWfNXVHoXTL9J9/+5/8t7XV13XzS+OfcW78969FX6gmIUn+dyHJXhknH0+qXkgnrV0ouP105bv4APptKHupgUl6fJDQyC7Tt5lcgAB9U5xlQJL+ZPW6+1a3hFyIAP1wXUjzhxiMpI9bByf2CEn2SxcjQM+92SAkNbgjMHb/OBG42AUJ0CvZvxp8pD45beLeIc0ucGECLLkN1YcvkdpNBJL8hy5QgCWzKaTFiw04Us+UZzw7RwBgaZSH7ojUOuWBQuU7nl2wAIu5HfDbTtuT5iQt3hIb7s0uXIAFLwT8ZfVGV5FmTQSyJ1XHTLqIAebr2urIX5FGplzFmubnuJAB5uyWkBSHGkikBesEiqPCH19IAcCW3R66xSsMINKedMYPjA17xMUNMIM0O9qgIe3LisvvUb3Ccur1lC50gDv7J4OFtDtD+VNjQ7/MxQ5wh50AJxsgZEAeD2TbT58pcKMLH3AYUPH3BgYZvFRvI8zT6khMHQEwkMcBWwMgg57u2NPjxfBjHQIwWNsAsyMNACJ/uDNQHBovjAt1DkDLXR0dotMX+fOUZwuk+eHxAvmJjgJo5VHAyejDdfYiM2Vo/Gmhm/2bbYVAS3y/ev26iMxlMjDxF9X2mW6+XicCNHQB4CfD8gvvrkMXmW+GL9k2pMURIc2/6ShioCHWxT7rWTpwkcVMeUstzd8UL7DvRLfpaID6Kc4K6ZrddNgiS5l0/U4hLV4c0mx5vPAmdDxAn11TvTxt2eTWOmiRXqbaXTC+X+hm7whpvjJejIUOCejhp/9vhBXju+uMReqSofyBIc2eVx3NOTUxuCi6dok7g5ujK6KvxQnJh0M3f1nojD7MOQjQ4mf/XgEs0qCsXnff6jXH5YWbFO+ZHqw/Hf/5i9NrDaLi/OmB+09N/b80/0r8/5+Lv+fE+HvfG//5NdHB1XHI5R2JzSXJ36yzhFa5vnoXyvCGnXWqIrLlLF+34/RpYTpPaLbbq3eflHcaRURmnSQ/VQcKjbWxultYrj0SEZlzVhaP1pFSc78Lafb66AJlcYd1Pp+vDi8TEVng3YD/0KlSYyf9oa12i4Om1r+Un4AHsiyujD5qxb+ILF7Kkw8NNNTTjZs94KZc8NrN/mF618sgPO//TkiyV4ZTR7bTYYnI4qY8RKSbX2rAoXbKHTJbSrnzpdoFk38+2tCyn/8XIc1PCCuKfXRSIrK0qbYmGnSoldtCJ9t71m14eHKbkGbPiJ+YPxF/b97Qn7nc9vvBOPg/SqckIr29G5DkPzfwUCNDC2rTneyR8c94Z/TV6Lc1/RnXxAl4p1r4mIzupSMSkf7F2gDqdBdgMT8Nl5PcchtdNdjmn4rOq9Yb9PbRxvrq2X63OCX+bK+q1jWIiNTrbkB2sQGIGvhMT9p7+bhhqHhOdcegHJy7+dfjP/8wXge/jL9eN8fvufz6y6LvVQf3JNnJ8dd3xz/32eH0kfvpYESkAXcD8sMNQPT9rXd1GTSHJ3YIq4pdw8q1D6oW6JV3J7rFAdX+/PLfy9eId7J76ThEpD2Z+iRjMKJfPuAiFBHpV6ZOEbzVYEQfjMVP1tu7CEVE+ns34KMGJHp/LoDX34qI9D/lq0iTfMLARO8mANnZd/naaxER6XEcIETvXO9kPBGRuiUpvm2Aogd3Ad7hYhMRqd0kYGKPGp+2Rhuk+TkeA4iI1DXODmDp3FDtuRcRkTrfESi6BiyW4C7Au1xcIiJ1T7VboDpK1cDFIim+4TGAiEhT0hk/0CFCLI44oVw+ek8XlYhIk5JkxxrAWPA6gM7E/i4mEZGmpbx9m+YrDWTMfx1A9noXkohIU1O+WS0pzjegMQ+fdwGJiDQ9newBcSIwblBjDr4fTh3ZzsUjItKGJPnjq+NeDW7MvBDw4jhxvJeLRkSkTUmLI2Inf7tBji3Iw4rx3V0sIiJtTDd7g4kAd+G3oZM90kUiItLmJMV7DHj8mRtDtzjIxSEiMghJs6MNfPzhLICkONRFISIyWHcElhkAB165WPQQF4OIyCCmm59oIBxY10RPcRGIiAz2HYH3WCw4cH4X0uxJGr+IiITQLV4RB4abDY4D4Vehkz1OoxcRkT+mkz2z+oRokGyz/wrJ6F4au4iIbO6OwL6OGG6tb4WVI7to5CIictdZufZBccA4z6DZKh8Nyya31rhFRGTmDF+ybRw4TjV4Nt5N0Rs1aBERmXuGspdObyUzoDbP5RYAiojIwpKMPrx6s5xBtUnSMLxhZ41XREQWnnT9TnFg+UK0yQBba78P3exvNFgREVmCuwLFoXGgGTPY1tKPQnf8oRqpiIgsXZav2zEk2clx0Nlo4K3J6X9JcZTV/yIi0rsM5U+NA9AvDMJ9dWZIJvbQGEVEpPfpZNuHNP/vcTC61oDcU2tCd+y5GqCIiPQ/6Zrd4sD0meg2A/SSuir6QBie2EGjExGReqXaTpgP20Ww6K6v1mF0sntpZCIiUu8MjT8tpPk5Bu8Fu6U6uXH12P01KhERaVbS8SfGT7BfspNgHvv9k+wT8ZP/3hqRiIg0O+VgNrWt0BHEWzYWkuKYsKrYVaMREZF25bSJe8fJwLG2Fv6Z8tFJ+Z4Ge/1FRGQg0i32nb478JsBHfzzqZ9/9OEag4iIDGbK1xZPva3wa9Ovvm3zwL8uTn5OqdZKiIiIyJ+kOpI4f0FIs0/GX69owaC/Mf4sF8RfT4q/PiMMT26jkkVERGaTNH9I6GbvCEnxjTiQbmjIwJ9Fnw9pcUS1BkJEREQWISvGd4+D64tDkh1fnZvfzdf3/fZ+dX5//H7K72sof6BKEhER6VWS0b1Ct3h26GZvmJ4cnB59N/7zL+OvNy98v35+SfStkGbL46/Hxb/rdaE79vSwfPSeCl9ERKTOKffcd7IHhBXFPmFo7LGhM35gSIpDoxdVt+zT/IXVv5eL9cr/X35decdheMPOCk9EBiH/DytdnIA7HZ+8AAAAAElFTkSuQmCCwETvJgDZ2Xf52msREelxHCBE71zvZDwRkbolKb5tgKIHdwHe4WITEandJGBijxqftkYbpPk5HgOIiNQ1zg5g6dxQ7bkXEZE63xEougYsluAuwLtcXCIidU+1W6A6StXAxSIpvuExgIhIU9IZP9AhQiyOOKFcPnpPF5WISJOSZMcawFjwOoDOxP4uJhGRpqW8fZvmKw1kzH8dQPZ6F5KISFNTvlktKc43oDEPn3cBiYg0PZ3sAXEiMG5QYw6+H04d2c7FIyLShiT546vjXg1uzLwQ8OI4cbyXi0ZEpE1JiyNiJ3+7QY4tyMOK8d1dLCIibUw3e4OJAHfht6GTPdJFIiLS5iTFewx4/JkbQ7c4yMUhIjIISbOjDXz84SyApDjURSEiMlh3BJYZAAdeuVj0EBeDiMggppufaCAcWNdET3ERiIgM9h2B91gsOHB+F9LsSRq/iIiE0C1eEQeGmw2OA+FXoZM9TqMXEZE/ppM9s/qEaJBss/8KyeheGruIiGzujsC+jhhurW8=;" vertex="1" parent="1">
          <mxGeometry x="-406.5" y="-358.40999999999997" width="83" height="58.41" as="geometry" />
        </mxCell>
        <mxCell id="4sYesMDpXX-5hcElLDRR-85" value="" style="shape=image;verticalLabelPosition=bottom;labelBackgroundColor=default;verticalAlign=top;aspect=fixed;imageAspect=0;image=data:image/png,iVBORw0KGgoAAAANSUhEUgAAAgEAAAFpCAYAAAAFqfvLAAAeP0lEQVR42u3dCZglRYEn8ACUWxQPVBBEHE/ACxkP8EDxHB0FRXe88L4dcNSBcWUaB9hBVxfFY2yleS+zuhstzxkcF/FgZFWEZZRBQLC6KjOr2rZtEJH7aLo2MqtWRZqu+73MfL//9/2+5qjuroqIjIiXGREZgoiIiIgMYE6buHdYUewThvInhG5xQEjG/jIkxaF/4uDqv5fKr1s19uCQrt9JwYmIiNQ5p6/ZM6TZM0KSHRkdH/85iYP6D0I3vzQk+W+ijdHkPN0Q5dFPojOjz8eJwt/HXw8L6fh+oZNtrwJERESWOudM3i0OvE+Mg/Bb4wD/6WqgT/KrFzDAL4ZNURHS/JvVBCQpXhRWj91fZYmIiCwkKy6/RxxcXxidEJ0TB9vr+zzgz0ExHr/nr0TvCkNjj1CZIiIiM6Uzsf/07fbvR7c2Z9Cf0UT8uTpxcvCacPrI/VS0iIjI5ORWYSh/akiyT1Sfntsz6G9JuUbhe9E7Qyd7gEYgIiKDlWqFfv7xARr478rtoZudG8vhPdUOBhERkVZm5cgu04v6/nPAB/67cnM0XG1ZLO+QiIiIND5Te/M709vtDPazMxKS7NiQrL2PBiQiIs1K+Um2OoSn2ltvUJ+/60OaLQ+d0YdpVCIiUu+Ue/mT/I3RLwzgi+q2aFXoZI/TyEREpF4ZntwmpMVrp25jG7SXVDf/eugW+2p0NZn0LpvcWkGIyGCmvO2fFkfEwekyA3SvtxkW3eodB7I4WX7h3cPQxF+EoeI5IcneFsv3n6u1LN3s32J5/zj+t19On1B5dbWr4851cs30/xsLaT4af//507/3M9FxIc1eH7pjzw2d7JHV5EFEpNEpj/BN8h8akPu9oyD7hO2Fc0x5PkOSv2Bq8WX2pfjPVyzwHRNzdUv0s2goThaOmfpeJvZQMSJS/wzlD6wWq/W202TL4ifQ4ii3pu8iK8Z3r+5Yle126sVSm2paj+uqbaLlVto0f4iKE5H6pBxgkvzd0bUG3dr6URgae+zAt9VTR7aLA/7zpl40lWcNrs+x6Avx5/ir6mcSEelLVhaPrgYYg2wzdhJ0i1NCun6ngWqj5Wudu/nLqhc3NeplU7P2+2h1SIqXD1zdikifUr2+t/jH6dPsDLCNO3Aof0r7704Vh04fRnXNANXtjXHCc0ac8DzL6ZIislSfrPa28K8F7yZIs0+27lZyJ7vX9BHUl6rjcrJXHBPSNbvptERkcZLmb4qdy3U62Nb4WUjH92t8uyzXO5RbI5P8JnW6uR0H2ZeqXTsiIvNK+ZKfqWeqOtU23kJOsiMb2S67Y0+P3/+3aryqv2aKs6oyExGZfUdb7Du9X1on2mblNrmmPB6oDu4pD+pRb/P0wzipf6F1AyKy5STZSwZsYdWgHz38n7Xeh94ZPzB+n99VV4t2Z+D8OMk/SEcnIndMubq6m33EbdaBdFXoZM+sVXtcUewTv68va49LYlP1EqpkdC8dn4iEMDyxg+f/FpOFbv7qWrTFJDvegr+ebS88MQxv2FknKDKoKbcTJfl5OkSmPyF+sM+PosbUQ88VoZM9X2coMmjpjD5s6i1nOkLu4As9fbvd6nX3DUnxReXe9/UC3bCq2FXHKDIQdwDG94sX/q91fGxe9q892TmQ5ofHv+83yrs2fl3ViYi0ON3igHixX6nDYwb/Xp3DvxQpz6GoFqcp55oaslZApJ0TgINsAWQOt4i/XS3WW9y7UE+Mf/YaZVt7l4dk7DE6TZG2JMkfH/1O58YcJwI/WJRPheVBNUlx1NSxtsq1IW6q6kxEGp7qrPX8ap0a8/SdMHzJtvP/9L9+p+l9/8qykadL5iu9tliksXcARh9uESCLcLrg18Pw5DZzbn8r1z4o/v4LlWHjXRROX7OnDlWkSSkv2iRfqwNjkXxqTu1v6oU/G5Rbax4NjVsnINKUrLj8HtXsXefF4t4R+NDsHgFU2/+c/Nc+14W0eLEOVqTOWX7h3UM3O1uHxZKcLJhmr9/yI6hqAeDtyqq1NoYke5uOVqS26wDyFToqltDNoZM9+U7trtoBkJ2sfAZmMni0zlakbikvTB0UvThdLpnY4w4TgDT7pHIZOMfpdEXqkqH8qfZh00PnVccLV3cA8k8pj4E9Zvpkna9I3x8BxE9l3Xy9DokeLxQ8LXSLf1EWA3+WwAk6YZF+pVwImOQ/1hkBffR3OmORvtwFyE/SAQF9XyyYZEfqkEV6OgEoDp7asqMTAvru1tDJnq9jFunJY4DRe8aLLtfxADVyQ/QUHbTIUqd8sYcOB6jfgtH11XsjRGTJJgAv1NkANfbTMDyxg85aZLGzcmSXqZd56GiAOm8dzBIdtsji3wX4rA4GaMhE4O06bZHFytSpgF7OAjTFLRYKiixGlk1uHS+mC3UqQMOMVY8xa3t3df1OYdXYg0Nn/MD4vb4gpMVrp97DUhwzdQ5LdnLo5h+L/235H5V3ZMsXZlWOn/7aN0eHhe7Y00O32DesHrt/GJ7cxuAli5Mkf6POBGjmjoGi09f+s5PtPTXA5++Kv348+lp0UfT7JT87Ic1H46/fnTpmO/9Q6GZ/E5Kxx1SnvYrMKisuv8fUm9t0JkBjHbbkfWX5yXto7LHx0/rr48TjlDgAnxP/3qtre7jS1ERkKPpAnKg8Myxft6MBTzZzF8B72oHGuzIOdA9Y3EH/km3jYH9Q7COPjX/+v0fXNLyMbgtJcX41genmL6seKcjALwZ84PQpXDoRoOG7BfJvLvzOaLFPHCT/NnSzs+OfeWP738mQXxgnBCdWC8OtMRjItQCn6jyAFq0PeMWc+sDJya2mdkZVd0QvGfDy+22cEJwRJ1OHO4xpICYAo3vFSr9ZxwG0yLrq3SczrtrPHzW18j5fo8w2q7wLcmZIiyOqxyLSwpRbUTR0oH3vF/jY5vu8NbvFwf998Wt+ppzmpFz8+KnQmdjfwNmaHQHju08ftKGBA21zW7WK//+nWxww/aHnRmWzYBfG8nxrGN6ws4G00Y8Cin/WmIH23g3Izp0+/8QhaEuj3CnxP73RsZGPAdbvFCvvKo0YgEU4j2C4OhFRGpJy+4uGC8Cibjcszgqd7MkG2Tpn6h0BVsMCsFTOjJOBxxlw67kW4FANFIAeHET05WorptTqcKBhjROAnu3UKHdmrF53XwNwv1NWgsOBAOjHaYRJcZSjifu6IDB/v4YIQB9dVB3TLH15FHCRBghA39cLlI8IytfYS48yNPYIDQ+AGvlVSLKXGKB7cxfgOA0OgNrpFp2wcmQXA/XSTgIu0dgAqKk8JMXBBuulSCd7pAYGQO23E3bzD9lBsOi7ArL3alwANEPxg+pNt7Jok4CzNSoAGmRDdIgBfKGZemPgTRoUAI17PJAUxxjIF7QgsHiRhgRAo3cPdLLtDejzehRQnKIRAdBw/ycka+9jUJ/z44DsAo0HgBZYE5LRhxvYZ5vhiR1iod2i4QDQEleFbnGQAX5WjwLGnq7BANAyN0QvMMjPuCgwO1ZjAaCFbglD2UsN9FtcD5B/RUMBoKU2hm7xOoP9Xb8v4AqNBIBWTwSS/I0G/M0vCtyogQDQcptCmr/JwH+HlwaNH6hhADAwdwTS4giD/x/fF/AGjQKAAXJz6I491wRgaj3ASRoEAIO3fbA42CQgyVdpDAAMoN+GobFHDPok4EcaAgADaiyka3Yb5EnArzQCAAZXcX5Yvm7HAdweeMm2sQBu1wAAGGjd/IwwObnVgN0FmNhD5QNAdUfgmAGbBIw9RqUDQOX2wdo6mOSHqHQA+IPfhJVrHzQgk4Di5SocAO7gJ+HUke0G4O2BxVtUNgDcaaHgxwbgyODib1U2AGxufUDx7JZPAvL3q2gA2Ky1IVl7nza/POgfVDIA3KWvtnlNwD+qYADY4vkBr2npJCA/QeUCwBZdGU4fuV8Ltwhmx6tcAJhR2sbDgj6oYgFgNtsG23aaYJq/T8UCwCyk+Wi73jbonAAAmMPdgOzDbVoT8DaVCgCzdmNYNfbgtjwOeJUKBYA5WdWSSUD2PJUJAHOyKSTFwc2fBAzlT1CZADBn54XJya0aviZgdC8VCQDz2S1QvLjZk4DhiR1UJADMy09bcDcgv1ZFAsC8HNb0bYIXq0QAmJefh2WTWzd4ElB8QyUCwHzXBuSHN/nUwFNUIgDMdxKQXeDoYAAYXE9p6sLAF6g8AFiQLzd0EjCxh8oDgAXZGLrjD23q3YArVSAALGiB4P9q6iTguyoQABbkqnDqyHZNnAR8XOUBwAJ1i1c0cIdA/mqVBwALnQRkZzdvEtDJ9lZ5ALBgm5q5QDApxlUeACxUsayJ6wJWqzgAWLDLG7guIHuHigOAxdguOL5f09YFPFLFAcCi+KcmPhIYUXEAMIiPBJL8VBUHAIugM7F/syYBafY8FQcAi7JL4JhmTQLK4w6T/FoVBwAL9v0mPhIYVnEAsGC3hBWX36Npk4DDVBwALILu+F838ZHA71QeACz0vID8s018odBpKg8AFuyy5k0C0vxZKg4AFmxTOG3i3s2aBExObhW/8StUHgAsdF1A/ldNfCTwfpUHAAt2UvMmAauKXeM3foPKA4AF+Y/QyCRFV+UBwIJcH5ZNbt2sCUD5DXezj6g8AFigzujDGvRa4Yn94zf9YxUHAItyXsDh9R/8hyd2CEl2fCiPOlRpALBIimX1ngAMjT8tfqMjKgoAFv1OwFdq+ul/cptqhpLkG1UUACyJK+o3ATh9zZ5xAvADlQMAS+rW6kN3fW7/Zy+N39RvVQwA9ED5wbseRwIXx8Rv6HaVAgA9Uq696+/Wv2z7+I0MqQwA6PXiwOK1/ZsArBjfPaTZBSoCAPriuD4d/zv2mPiXr1UBANA3X+jD2wCLA+JffJXCB4C++lo/DgD6vYIHgD7rZuf28BFAfkh0nYIHgDpMAvJLezMBSPMXxr/wZoUOALWZBKzvxRqAg+JfdoMCB4BaubUXrwC+WkEDQA0t3R2A8YfGv2CdQgaAQZoEpGt2C2k+qoABYJAmAcsvvHucAJyjcAFg0CYBSf4ZBQsAgzYJSPM3KVQAGLRJQJI/xVkAADBok4Dlo/eMf1imQAFg0CYBSb5KYQLAoE0CkuLlChIABm0SsHLtg4ITAQFgwCYBk5NbxT/g+woRABpp00JeDPQ6BQgAjXX1/CYAq4pd42/+jQIEgMYame9iwM8pPABotJ/M4/XA4wfG33i7wgOABkvzb85jMWBxvsIDgMZL5/pugMMVGgC0QDf7yOwnAMOT28TfdJmCA4A2PA7I3u4NgQAwiDrZ82e5GDDbPv6GQqEBQEsMjT1ilgcDZe9QYADQGpvC8MQOM08Alk1uHb/4CgUGAK2xbnZ3AYaylyosAGjVzoCzZ/so4FwFBgBtmgTkH5vFjoDxJyosAGib7MhZTAKyREEBQNvuBBQHzHA40Iad4xdep7AAoFU2zrwzoJu9QUEBQOseBVw8m9cF/0BBAUDLpPlnZzohcO/qIAGFBQBt2xnw6hnuAuTHKSgAaKEVxT4zTQIuVFAA0Dq/2vIEYMX47h4FAEArFwV+aYa7ANnbFBIAtHJR4JtmOCAo/6aCAoAWOn3Nnls4IGhih/hFNygoABi08wGS/BCFBABt3BqYfWSGUwLzDykoAGilQ2Y6JfAshQQArXNlOGfybnc9AVg2uXX8omsUFAC07VFA8S8zHRX8OAUFAK3cGvisGdYDFG9VUADQtrsA+fowPLnNTIcEfUJhAUDr7gJ8duZXB3ezsxUWALRMJ3vyzJOAJF+rsACgVX4+8wRg5cguwUuDAKBljwKyo2eeBKTZkxQWALTKzWH1uvvO4lFA9kqFBQCt2hVwRphVytsFCgwAWqQ4eHaTgPKlAgoMANqyFuCCMOskearQAKAtk4DiiLlMAr6j0ACgFbItvyzozpOAixQaALRiLcBRYU5J8hGFBgCNtyEMb9h5rpOACQUHAI1fEHh0mHPKmYPCA4AmWxeGJ3aYzyTgWoUHAE2+C5C/K8wrSX6LAgSAxirCqSPbzXcScLsCBIDG3gV4VZh3ypcMKEQAaKLzwuTkVguZBFgTAADNsykkY38ZFpQkv1JBAkDjtgQmYcFJ8rUKEwAa5fchmdhj4ZOAbn6pwgSAQdgSeOdXCZ+rQAGgMX4Shie3WaRJQP51BQoAjXBbGBp7bFi0dPPTFCoANOIxwAlhUdPNT1SwAFB7Pw3Dl2y7uJOAtHiLggWAWrspdCb2D4ueoeI5ChcAau2dYUnSGX2YwgWA2q4D+N8LOxp4SynfPJTkGxU0ANTO2pCu2S0saZL8FwoaAGrl1pAUB4clT5IPK2wAqNVjgHeFniTJj1PgAFAbq0PPkmQvUeAAUAs/C8vX7di7ScDqsfsrdADou1+F09fsGXqeJB9T+ADQN9eFTva40Jek+UoVAAB9sTF0x/869C3laUQqAQD6sBMge3voa9L8USoCAHotOzbUItYFAEDvdItTQm2SZstVCgD0xGdCrZLkh6kUAFhyK8Kyya3rNQkY3rBz/MZuVDkAsGQ+tXRvBVz43YCvqiAAWIo1ANlHQq2TZv9NRQHAou8CODnUPh4JAMBi2hjKs3gak25+hkoDgAW7PiTFi0KjkhSHqjgAWJBfh3T8iaFxKbctpPmoCgSAeT3/vzh0sr1DY9PNP6QSAWCuii+GdP1OodFJ1+wWf5ibVCYAzHYBYHFMfc8AmPuZAaerVACY0YbokNCqpOP7xR9qk8oFgLv03bBifPfQynSzs1UwANzJLSHN39ee2/+b3y54sIoGgDv4RRjKnxAGIkn+PRUOAPltIc0+2fzV/3PJUP5UFQ/AgPuv0Bk/MAxkkuIsDQCAAXRjSLJjwzmTdwsDm5XFo6vbIBoDAIPjzJDmDwlS3Q34nAYBwAC4LKTZ8wz8dz5F8BqNA4CWWhcH/7eH4cltDPqbnQhkR2skALTMlaGbvz8sX7ejgX6mNwwm+Y81GABa4NqQZCeH5aP3NMDPem3A2GNiwd2q8QDQSN18fRz8jw+ril0N6vOaCMSZk4YEQLP8PI5fR4bhS7Y1kC8kp45sVx2coEEBUG/lneuvVqv9W33Of3/ODrhRAwOghkaqW/6nr9nTgL10bxl8r4YGQG1W+afZ8tDJnulTf+92C5yp4QHQJ78L3aITB/7nD/bRvv1KJ7tXrIQ1GiIAPZHmo9Xb/JLi0GqNmvR7t0D++OgmjROAJVBEq+In/rd6xl/b9QHF6zRUgNqukL+6Id9rueD8/4Zu/un4if9VBv1GHSucn+BiA6jb7fPif0zdtZ3Yo9oql+QfiL8m1WBbLqbrz/d1fbVvv5t/PToxfo9HhKGxRzi3v8kpV2N28zNcdAC1kc94Jn66fqfQLfYNSfGi+PXvDt3sw9Un8an+/DvRz6rn8OWfNXVHoXTL9J9/+5/8t7XV13XzS+OfcW78969FX6gmIUn+dyHJXhknH0+qXkgnrV0ouP105bv4APptKHupgUl6fJDQyC7Tt5lcgAB9U5xlQJL+ZPW6+1a3hFyIAP1wXUjzhxiMpI9bByf2CEn2SxcjQM+92SAkNbgjMHb/OBG42AUJ0CvZvxp8pD45beLeIc0ucGECLLkN1YcvkdpNBJL8hy5QgCWzKaTFiw04Us+UZzw7RwBgaZSH7ojUOuWBQuU7nl2wAIu5HfDbTtuT5iQt3hIb7s0uXIAFLwT8ZfVGV5FmTQSyJ1XHTLqIAebr2urIX5FGplzFmubnuJAB5uyWkBSHGkikBesEiqPCH19IAcCW3R66xSsMINKedMYPjA17xMUNMIM0O9qgIe3LisvvUb3Ccur1lC50gDv7J4OFtDtD+VNjQ7/MxQ5wh50AJxsgZEAeD2TbT58pcKMLH3AYUPH3BgYZvFRvI8zT6khMHQEwkMcBWwMgg57u2NPjxfBjHQIwWNsAsyMNACJ/uDNQHBovjAt1DkDLXR0dotMX+fOUZwuk+eHxAvmJjgJo5VHAyejDdfYiM2Vo/Gmhm/2bbYVAS3y/ev26iMxlMjDxF9X2mW6+XicCNHQB4CfD8gvvrkMXmW+GL9k2pMURIc2/6ShioCHWxT7rWTpwkcVMeUstzd8UL7DvRLfpaID6Kc4K6ZrddNgiS5l0/U4hLV4c0mx5vPAmdDxAn11TvTxt2eTWOmiRXqbaXTC+X+hm7whpvjJejIUOCejhp/9vhBXju+uMReqSofyBIc2eVx3NOTUxuCi6dok7g5ujK6KvxQnJh0M3f1nojD7MOQjQ4mf/XgEs0qCsXnff6jXH5YWbFO+ZHqw/Hf/5i9NrDaLi/OmB+09N/b80/0r8/5+Lv+fE+HvfG//5NdHB1XHI5R2JzSXJ36yzhFa5vnoXyvCGnXWqIrLlLF+34/RpYTpPaLbbq3eflHcaRURmnSQ/VQcKjbWxultYrj0SEZlzVhaP1pFSc78Lafb66AJlcYd1Pp+vDi8TEVng3YD/0KlSYyf9oa12i4Om1r+Un4AHsiyujD5qxb+ILF7Kkw8NNNTTjZs94KZc8NrN/mF618sgPO//TkiyV4ZTR7bTYYnI4qY8RKSbX2rAoXbKHTJbSrnzpdoFk38+2tCyn/8XIc1PCCuKfXRSIrK0qbYmGnSoldtCJ9t71m14eHKbkGbPiJ+YPxF/b97Qn7nc9vvBOPg/SqckIr29G5DkPzfwUCNDC2rTneyR8c94Z/TV6Lc1/RnXxAl4p1r4mIzupSMSkf7F2gDqdBdgMT8Nl5PcchtdNdjmn4rOq9Yb9PbRxvrq2X63OCX+bK+q1jWIiNTrbkB2sQGIGvhMT9p7+bhhqHhOdcegHJy7+dfjP/8wXge/jL9eN8fvufz6y6LvVQf3JNnJ8dd3xz/32eH0kfvpYESkAXcD8sMNQPT9rXd1GTSHJ3YIq4pdw8q1D6oW6JV3J7rFAdX+/PLfy9eId7J76ThEpD2Z+iRjMKJfPuAiFBHpV6ZOEbzVYEQfjMVP1tu7CEVE+ns34KMGJHp/LoDX34qI9D/lq0iTfMLARO8mANnZd/naaxER6XEcIETvXO9kPBGRuiUpvm2Aogd3Ad7hYhMRqd0kYGKPGp+2Rhuk+TkeA4iI1DXODmDp3FDtuRcRkTrfESi6BiyW4C7Au1xcIiJ1T7VboDpK1cDFIim+4TGAiEhT0hk/0CFCLI44oVw+ek8XlYhIk5JkxxrAWPA6gM7E/i4mEZGmpbx9m+YrDWTMfx1A9noXkohIU1O+WS0pzjegMQ+fdwGJiDQ9newBcSIwblBjDr4fTh3ZzsUjItKGJPnjq+NeDW7MvBDw4jhxvJeLRkSkTUmLI2Inf7tBji3Iw4rx3V0sIiJtTDd7g4kAd+G3oZM90kUiItLmJMV7DHj8mRtDtzjIxSEiMghJs6MNfPzhLICkONRFISIyWHcElhkAB165WPQQF4OIyCCmm59oIBxY10RPcRGIiAz2HYH3WCw4cH4X0uxJGr+IiITQLV4RB4abDY4D4Vehkz1OoxcRkT+mkz2z+oRokGyz/wrJ6F4au4iIbO6OwL6OGG6tb4WVI7to5CIictdZufZBccA4z6DZKh8Nyya31rhFRGTmDF+ybRw4TjV4Nt5N0Rs1aBERmXuGspdObyUzoDbP5RYAiojIwpKMPrx6s5xBtUnSMLxhZ41XREQWnnT9TnFg+UK0yQBba78P3exvNFgREVmCuwLFoXGgGTPY1tKPQnf8oRqpiIgsXZav2zEk2clx0Nlo4K3J6X9JcZTV/yIi0rsM5U+NA9AvDMJ9dWZIJvbQGEVEpPfpZNuHNP/vcTC61oDcU2tCd+y5GqCIiPQ/6Zrd4sD0meg2A/SSuir6QBie2EGjExGReqXaTpgP20Ww6K6v1mF0sntpZCIiUu8MjT8tpPk5Bu8Fu6U6uXH12P01KhERaVbS8SfGT7BfspNgHvv9k+wT8ZP/3hqRiIg0O+VgNrWt0BHEWzYWkuKYsKrYVaMREZF25bSJe8fJwLG2Fv6Z8tFJ+Z4Ge/1FRGQg0i32nb478JsBHfzzqZ9/9OEag4iIDGbK1xZPva3wa9Ovvm3zwL8uTn5OqdZKiIiIyJ+kOpI4f0FIs0/GX69owaC/Mf4sF8RfT4q/PiMMT26jkkVERGaTNH9I6GbvCEnxjTiQbmjIwJ9Fnw9pcUS1BkJEREQWISvGd4+D64tDkh1fnZvfzdf3/fZ+dX5//H7K72sof6BKEhER6VWS0b1Ct3h26GZvmJ4cnB59N/7zL+OvNy98v35+SfStkGbL46/Hxb/rdaE79vSwfPSeCl9ERKTOKffcd7IHhBXFPmFo7LGhM35gSIpDoxdVt+zT/IXVv5eL9cr/X35decdheMPOCk9EBiH/DytdnIA7HZ+8AAAAAElFTkSuQmCCwETvJgDZ2Xf52msREelxHCBE71zvZDwRkbolKb5tgKIHdwHe4WITEandJGBijxqftkYbpPk5HgOIiNQ1zg5g6dxQ7bkXEZE63xEougYsluAuwLtcXCIidU+1W6A6StXAxSIpvuExgIhIU9IZP9AhQiyOOKFcPnpPF5WISJOSZMcawFjwOoDOxP4uJhGRpqW8fZvmKw1kzH8dQPZ6F5KISFNTvlktKc43oDEPn3cBiYg0PZ3sAXEiMG5QYw6+H04d2c7FIyLShiT546vjXg1uzLwQ8OI4cbyXi0ZEpE1JiyNiJ3+7QY4tyMOK8d1dLCIibUw3e4OJAHfht6GTPdJFIiLS5iTFewx4/JkbQ7c4yMUhIjIISbOjDXz84SyApDjURSEiMlh3BJYZAAdeuVj0EBeDiMggppufaCAcWNdET3ERiIgM9h2B91gsOHB+F9LsSRq/iIiE0C1eEQeGmw2OA+FXoZM9TqMXEZE/ppM9s/qEaJBss/8KyeheGruIiGzujsC+jhhurW8=;" vertex="1" parent="1">
          <mxGeometry x="-406.5" y="-268.40999999999997" width="83" height="58.41" as="geometry" />
        </mxCell>
        <mxCell id="4sYesMDpXX-5hcElLDRR-86" value="LAMBDA" style="text;html=1;align=center;verticalAlign=middle;whiteSpace=wrap;rounded=0;" vertex="1" parent="1">
          <mxGeometry x="-200" y="-460" width="60" height="30" as="geometry" />
        </mxCell>
        <mxCell id="4sYesMDpXX-5hcElLDRR-87" value="&lt;font style=&quot;color: rgb(255, 255, 255);&quot;&gt;Account&lt;/font&gt;" style="text;html=1;align=center;verticalAlign=middle;whiteSpace=wrap;rounded=0;" vertex="1" parent="1">
          <mxGeometry x="-398" y="-687.8" width="60" height="30" as="geometry" />
        </mxCell>
        <mxCell id="4sYesMDpXX-5hcElLDRR-88" value="&lt;font style=&quot;color: rgb(255, 255, 255);&quot;&gt;Oportunities&lt;/font&gt;" style="text;html=1;align=center;verticalAlign=middle;whiteSpace=wrap;rounded=0;" vertex="1" parent="1">
          <mxGeometry x="-398" y="-601" width="60" height="30" as="geometry" />
        </mxCell>
        <mxCell id="4sYesMDpXX-5hcElLDRR-89" value="&lt;font style=&quot;color: rgb(255, 255, 255);&quot;&gt;Prospect&lt;/font&gt;" style="text;html=1;align=center;verticalAlign=middle;whiteSpace=wrap;rounded=0;" vertex="1" parent="1">
          <mxGeometry x="-398" y="-519.5" width="60" height="30" as="geometry" />
        </mxCell>
        <mxCell id="4sYesMDpXX-5hcElLDRR-90" value="&lt;font style=&quot;color: rgb(255, 255, 255);&quot;&gt;Contact&lt;/font&gt;" style="text;html=1;align=center;verticalAlign=middle;whiteSpace=wrap;rounded=0;" vertex="1" parent="1">
          <mxGeometry x="-398" y="-425" width="60" height="30" as="geometry" />
        </mxCell>
        <mxCell id="4sYesMDpXX-5hcElLDRR-91" value="&lt;font style=&quot;color: rgb(255, 255, 255);&quot;&gt;Interaction&lt;/font&gt;" style="text;html=1;align=center;verticalAlign=middle;whiteSpace=wrap;rounded=0;" vertex="1" parent="1">
          <mxGeometry x="-398" y="-349.5" width="60" height="30" as="geometry" />
        </mxCell>
        <mxCell id="4sYesMDpXX-5hcElLDRR-92" value="&lt;font style=&quot;color: rgb(255, 255, 255);&quot;&gt;NPS&lt;/font&gt;" style="text;html=1;align=center;verticalAlign=middle;whiteSpace=wrap;rounded=0;" vertex="1" parent="1">
          <mxGeometry x="-400.5" y="-259.5" width="60" height="30" as="geometry" />
        </mxCell>
        <mxCell id="4sYesMDpXX-5hcElLDRR-94" value="" style="endArrow=classic;startArrow=classic;html=1;rounded=0;entryX=0.917;entryY=0.14;entryDx=0;entryDy=0;entryPerimeter=0;" edge="1" parent="1" target="4sYesMDpXX-5hcElLDRR-24">
          <mxGeometry width="50" height="50" relative="1" as="geometry">
            <mxPoint x="-95" y="-480.5" as="sourcePoint" />
            <mxPoint x="-45" y="-530.5" as="targetPoint" />
            <Array as="points">
              <mxPoint x="-95" y="-670" />
            </Array>
          </mxGeometry>
        </mxCell>
        <mxCell id="4sYesMDpXX-5hcElLDRR-95" value="" style="endArrow=classic;html=1;rounded=0;entryX=0.967;entryY=0.288;entryDx=0;entryDy=0;entryPerimeter=0;" edge="1" parent="1">
          <mxGeometry width="50" height="50" relative="1" as="geometry">
            <mxPoint x="-98" y="-589" as="sourcePoint" />
            <mxPoint x="-306.96000000000004" y="-588.72" as="targetPoint" />
          </mxGeometry>
        </mxCell>
        <mxCell id="4sYesMDpXX-5hcElLDRR-96" value="" style="endArrow=classic;html=1;rounded=0;entryX=0.967;entryY=0.288;entryDx=0;entryDy=0;entryPerimeter=0;" edge="1" parent="1">
          <mxGeometry width="50" height="50" relative="1" as="geometry">
            <mxPoint x="-94.99999999999996" y="-505" as="sourcePoint" />
            <mxPoint x="-303.96" y="-504.72" as="targetPoint" />
          </mxGeometry>
        </mxCell>
        <mxCell id="4sYesMDpXX-5hcElLDRR-97" value="Objetos salesforce" style="text;html=1;align=center;verticalAlign=middle;whiteSpace=wrap;rounded=0;" vertex="1" parent="1">
          <mxGeometry x="-395" y="-790" width="60" height="30" as="geometry" />
        </mxCell>
        <mxCell id="4sYesMDpXX-5hcElLDRR-100" value="" style="endArrow=classic;startArrow=classic;html=1;rounded=0;entryX=0.435;entryY=0.972;entryDx=0;entryDy=0;entryPerimeter=0;" edge="1" parent="1">
          <mxGeometry width="50" height="50" relative="1" as="geometry">
            <mxPoint x="-300" y="-240" as="sourcePoint" />
            <mxPoint x="-94.98500000000013" y="-407.9960000000001" as="targetPoint" />
            <Array as="points">
              <mxPoint x="-95" y="-240" />
            </Array>
          </mxGeometry>
        </mxCell>
        <mxCell id="4sYesMDpXX-5hcElLDRR-101" value="" style="endArrow=classic;html=1;rounded=0;" edge="1" parent="1">
          <mxGeometry width="50" height="50" relative="1" as="geometry">
            <mxPoint x="-95" y="-329.5" as="sourcePoint" />
            <mxPoint x="-300" y="-330" as="targetPoint" />
          </mxGeometry>
        </mxCell>
        <mxCell id="4sYesMDpXX-5hcElLDRR-102" value="" style="endArrow=classic;html=1;rounded=0;" edge="1" parent="1">
          <mxGeometry width="50" height="50" relative="1" as="geometry">
            <mxPoint x="-97" y="-390" as="sourcePoint" />
            <mxPoint x="-305" y="-393" as="targetPoint" />
          </mxGeometry>
        </mxCell>
        <mxCell id="4sYesMDpXX-5hcElLDRR-104" value="" style="endArrow=classic;startArrow=classic;html=1;rounded=0;entryX=0;entryY=0.5;entryDx=0;entryDy=0;entryPerimeter=0;exitX=0.169;exitY=0.503;exitDx=0;exitDy=0;exitPerimeter=0;" edge="1" parent="1" source="4sYesMDpXX-5hcElLDRR-23" target="4sYesMDpXX-5hcElLDRR-16">
          <mxGeometry width="50" height="50" relative="1" as="geometry">
            <mxPoint x="-60" y="-440" as="sourcePoint" />
            <mxPoint y="-840" as="targetPoint" />
            <Array as="points">
              <mxPoint x="-40" y="-470" />
              <mxPoint x="-40" y="-751" />
            </Array>
          </mxGeometry>
        </mxCell>
        <mxCell id="4sYesMDpXX-5hcElLDRR-105" value="" style="endArrow=classic;startArrow=classic;html=1;rounded=0;entryX=0.557;entryY=0.247;entryDx=0;entryDy=0;entryPerimeter=0;" edge="1" parent="1" target="4sYesMDpXX-5hcElLDRR-23">
          <mxGeometry width="50" height="50" relative="1" as="geometry">
            <mxPoint x="276.8" y="-750" as="sourcePoint" />
            <mxPoint x="326.8" y="-800" as="targetPoint" />
            <Array as="points">
              <mxPoint x="320" y="-750" />
            </Array>
          </mxGeometry>
        </mxCell>
        <mxCell id="4sYesMDpXX-5hcElLDRR-106" value="" style="endArrow=classic;startArrow=classic;html=1;rounded=0;entryX=-0.012;entryY=0.119;entryDx=0;entryDy=0;entryPerimeter=0;" edge="1" parent="1" target="4sYesMDpXX-5hcElLDRR-53">
          <mxGeometry width="50" height="50" relative="1" as="geometry">
            <mxPoint x="180" y="-580" as="sourcePoint" />
            <mxPoint x="230" y="-630" as="targetPoint" />
          </mxGeometry>
        </mxCell>
        <mxCell id="4sYesMDpXX-5hcElLDRR-107" value="" style="endArrow=classic;startArrow=classic;html=1;rounded=0;entryX=-0.012;entryY=0.119;entryDx=0;entryDy=0;entryPerimeter=0;" edge="1" parent="1">
          <mxGeometry width="50" height="50" relative="1" as="geometry">
            <mxPoint x="181" y="-489.5" as="sourcePoint" />
            <mxPoint x="259" y="-489.5" as="targetPoint" />
          </mxGeometry>
        </mxCell>
        <mxCell id="4sYesMDpXX-5hcElLDRR-108" value="" style="endArrow=classic;startArrow=classic;html=1;rounded=0;entryX=-0.012;entryY=0.119;entryDx=0;entryDy=0;entryPerimeter=0;" edge="1" parent="1">
          <mxGeometry width="50" height="50" relative="1" as="geometry">
            <mxPoint x="181" y="-408" as="sourcePoint" />
            <mxPoint x="259" y="-408" as="targetPoint" />
          </mxGeometry>
        </mxCell>
        <mxCell id="4sYesMDpXX-5hcElLDRR-110" value="" style="endArrow=classic;startArrow=classic;html=1;rounded=0;entryX=-0.012;entryY=0.119;entryDx=0;entryDy=0;entryPerimeter=0;" edge="1" parent="1">
          <mxGeometry width="50" height="50" relative="1" as="geometry">
            <mxPoint x="180" y="-325.46" as="sourcePoint" />
            <mxPoint x="258" y="-325.46" as="targetPoint" />
          </mxGeometry>
        </mxCell>
        <mxCell id="4sYesMDpXX-5hcElLDRR-111" value="" style="endArrow=classic;startArrow=classic;html=1;rounded=0;entryX=-0.012;entryY=0.119;entryDx=0;entryDy=0;entryPerimeter=0;" edge="1" parent="1">
          <mxGeometry width="50" height="50" relative="1" as="geometry">
            <mxPoint x="181" y="-245.20999999999998" as="sourcePoint" />
            <mxPoint x="259" y="-245.20999999999998" as="targetPoint" />
          </mxGeometry>
        </mxCell>
        <mxCell id="4sYesMDpXX-5hcElLDRR-112" value="" style="endArrow=classic;html=1;rounded=0;entryX=0.697;entryY=0.361;entryDx=0;entryDy=0;entryPerimeter=0;" edge="1" parent="1" target="4sYesMDpXX-5hcElLDRR-23">
          <mxGeometry width="50" height="50" relative="1" as="geometry">
            <mxPoint x="379" y="-580" as="sourcePoint" />
            <mxPoint x="429" y="-630" as="targetPoint" />
          </mxGeometry>
        </mxCell>
        <mxCell id="4sYesMDpXX-5hcElLDRR-113" value="" style="endArrow=classic;html=1;rounded=0;entryX=0.697;entryY=0.361;entryDx=0;entryDy=0;entryPerimeter=0;" edge="1" parent="1">
          <mxGeometry width="50" height="50" relative="1" as="geometry">
            <mxPoint x="379" y="-489.5" as="sourcePoint" />
            <mxPoint x="460" y="-489.5" as="targetPoint" />
          </mxGeometry>
        </mxCell>
        <mxCell id="4sYesMDpXX-5hcElLDRR-114" value="" style="endArrow=classic;html=1;rounded=0;entryX=0.697;entryY=0.361;entryDx=0;entryDy=0;entryPerimeter=0;" edge="1" parent="1">
          <mxGeometry width="50" height="50" relative="1" as="geometry">
            <mxPoint x="379" y="-408" as="sourcePoint" />
            <mxPoint x="460" y="-408" as="targetPoint" />
          </mxGeometry>
        </mxCell>
        <mxCell id="4sYesMDpXX-5hcElLDRR-115" value="" style="endArrow=classic;html=1;rounded=0;entryX=0.697;entryY=0.361;entryDx=0;entryDy=0;entryPerimeter=0;" edge="1" parent="1">
          <mxGeometry width="50" height="50" relative="1" as="geometry">
            <mxPoint x="379" y="-319.5" as="sourcePoint" />
            <mxPoint x="460" y="-319.5" as="targetPoint" />
          </mxGeometry>
        </mxCell>
        <mxCell id="4sYesMDpXX-5hcElLDRR-116" value="" style="endArrow=classic;html=1;rounded=0;entryX=0.697;entryY=0.361;entryDx=0;entryDy=0;entryPerimeter=0;" edge="1" parent="1">
          <mxGeometry width="50" height="50" relative="1" as="geometry">
            <mxPoint x="379" y="-248.95999999999998" as="sourcePoint" />
            <mxPoint x="460" y="-248.95999999999998" as="targetPoint" />
          </mxGeometry>
        </mxCell>
        <mxCell id="4sYesMDpXX-5hcElLDRR-117" value="&lt;font style=&quot;font-size: 20px;&quot;&gt;&lt;b&gt;Pontos a entender:&lt;/b&gt;&lt;/font&gt;&lt;div&gt;&lt;font style=&quot;font-size: 20px;&quot;&gt;- como é essa lambda generica (assistir o video, e talvez tirar duvida com Pedroa)&lt;br&gt;- se o fluxo é esse mesmo ( ver com Thialia, ou alguem de dados do time do cris)&lt;/font&gt;&lt;/div&gt;&lt;div&gt;&lt;font style=&quot;font-size: 20px;&quot;&gt;- ver com Igao se o fluxo de pegar os dados ainda sera pela lambda&amp;nbsp;&lt;/font&gt;&lt;/div&gt;&lt;div&gt;&lt;font style=&quot;font-size: 20px;&quot;&gt;- é uma democratizacao nova: vc precisa criar uma esteira alem da esteira do glue pra subir a tabela?&lt;br&gt;- se acrescentar um novo campo tem q add na tabela, é uma esteira a parte?&lt;/font&gt;&lt;/div&gt;" style="text;html=1;align=center;verticalAlign=middle;whiteSpace=wrap;rounded=0;" vertex="1" parent="1">
          <mxGeometry x="-650" y="-1170" width="370" height="30" as="geometry" />
        </mxCell>
        <mxCell id="4sYesMDpXX-5hcElLDRR-118" value="" style="outlineConnect=0;dashed=0;verticalLabelPosition=bottom;verticalAlign=top;align=center;html=1;shape=mxgraph.aws3.cloud_2;fillColor=#F58534;gradientColor=none;" vertex="1" parent="1">
          <mxGeometry x="-215" y="-900" width="75" height="75" as="geometry" />
        </mxCell>
        <mxCell id="4sYesMDpXX-5hcElLDRR-194" value="" style="endArrow=classic;html=1;rounded=0;" edge="1" parent="1">
          <mxGeometry width="50" height="50" relative="1" as="geometry">
            <mxPoint x="-61" y="-443.05" as="sourcePoint" />
            <mxPoint x="50" y="-590" as="targetPoint" />
            <Array as="points">
              <mxPoint y="-443" />
              <mxPoint y="-590" />
            </Array>
          </mxGeometry>
        </mxCell>
        <mxCell id="4sYesMDpXX-5hcElLDRR-195" value="" style="endArrow=classic;html=1;rounded=0;entryX=0.015;entryY=0.942;entryDx=0;entryDy=0;entryPerimeter=0;" edge="1" parent="1">
          <mxGeometry width="50" height="50" relative="1" as="geometry">
            <mxPoint x="-0.5" y="-442" as="sourcePoint" />
            <mxPoint x="61.80000000000018" y="-235.36000000000013" as="targetPoint" />
            <Array as="points">
              <mxPoint y="-235" />
            </Array>
          </mxGeometry>
        </mxCell>
        <mxCell id="4sYesMDpXX-5hcElLDRR-196" value="" style="endArrow=classic;html=1;rounded=0;entryX=0;entryY=0.714;entryDx=0;entryDy=0;entryPerimeter=0;" edge="1" parent="1" target="4sYesMDpXX-5hcElLDRR-26">
          <mxGeometry width="50" height="50" relative="1" as="geometry">
            <mxPoint x="1.5" y="-329.5" as="sourcePoint" />
            <mxPoint x="51.5" y="-379.5" as="targetPoint" />
          </mxGeometry>
        </mxCell>
        <mxCell id="4sYesMDpXX-5hcElLDRR-197" value="" style="endArrow=classic;html=1;rounded=0;entryX=0;entryY=0.714;entryDx=0;entryDy=0;entryPerimeter=0;" edge="1" parent="1">
          <mxGeometry width="50" height="50" relative="1" as="geometry">
            <mxPoint x="1.5" y="-407.5" as="sourcePoint" />
            <mxPoint x="60" y="-408" as="targetPoint" />
          </mxGeometry>
        </mxCell>
        <mxCell id="4sYesMDpXX-5hcElLDRR-199" value="" style="endArrow=classic;html=1;rounded=0;entryX=0;entryY=0.714;entryDx=0;entryDy=0;entryPerimeter=0;" edge="1" parent="1">
          <mxGeometry width="50" height="50" relative="1" as="geometry">
            <mxPoint x="1.5" y="-494.21" as="sourcePoint" />
            <mxPoint x="60" y="-494.71" as="targetPoint" />
          </mxGeometry>
        </mxCell>
        <mxCell id="4sYesMDpXX-5hcElLDRR-200" value="" style="rounded=0;whiteSpace=wrap;html=1;" vertex="1" parent="1">
          <mxGeometry x="259" y="430" width="120" height="400" as="geometry" />
        </mxCell>
        <mxCell id="4sYesMDpXX-5hcElLDRR-201" value="" style="rounded=0;whiteSpace=wrap;html=1;" vertex="1" parent="1">
          <mxGeometry x="-240" y="175" width="1005" height="785" as="geometry" />
        </mxCell>
        <mxCell id="4sYesMDpXX-5hcElLDRR-202" value="" style="sketch=0;points=[[0,0,0],[0.25,0,0],[0.5,0,0],[0.75,0,0],[1,0,0],[0,1,0],[0.25,1,0],[0.5,1,0],[0.75,1,0],[1,1,0],[0,0.25,0],[0,0.5,0],[0,0.75,0],[1,0.25,0],[1,0.5,0],[1,0.75,0]];outlineConnect=0;fontColor=#232F3E;fillColor=#E7157B;strokeColor=#ffffff;dashed=0;verticalLabelPosition=bottom;verticalAlign=top;align=center;html=1;fontSize=12;fontStyle=0;aspect=fixed;shape=mxgraph.aws4.resourceIcon;resIcon=mxgraph.aws4.step_functions;" vertex="1" parent="1">
          <mxGeometry x="198.79999999999995" y="250" width="78" height="78" as="geometry" />
        </mxCell>
        <mxCell id="4sYesMDpXX-5hcElLDRR-203" value="Step Functions" style="text;html=1;align=center;verticalAlign=middle;whiteSpace=wrap;rounded=0;" vertex="1" parent="1">
          <mxGeometry x="188.29999999999995" y="220" width="99" height="30" as="geometry" />
        </mxCell>
        <mxCell id="4sYesMDpXX-5hcElLDRR-204" value="" style="outlineConnect=0;dashed=0;verticalLabelPosition=bottom;verticalAlign=top;align=center;html=1;shape=mxgraph.aws3.lambda_function;fillColor=#F58534;gradientColor=none;" vertex="1" parent="1">
          <mxGeometry x="-130" y="560" width="69" height="72" as="geometry" />
        </mxCell>
        <mxCell id="4sYesMDpXX-5hcElLDRR-205" value="" style="rounded=0;whiteSpace=wrap;html=1;" vertex="1" parent="1">
          <mxGeometry x="-425" y="290" width="120" height="560" as="geometry" />
        </mxCell>
        <mxCell id="4sYesMDpXX-5hcElLDRR-206" value="" style="shape=image;verticalLabelPosition=bottom;labelBackgroundColor=default;verticalAlign=top;aspect=fixed;imageAspect=0;image=data:image/png,iVBORw0KGgoAAAANSUhEUgAAAgEAAAFpCAYAAAAFqfvLAAAeP0lEQVR42u3dCZglRYEn8ACUWxQPVBBEHE/ACxkP8EDxHB0FRXe88L4dcNSBcWUaB9hBVxfFY2yleS+zuhstzxkcF/FgZFWEZZRBQLC6KjOr2rZtEJH7aLo2MqtWRZqu+73MfL//9/2+5qjuroqIjIiXGREZgoiIiIgMYE6buHdYUewThvInhG5xQEjG/jIkxaF/4uDqv5fKr1s19uCQrt9JwYmIiNQ5p6/ZM6TZM0KSHRkdH/85iYP6D0I3vzQk+W+ijdHkPN0Q5dFPojOjz8eJwt/HXw8L6fh+oZNtrwJERESWOudM3i0OvE+Mg/Bb4wD/6WqgT/KrFzDAL4ZNURHS/JvVBCQpXhRWj91fZYmIiCwkKy6/RxxcXxidEJ0TB9vr+zzgz0ExHr/nr0TvCkNjj1CZIiIiM6Uzsf/07fbvR7c2Z9Cf0UT8uTpxcvCacPrI/VS0iIjI5ORWYSh/akiyT1Sfntsz6G9JuUbhe9E7Qyd7gEYgIiKDlWqFfv7xARr478rtoZudG8vhPdUOBhERkVZm5cgu04v6/nPAB/67cnM0XG1ZLO+QiIiIND5Te/M709vtDPazMxKS7NiQrL2PBiQiIs1K+Um2OoSn2ltvUJ+/60OaLQ+d0YdpVCIiUu+Ue/mT/I3RLwzgi+q2aFXoZI/TyEREpF4ZntwmpMVrp25jG7SXVDf/eugW+2p0NZn0LpvcWkGIyGCmvO2fFkfEwekyA3SvtxkW3eodB7I4WX7h3cPQxF+EoeI5IcneFsv3n6u1LN3s32J5/zj+t19On1B5dbWr4851cs30/xsLaT4af//507/3M9FxIc1eH7pjzw2d7JHV5EFEpNEpj/BN8h8akPu9oyD7hO2Fc0x5PkOSv2Bq8WX2pfjPVyzwHRNzdUv0s2goThaOmfpeJvZQMSJS/wzlD6wWq/W202TL4ifQ4ii3pu8iK8Z3r+5Yle126sVSm2paj+uqbaLlVto0f4iKE5H6pBxgkvzd0bUG3dr6URgae+zAt9VTR7aLA/7zpl40lWcNrs+x6Avx5/ir6mcSEelLVhaPrgYYg2wzdhJ0i1NCun6ngWqj5Wudu/nLqhc3NeplU7P2+2h1SIqXD1zdikifUr2+t/jH6dPsDLCNO3Aof0r7704Vh04fRnXNANXtjXHCc0ac8DzL6ZIislSfrPa28K8F7yZIs0+27lZyJ7vX9BHUl6rjcrJXHBPSNbvptERkcZLmb4qdy3U62Nb4WUjH92t8uyzXO5RbI5P8JnW6uR0H2ZeqXTsiIvNK+ZKfqWeqOtU23kJOsiMb2S67Y0+P3/+3aryqv2aKs6oyExGZfUdb7Du9X1on2mblNrmmPB6oDu4pD+pRb/P0wzipf6F1AyKy5STZSwZsYdWgHz38n7Xeh94ZPzB+n99VV4t2Z+D8OMk/SEcnIndMubq6m33EbdaBdFXoZM+sVXtcUewTv68va49LYlP1EqpkdC8dn4iEMDyxg+f/FpOFbv7qWrTFJDvegr+ebS88MQxv2FknKDKoKbcTJfl5OkSmPyF+sM+PosbUQ88VoZM9X2coMmjpjD5s6i1nOkLu4As9fbvd6nX3DUnxReXe9/UC3bCq2FXHKDIQdwDG94sX/q91fGxe9q892TmQ5ofHv+83yrs2fl3ViYi0ON3igHixX6nDYwb/Xp3DvxQpz6GoFqcp55oaslZApJ0TgINsAWQOt4i/XS3WW9y7UE+Mf/YaZVt7l4dk7DE6TZG2JMkfH/1O58YcJwI/WJRPheVBNUlx1NSxtsq1IW6q6kxEGp7qrPX8ap0a8/SdMHzJtvP/9L9+p+l9/8qykadL5iu9tliksXcARh9uESCLcLrg18Pw5DZzbn8r1z4o/v4LlWHjXRROX7OnDlWkSSkv2iRfqwNjkXxqTu1v6oU/G5Rbax4NjVsnINKUrLj8HtXsXefF4t4R+NDsHgFU2/+c/Nc+14W0eLEOVqTOWX7h3UM3O1uHxZKcLJhmr9/yI6hqAeDtyqq1NoYke5uOVqS26wDyFToqltDNoZM9+U7trtoBkJ2sfAZmMni0zlakbikvTB0UvThdLpnY4w4TgDT7pHIZOMfpdEXqkqH8qfZh00PnVccLV3cA8k8pj4E9Zvpkna9I3x8BxE9l3Xy9DokeLxQ8LXSLf1EWA3+WwAk6YZF+pVwImOQ/1hkBffR3OmORvtwFyE/SAQF9XyyYZEfqkEV6OgEoDp7asqMTAvru1tDJnq9jFunJY4DRe8aLLtfxADVyQ/QUHbTIUqd8sYcOB6jfgtH11XsjRGTJJgAv1NkANfbTMDyxg85aZLGzcmSXqZd56GiAOm8dzBIdtsji3wX4rA4GaMhE4O06bZHFytSpgF7OAjTFLRYKiixGlk1uHS+mC3UqQMOMVY8xa3t3df1OYdXYg0Nn/MD4vb4gpMVrp97DUhwzdQ5LdnLo5h+L/235H5V3ZMsXZlWOn/7aN0eHhe7Y00O32DesHrt/GJ7cxuAli5Mkf6POBGjmjoGi09f+s5PtPTXA5++Kv348+lp0UfT7JT87Ic1H46/fnTpmO/9Q6GZ/E5Kxx1SnvYrMKisuv8fUm9t0JkBjHbbkfWX5yXto7LHx0/rr48TjlDgAnxP/3qtre7jS1ERkKPpAnKg8Myxft6MBTzZzF8B72oHGuzIOdA9Y3EH/km3jYH9Q7COPjX/+v0fXNLyMbgtJcX41genmL6seKcjALwZ84PQpXDoRoOG7BfJvLvzOaLFPHCT/NnSzs+OfeWP738mQXxgnBCdWC8OtMRjItQCn6jyAFq0PeMWc+sDJya2mdkZVd0QvGfDy+22cEJwRJ1OHO4xpICYAo3vFSr9ZxwG0yLrq3SczrtrPHzW18j5fo8w2q7wLcmZIiyOqxyLSwpRbUTR0oH3vF/jY5vu8NbvFwf998Wt+ppzmpFz8+KnQmdjfwNmaHQHju08ftKGBA21zW7WK//+nWxww/aHnRmWzYBfG8nxrGN6ws4G00Y8Cin/WmIH23g3Izp0+/8QhaEuj3CnxP73RsZGPAdbvFCvvKo0YgEU4j2C4OhFRGpJy+4uGC8Cibjcszgqd7MkG2Tpn6h0BVsMCsFTOjJOBxxlw67kW4FANFIAeHET05WorptTqcKBhjROAnu3UKHdmrF53XwNwv1NWgsOBAOjHaYRJcZSjifu6IDB/v4YIQB9dVB3TLH15FHCRBghA39cLlI8IytfYS48yNPYIDQ+AGvlVSLKXGKB7cxfgOA0OgNrpFp2wcmQXA/XSTgIu0dgAqKk8JMXBBuulSCd7pAYGQO23E3bzD9lBsOi7ArL3alwANEPxg+pNt7Jok4CzNSoAGmRDdIgBfKGZemPgTRoUAI17PJAUxxjIF7QgsHiRhgRAo3cPdLLtDejzehRQnKIRAdBw/ycka+9jUJ/z44DsAo0HgBZYE5LRhxvYZ5vhiR1iod2i4QDQEleFbnGQAX5WjwLGnq7BANAyN0QvMMjPuCgwO1ZjAaCFbglD2UsN9FtcD5B/RUMBoKU2hm7xOoP9Xb8v4AqNBIBWTwSS/I0G/M0vCtyogQDQcptCmr/JwH+HlwaNH6hhADAwdwTS4giD/x/fF/AGjQKAAXJz6I491wRgaj3ASRoEAIO3fbA42CQgyVdpDAAMoN+GobFHDPok4EcaAgADaiyka3Yb5EnArzQCAAZXcX5Yvm7HAdweeMm2sQBu1wAAGGjd/IwwObnVgN0FmNhD5QNAdUfgmAGbBIw9RqUDQOX2wdo6mOSHqHQA+IPfhJVrHzQgk4Di5SocAO7gJ+HUke0G4O2BxVtUNgDcaaHgxwbgyODib1U2AGxufUDx7JZPAvL3q2gA2Ky1IVl7nza/POgfVDIA3KWvtnlNwD+qYADY4vkBr2npJCA/QeUCwBZdGU4fuV8Ltwhmx6tcAJhR2sbDgj6oYgFgNtsG23aaYJq/T8UCwCyk+Wi73jbonAAAmMPdgOzDbVoT8DaVCgCzdmNYNfbgtjwOeJUKBYA5WdWSSUD2PJUJAHOyKSTFwc2fBAzlT1CZADBn54XJya0aviZgdC8VCQDz2S1QvLjZk4DhiR1UJADMy09bcDcgv1ZFAsC8HNb0bYIXq0QAmJefh2WTWzd4ElB8QyUCwHzXBuSHN/nUwFNUIgDMdxKQXeDoYAAYXE9p6sLAF6g8AFiQLzd0EjCxh8oDgAXZGLrjD23q3YArVSAALGiB4P9q6iTguyoQABbkqnDqyHZNnAR8XOUBwAJ1i1c0cIdA/mqVBwALnQRkZzdvEtDJ9lZ5ALBgm5q5QDApxlUeACxUsayJ6wJWqzgAWLDLG7guIHuHigOAxdguOL5f09YFPFLFAcCi+KcmPhIYUXEAMIiPBJL8VBUHAIugM7F/syYBafY8FQcAi7JL4JhmTQLK4w6T/FoVBwAL9v0mPhIYVnEAsGC3hBWX36Npk4DDVBwALILu+F838ZHA71QeACz0vID8s018odBpKg8AFuyy5k0C0vxZKg4AFmxTOG3i3s2aBExObhW/8StUHgAsdF1A/ldNfCTwfpUHAAt2UvMmAauKXeM3foPKA4AF+Y/QyCRFV+UBwIJcH5ZNbt2sCUD5DXezj6g8AFigzujDGvRa4Yn94zf9YxUHAItyXsDh9R/8hyd2CEl2fCiPOlRpALBIimX1ngAMjT8tfqMjKgoAFv1OwFdq+ul/cptqhpLkG1UUACyJK+o3ATh9zZ5xAvADlQMAS+rW6kN3fW7/Zy+N39RvVQwA9ED5wbseRwIXx8Rv6HaVAgA9Uq696+/Wv2z7+I0MqQwA6PXiwOK1/ZsArBjfPaTZBSoCAPriuD4d/zv2mPiXr1UBANA3X+jD2wCLA+JffJXCB4C++lo/DgD6vYIHgD7rZuf28BFAfkh0nYIHgDpMAvJLezMBSPMXxr/wZoUOALWZBKzvxRqAg+JfdoMCB4BaubUXrwC+WkEDQA0t3R2A8YfGv2CdQgaAQZoEpGt2C2k+qoABYJAmAcsvvHucAJyjcAFg0CYBSf4ZBQsAgzYJSPM3KVQAGLRJQJI/xVkAADBok4Dlo/eMf1imQAFg0CYBSb5KYQLAoE0CkuLlChIABm0SsHLtg4ITAQFgwCYBk5NbxT/g+woRABpp00JeDPQ6BQgAjXX1/CYAq4pd42/+jQIEgMYame9iwM8pPABotJ/M4/XA4wfG33i7wgOABkvzb85jMWBxvsIDgMZL5/pugMMVGgC0QDf7yOwnAMOT28TfdJmCA4A2PA7I3u4NgQAwiDrZ82e5GDDbPv6GQqEBQEsMjT1ilgcDZe9QYADQGpvC8MQOM08Alk1uHb/4CgUGAK2xbnZ3AYaylyosAGjVzoCzZ/so4FwFBgBtmgTkH5vFjoDxJyosAGib7MhZTAKyREEBQNvuBBQHzHA40Iad4xdep7AAoFU2zrwzoJu9QUEBQOseBVw8m9cF/0BBAUDLpPlnZzohcO/qIAGFBQBt2xnw6hnuAuTHKSgAaKEVxT4zTQIuVFAA0Dq/2vIEYMX47h4FAEArFwV+aYa7ANnbFBIAtHJR4JtmOCAo/6aCAoAWOn3Nnls4IGhih/hFNygoABi08wGS/BCFBABt3BqYfWSGUwLzDykoAGilQ2Y6JfAshQQArXNlOGfybnc9AVg2uXX8omsUFAC07VFA8S8zHRX8OAUFAK3cGvisGdYDFG9VUADQtrsA+fowPLnNTIcEfUJhAUDr7gJ8duZXB3ezsxUWALRMJ3vyzJOAJF+rsACgVX4+8wRg5cguwUuDAKBljwKyo2eeBKTZkxQWALTKzWH1uvvO4lFA9kqFBQCt2hVwRphVytsFCgwAWqQ4eHaTgPKlAgoMANqyFuCCMOskearQAKAtk4DiiLlMAr6j0ACgFbItvyzozpOAixQaALRiLcBRYU5J8hGFBgCNtyEMb9h5rpOACQUHAI1fEHh0mHPKmYPCA4AmWxeGJ3aYzyTgWoUHAE2+C5C/K8wrSX6LAgSAxirCqSPbzXcScLsCBIDG3gV4VZh3ypcMKEQAaKLzwuTkVguZBFgTAADNsykkY38ZFpQkv1JBAkDjtgQmYcFJ8rUKEwAa5fchmdhj4ZOAbn6pwgSAQdgSeOdXCZ+rQAGgMX4Shie3WaRJQP51BQoAjXBbGBp7bFi0dPPTFCoANOIxwAlhUdPNT1SwAFB7Pw3Dl2y7uJOAtHiLggWAWrspdCb2D4ueoeI5ChcAau2dYUnSGX2YwgWA2q4D+N8LOxp4SynfPJTkGxU0ANTO2pCu2S0saZL8FwoaAGrl1pAUB4clT5IPK2wAqNVjgHeFniTJj1PgAFAbq0PPkmQvUeAAUAs/C8vX7di7ScDqsfsrdADou1+F09fsGXqeJB9T+ADQN9eFTva40Jek+UoVAAB9sTF0x/869C3laUQqAQD6sBMge3voa9L8USoCAHotOzbUItYFAEDvdItTQm2SZstVCgD0xGdCrZLkh6kUAFhyK8Kyya3rNQkY3rBz/MZuVDkAsGQ+tXRvBVz43YCvqiAAWIo1ANlHQq2TZv9NRQHAou8CODnUPh4JAMBi2hjKs3gak25+hkoDgAW7PiTFi0KjkhSHqjgAWJBfh3T8iaFxKbctpPmoCgSAeT3/vzh0sr1DY9PNP6QSAWCuii+GdP1OodFJ1+wWf5ibVCYAzHYBYHFMfc8AmPuZAaerVACY0YbokNCqpOP7xR9qk8oFgLv03bBifPfQynSzs1UwANzJLSHN39ee2/+b3y54sIoGgDv4RRjKnxAGIkn+PRUOAPltIc0+2fzV/3PJUP5UFQ/AgPuv0Bk/MAxkkuIsDQCAAXRjSLJjwzmTdwsDm5XFo6vbIBoDAIPjzJDmDwlS3Q34nAYBwAC4LKTZ8wz8dz5F8BqNA4CWWhcH/7eH4cltDPqbnQhkR2skALTMlaGbvz8sX7ejgX6mNwwm+Y81GABa4NqQZCeH5aP3NMDPem3A2GNiwd2q8QDQSN18fRz8jw+ril0N6vOaCMSZk4YEQLP8PI5fR4bhS7Y1kC8kp45sVx2coEEBUG/lneuvVqv9W33Of3/ODrhRAwOghkaqW/6nr9nTgL10bxl8r4YGQG1W+afZ8tDJnulTf+92C5yp4QHQJ78L3aITB/7nD/bRvv1KJ7tXrIQ1GiIAPZHmo9Xb/JLi0GqNmvR7t0D++OgmjROAJVBEq+In/rd6xl/b9QHF6zRUgNqukL+6Id9rueD8/4Zu/un4if9VBv1GHSucn+BiA6jb7fPif0zdtZ3Yo9oql+QfiL8m1WBbLqbrz/d1fbVvv5t/PToxfo9HhKGxRzi3v8kpV2N28zNcdAC1kc94Jn66fqfQLfYNSfGi+PXvDt3sw9Un8an+/DvRz6rn8OWfNXVHoXTL9J9/+5/8t7XV13XzS+OfcW78969FX6gmIUn+dyHJXhknH0+qXkgnrV0ouP105bv4APptKHupgUl6fJDQyC7Tt5lcgAB9U5xlQJL+ZPW6+1a3hFyIAP1wXUjzhxiMpI9bByf2CEn2SxcjQM+92SAkNbgjMHb/OBG42AUJ0CvZvxp8pD45beLeIc0ucGECLLkN1YcvkdpNBJL8hy5QgCWzKaTFiw04Us+UZzw7RwBgaZSH7ojUOuWBQuU7nl2wAIu5HfDbTtuT5iQt3hIb7s0uXIAFLwT8ZfVGV5FmTQSyJ1XHTLqIAebr2urIX5FGplzFmubnuJAB5uyWkBSHGkikBesEiqPCH19IAcCW3R66xSsMINKedMYPjA17xMUNMIM0O9qgIe3LisvvUb3Ccur1lC50gDv7J4OFtDtD+VNjQ7/MxQ5wh50AJxsgZEAeD2TbT58pcKMLH3AYUPH3BgYZvFRvI8zT6khMHQEwkMcBWwMgg57u2NPjxfBjHQIwWNsAsyMNACJ/uDNQHBovjAt1DkDLXR0dotMX+fOUZwuk+eHxAvmJjgJo5VHAyejDdfYiM2Vo/Gmhm/2bbYVAS3y/ev26iMxlMjDxF9X2mW6+XicCNHQB4CfD8gvvrkMXmW+GL9k2pMURIc2/6ShioCHWxT7rWTpwkcVMeUstzd8UL7DvRLfpaID6Kc4K6ZrddNgiS5l0/U4hLV4c0mx5vPAmdDxAn11TvTxt2eTWOmiRXqbaXTC+X+hm7whpvjJejIUOCejhp/9vhBXju+uMReqSofyBIc2eVx3NOTUxuCi6dok7g5ujK6KvxQnJh0M3f1nojD7MOQjQ4mf/XgEs0qCsXnff6jXH5YWbFO+ZHqw/Hf/5i9NrDaLi/OmB+09N/b80/0r8/5+Lv+fE+HvfG//5NdHB1XHI5R2JzSXJ36yzhFa5vnoXyvCGnXWqIrLlLF+34/RpYTpPaLbbq3eflHcaRURmnSQ/VQcKjbWxultYrj0SEZlzVhaP1pFSc78Lafb66AJlcYd1Pp+vDi8TEVng3YD/0KlSYyf9oa12i4Om1r+Un4AHsiyujD5qxb+ILF7Kkw8NNNTTjZs94KZc8NrN/mF618sgPO//TkiyV4ZTR7bTYYnI4qY8RKSbX2rAoXbKHTJbSrnzpdoFk38+2tCyn/8XIc1PCCuKfXRSIrK0qbYmGnSoldtCJ9t71m14eHKbkGbPiJ+YPxF/b97Qn7nc9vvBOPg/SqckIr29G5DkPzfwUCNDC2rTneyR8c94Z/TV6Lc1/RnXxAl4p1r4mIzupSMSkf7F2gDqdBdgMT8Nl5PcchtdNdjmn4rOq9Yb9PbRxvrq2X63OCX+bK+q1jWIiNTrbkB2sQGIGvhMT9p7+bhhqHhOdcegHJy7+dfjP/8wXge/jL9eN8fvufz6y6LvVQf3JNnJ8dd3xz/32eH0kfvpYESkAXcD8sMNQPT9rXd1GTSHJ3YIq4pdw8q1D6oW6JV3J7rFAdX+/PLfy9eId7J76ThEpD2Z+iRjMKJfPuAiFBHpV6ZOEbzVYEQfjMVP1tu7CEVE+ns34KMGJHp/LoDX34qI9D/lq0iTfMLARO8mANnZd/naaxER6XEcIETvXO9kPBGRuiUpvm2Aogd3Ad7hYhMRqd0kYGKPGp+2Rhuk+TkeA4iI1DXODmDp3FDtuRcRkTrfESi6BiyW4C7Au1xcIiJ1T7VboDpK1cDFIim+4TGAiEhT0hk/0CFCLI44oVw+ek8XlYhIk5JkxxrAWPA6gM7E/i4mEZGmpbx9m+YrDWTMfx1A9noXkohIU1O+WS0pzjegMQ+fdwGJiDQ9newBcSIwblBjDr4fTh3ZzsUjItKGJPnjq+NeDW7MvBDw4jhxvJeLRkSkTUmLI2Inf7tBji3Iw4rx3V0sIiJtTDd7g4kAd+G3oZM90kUiItLmJMV7DHj8mRtDtzjIxSEiMghJs6MNfPzhLICkONRFISIyWHcElhkAB165WPQQF4OIyCCmm59oIBxY10RPcRGIiAz2HYH3WCw4cH4X0uxJGr+IiITQLV4RB4abDY4D4Vehkz1OoxcRkT+mkz2z+oRokGyz/wrJ6F4au4iIbO6OwL6OGG6tb4WVI7to5CIictdZufZBccA4z6DZKh8Nyya31rhFRGTmDF+ybRw4TjV4Nt5N0Rs1aBERmXuGspdObyUzoDbP5RYAiojIwpKMPrx6s5xBtUnSMLxhZ41XREQWnnT9TnFg+UK0yQBba78P3exvNFgREVmCuwLFoXGgGTPY1tKPQnf8oRqpiIgsXZav2zEk2clx0Nlo4K3J6X9JcZTV/yIi0rsM5U+NA9AvDMJ9dWZIJvbQGEVEpPfpZNuHNP/vcTC61oDcU2tCd+y5GqCIiPQ/6Zrd4sD0meg2A/SSuir6QBie2EGjExGReqXaTpgP20Ww6K6v1mF0sntpZCIiUu8MjT8tpPk5Bu8Fu6U6uXH12P01KhERaVbS8SfGT7BfspNgHvv9k+wT8ZP/3hqRiIg0O+VgNrWt0BHEWzYWkuKYsKrYVaMREZF25bSJe8fJwLG2Fv6Z8tFJ+Z4Ge/1FRGQg0i32nb478JsBHfzzqZ9/9OEag4iIDGbK1xZPva3wa9Ovvm3zwL8uTn5OqdZKiIiIyJ+kOpI4f0FIs0/GX69owaC/Mf4sF8RfT4q/PiMMT26jkkVERGaTNH9I6GbvCEnxjTiQbmjIwJ9Fnw9pcUS1BkJEREQWISvGd4+D64tDkh1fnZvfzdf3/fZ+dX5//H7K72sof6BKEhER6VWS0b1Ct3h26GZvmJ4cnB59N/7zL+OvNy98v35+SfStkGbL46/Hxb/rdaE79vSwfPSeCl9ERKTOKffcd7IHhBXFPmFo7LGhM35gSIpDoxdVt+zT/IXVv5eL9cr/X35decdheMPOCk9EBiH/DytdnIA7HZ+8AAAAAElFTkSuQmCCwETvJgDZ2Xf52msREelxHCBE71zvZDwRkbolKb5tgKIHdwHe4WITEandJGBijxqftkYbpPk5HgOIiNQ1zg5g6dxQ7bkXEZE63xEougYsluAuwLtcXCIidU+1W6A6StXAxSIpvuExgIhIU9IZP9AhQiyOOKFcPnpPF5WISJOSZMcawFjwOoDOxP4uJhGRpqW8fZvmKw1kzH8dQPZ6F5KISFNTvlktKc43oDEPn3cBiYg0PZ3sAXEiMG5QYw6+H04d2c7FIyLShiT546vjXg1uzLwQ8OI4cbyXi0ZEpE1JiyNiJ3+7QY4tyMOK8d1dLCIibUw3e4OJAHfht6GTPdJFIiLS5iTFewx4/JkbQ7c4yMUhIjIISbOjDXz84SyApDjURSEiMlh3BJYZAAdeuVj0EBeDiMggppufaCAcWNdET3ERiIgM9h2B91gsOHB+F9LsSRq/iIiE0C1eEQeGmw2OA+FXoZM9TqMXEZE/ppM9s/qEaJBss/8KyeheGruIiGzujsC+jhhurW8=;" vertex="1" parent="1">
          <mxGeometry x="-406.5" y="340" width="83" height="58.41" as="geometry" />
        </mxCell>
        <mxCell id="4sYesMDpXX-5hcElLDRR-207" value="" style="rounded=0;whiteSpace=wrap;html=1;" vertex="1" parent="1">
          <mxGeometry x="60" y="410" width="120" height="420" as="geometry" />
        </mxCell>
        <mxCell id="4sYesMDpXX-5hcElLDRR-208" value="" style="sketch=0;points=[[0,0,0],[0.25,0,0],[0.5,0,0],[0.75,0,0],[1,0,0],[0,1,0],[0.25,1,0],[0.5,1,0],[0.75,1,0],[1,1,0],[0,0.25,0],[0,0.5,0],[0,0.75,0],[1,0.25,0],[1,0.5,0],[1,0.75,0]];outlineConnect=0;fontColor=#232F3E;fillColor=#7AA116;strokeColor=#ffffff;dashed=0;verticalLabelPosition=bottom;verticalAlign=top;align=center;html=1;fontSize=12;fontStyle=0;aspect=fixed;shape=mxgraph.aws4.resourceIcon;resIcon=mxgraph.aws4.s3;" vertex="1" parent="1">
          <mxGeometry x="90.5" y="430" width="49.5" height="49.5" as="geometry" />
        </mxCell>
        <mxCell id="4sYesMDpXX-5hcElLDRR-209" value="S3 - camadas x" style="text;html=1;align=center;verticalAlign=middle;whiteSpace=wrap;rounded=0;" vertex="1" parent="1">
          <mxGeometry x="63.75" y="380" width="110.5" height="30" as="geometry" />
        </mxCell>
        <mxCell id="4sYesMDpXX-5hcElLDRR-210" value="" style="rounded=0;whiteSpace=wrap;html=1;" vertex="1" parent="1">
          <mxGeometry x="470" y="410" width="120" height="420" as="geometry" />
        </mxCell>
        <mxCell id="4sYesMDpXX-5hcElLDRR-211" value="" style="rounded=0;whiteSpace=wrap;html=1;" vertex="1" parent="1">
          <mxGeometry x="259" y="410" width="120" height="421" as="geometry" />
        </mxCell>
        <mxCell id="4sYesMDpXX-5hcElLDRR-214" value="Glue job Generico" style="text;html=1;align=center;verticalAlign=middle;whiteSpace=wrap;rounded=0;" vertex="1" parent="1">
          <mxGeometry x="293.3" y="660.5" width="60" height="30" as="geometry" />
        </mxCell>
        <mxCell id="4sYesMDpXX-5hcElLDRR-218" value="GlueJob" style="text;html=1;align=center;verticalAlign=middle;whiteSpace=wrap;rounded=0;" vertex="1" parent="1">
          <mxGeometry x="289" y="380" width="60" height="30" as="geometry" />
        </mxCell>
        <mxCell id="4sYesMDpXX-5hcElLDRR-219" value="&lt;br&gt;S3 - SOR" style="text;html=1;align=center;verticalAlign=middle;whiteSpace=wrap;rounded=0;" vertex="1" parent="1">
          <mxGeometry x="470" y="380" width="110.5" height="30" as="geometry" />
        </mxCell>
        <mxCell id="4sYesMDpXX-5hcElLDRR-220" value="" style="sketch=0;points=[[0,0,0],[0.25,0,0],[0.5,0,0],[0.75,0,0],[1,0,0],[0,1,0],[0.25,1,0],[0.5,1,0],[0.75,1,0],[1,1,0],[0,0.25,0],[0,0.5,0],[0,0.75,0],[1,0.25,0],[1,0.5,0],[1,0.75,0]];outlineConnect=0;fontColor=#232F3E;fillColor=#8C4FFF;strokeColor=#ffffff;dashed=0;verticalLabelPosition=bottom;verticalAlign=top;align=center;html=1;fontSize=12;fontStyle=0;aspect=fixed;shape=mxgraph.aws4.resourceIcon;resIcon=mxgraph.aws4.glue;" vertex="1" parent="1">
          <mxGeometry x="275.9" y="556.2" width="88.8" height="88.8" as="geometry" />
        </mxCell>
        <mxCell id="4sYesMDpXX-5hcElLDRR-224" value="" style="sketch=0;points=[[0,0,0],[0.25,0,0],[0.5,0,0],[0.75,0,0],[1,0,0],[0,1,0],[0.25,1,0],[0.5,1,0],[0.75,1,0],[1,1,0],[0,0.25,0],[0,0.5,0],[0,0.75,0],[1,0.25,0],[1,0.5,0],[1,0.75,0]];outlineConnect=0;fontColor=#232F3E;fillColor=#7AA116;strokeColor=#ffffff;dashed=0;verticalLabelPosition=bottom;verticalAlign=top;align=center;html=1;fontSize=12;fontStyle=0;aspect=fixed;shape=mxgraph.aws4.resourceIcon;resIcon=mxgraph.aws4.s3;" vertex="1" parent="1">
          <mxGeometry x="95.25" y="520.5" width="49.5" height="49.5" as="geometry" />
        </mxCell>
        <mxCell id="4sYesMDpXX-5hcElLDRR-225" value="" style="sketch=0;points=[[0,0,0],[0.25,0,0],[0.5,0,0],[0.75,0,0],[1,0,0],[0,1,0],[0.25,1,0],[0.5,1,0],[0.75,1,0],[1,1,0],[0,0.25,0],[0,0.5,0],[0,0.75,0],[1,0.25,0],[1,0.5,0],[1,0.75,0]];outlineConnect=0;fontColor=#232F3E;fillColor=#7AA116;strokeColor=#ffffff;dashed=0;verticalLabelPosition=bottom;verticalAlign=top;align=center;html=1;fontSize=12;fontStyle=0;aspect=fixed;shape=mxgraph.aws4.resourceIcon;resIcon=mxgraph.aws4.s3;" vertex="1" parent="1">
          <mxGeometry x="95.25" y="607.5" width="49.5" height="49.5" as="geometry" />
        </mxCell>
        <mxCell id="4sYesMDpXX-5hcElLDRR-226" value="" style="sketch=0;points=[[0,0,0],[0.25,0,0],[0.5,0,0],[0.75,0,0],[1,0,0],[0,1,0],[0.25,1,0],[0.5,1,0],[0.75,1,0],[1,1,0],[0,0.25,0],[0,0.5,0],[0,0.75,0],[1,0.25,0],[1,0.5,0],[1,0.75,0]];outlineConnect=0;fontColor=#232F3E;fillColor=#7AA116;strokeColor=#ffffff;dashed=0;verticalLabelPosition=bottom;verticalAlign=top;align=center;html=1;fontSize=12;fontStyle=0;aspect=fixed;shape=mxgraph.aws4.resourceIcon;resIcon=mxgraph.aws4.s3;" vertex="1" parent="1">
          <mxGeometry x="95.25" y="686.75" width="49.5" height="49.5" as="geometry" />
        </mxCell>
        <mxCell id="4sYesMDpXX-5hcElLDRR-227" value="" style="sketch=0;points=[[0,0,0],[0.25,0,0],[0.5,0,0],[0.75,0,0],[1,0,0],[0,1,0],[0.25,1,0],[0.5,1,0],[0.75,1,0],[1,1,0],[0,0.25,0],[0,0.5,0],[0,0.75,0],[1,0.25,0],[1,0.5,0],[1,0.75,0]];outlineConnect=0;fontColor=#232F3E;fillColor=#7AA116;strokeColor=#ffffff;dashed=0;verticalLabelPosition=bottom;verticalAlign=top;align=center;html=1;fontSize=12;fontStyle=0;aspect=fixed;shape=mxgraph.aws4.resourceIcon;resIcon=mxgraph.aws4.s3;" vertex="1" parent="1">
          <mxGeometry x="95.25" y="767" width="49.5" height="49.5" as="geometry" />
        </mxCell>
        <mxCell id="4sYesMDpXX-5hcElLDRR-228" value="Account" style="text;html=1;align=center;verticalAlign=middle;whiteSpace=wrap;rounded=0;" vertex="1" parent="1">
          <mxGeometry x="84.75" y="479.5" width="60" height="30" as="geometry" />
        </mxCell>
        <mxCell id="4sYesMDpXX-5hcElLDRR-229" value="Oportunities" style="text;html=1;align=center;verticalAlign=middle;whiteSpace=wrap;rounded=0;" vertex="1" parent="1">
          <mxGeometry x="90.25" y="570" width="60" height="30" as="geometry" />
        </mxCell>
        <mxCell id="4sYesMDpXX-5hcElLDRR-230" value="Prospect" style="text;html=1;align=center;verticalAlign=middle;whiteSpace=wrap;rounded=0;" vertex="1" parent="1">
          <mxGeometry x="90.5" y="655.5" width="60" height="30" as="geometry" />
        </mxCell>
        <mxCell id="4sYesMDpXX-5hcElLDRR-231" value="Contact" style="text;html=1;align=center;verticalAlign=middle;whiteSpace=wrap;rounded=0;" vertex="1" parent="1">
          <mxGeometry x="89" y="736.25" width="60" height="30" as="geometry" />
        </mxCell>
        <mxCell id="4sYesMDpXX-5hcElLDRR-232" value="Interatcty" style="text;html=1;align=center;verticalAlign=middle;whiteSpace=wrap;rounded=0;" vertex="1" parent="1">
          <mxGeometry x="90.5" y="808.5" width="60" height="30" as="geometry" />
        </mxCell>
        <mxCell id="4sYesMDpXX-5hcElLDRR-233" value="" style="sketch=0;points=[[0,0,0],[0.25,0,0],[0.5,0,0],[0.75,0,0],[1,0,0],[0,1,0],[0.25,1,0],[0.5,1,0],[0.75,1,0],[1,1,0],[0,0.25,0],[0,0.5,0],[0,0.75,0],[1,0.25,0],[1,0.5,0],[1,0.75,0]];outlineConnect=0;fontColor=#232F3E;fillColor=#7AA116;strokeColor=#ffffff;dashed=0;verticalLabelPosition=bottom;verticalAlign=top;align=center;html=1;fontSize=12;fontStyle=0;aspect=fixed;shape=mxgraph.aws4.resourceIcon;resIcon=mxgraph.aws4.s3;" vertex="1" parent="1">
          <mxGeometry x="500.5" y="428.5" width="49.5" height="49.5" as="geometry" />
        </mxCell>
        <mxCell id="4sYesMDpXX-5hcElLDRR-234" value="" style="sketch=0;points=[[0,0,0],[0.25,0,0],[0.5,0,0],[0.75,0,0],[1,0,0],[0,1,0],[0.25,1,0],[0.5,1,0],[0.75,1,0],[1,1,0],[0,0.25,0],[0,0.5,0],[0,0.75,0],[1,0.25,0],[1,0.5,0],[1,0.75,0]];outlineConnect=0;fontColor=#232F3E;fillColor=#7AA116;strokeColor=#ffffff;dashed=0;verticalLabelPosition=bottom;verticalAlign=top;align=center;html=1;fontSize=12;fontStyle=0;aspect=fixed;shape=mxgraph.aws4.resourceIcon;resIcon=mxgraph.aws4.s3;" vertex="1" parent="1">
          <mxGeometry x="500.5" y="520.5" width="49.5" height="49.5" as="geometry" />
        </mxCell>
        <mxCell id="4sYesMDpXX-5hcElLDRR-235" value="Account" style="text;html=1;align=center;verticalAlign=middle;whiteSpace=wrap;rounded=0;" vertex="1" parent="1">
          <mxGeometry x="495.25" y="480" width="60" height="30" as="geometry" />
        </mxCell>
        <mxCell id="4sYesMDpXX-5hcElLDRR-236" value="Oportunities" style="text;html=1;align=center;verticalAlign=middle;whiteSpace=wrap;rounded=0;" vertex="1" parent="1">
          <mxGeometry x="500" y="577.5" width="60" height="30" as="geometry" />
        </mxCell>
        <mxCell id="4sYesMDpXX-5hcElLDRR-237" value="" style="sketch=0;points=[[0,0,0],[0.25,0,0],[0.5,0,0],[0.75,0,0],[1,0,0],[0,1,0],[0.25,1,0],[0.5,1,0],[0.75,1,0],[1,1,0],[0,0.25,0],[0,0.5,0],[0,0.75,0],[1,0.25,0],[1,0.5,0],[1,0.75,0]];outlineConnect=0;fontColor=#232F3E;fillColor=#7AA116;strokeColor=#ffffff;dashed=0;verticalLabelPosition=bottom;verticalAlign=top;align=center;html=1;fontSize=12;fontStyle=0;aspect=fixed;shape=mxgraph.aws4.resourceIcon;resIcon=mxgraph.aws4.s3;" vertex="1" parent="1">
          <mxGeometry x="505.25" y="607.5" width="49.5" height="49.5" as="geometry" />
        </mxCell>
        <mxCell id="4sYesMDpXX-5hcElLDRR-238" value="Prospect" style="text;html=1;align=center;verticalAlign=middle;whiteSpace=wrap;rounded=0;" vertex="1" parent="1">
          <mxGeometry x="500.5" y="660.5" width="60" height="30" as="geometry" />
        </mxCell>
        <mxCell id="4sYesMDpXX-5hcElLDRR-239" value="" style="sketch=0;points=[[0,0,0],[0.25,0,0],[0.5,0,0],[0.75,0,0],[1,0,0],[0,1,0],[0.25,1,0],[0.5,1,0],[0.75,1,0],[1,1,0],[0,0.25,0],[0,0.5,0],[0,0.75,0],[1,0.25,0],[1,0.5,0],[1,0.75,0]];outlineConnect=0;fontColor=#232F3E;fillColor=#7AA116;strokeColor=#ffffff;dashed=0;verticalLabelPosition=bottom;verticalAlign=top;align=center;html=1;fontSize=12;fontStyle=0;aspect=fixed;shape=mxgraph.aws4.resourceIcon;resIcon=mxgraph.aws4.s3;" vertex="1" parent="1">
          <mxGeometry x="505.25" y="690.5" width="49.5" height="49.5" as="geometry" />
        </mxCell>
        <mxCell id="4sYesMDpXX-5hcElLDRR-240" value="Contact" style="text;html=1;align=center;verticalAlign=middle;whiteSpace=wrap;rounded=0;" vertex="1" parent="1">
          <mxGeometry x="500" y="740" width="60" height="30" as="geometry" />
        </mxCell>
        <mxCell id="4sYesMDpXX-5hcElLDRR-241" value="" style="sketch=0;points=[[0,0,0],[0.25,0,0],[0.5,0,0],[0.75,0,0],[1,0,0],[0,1,0],[0.25,1,0],[0.5,1,0],[0.75,1,0],[1,1,0],[0,0.25,0],[0,0.5,0],[0,0.75,0],[1,0.25,0],[1,0.5,0],[1,0.75,0]];outlineConnect=0;fontColor=#232F3E;fillColor=#7AA116;strokeColor=#ffffff;dashed=0;verticalLabelPosition=bottom;verticalAlign=top;align=center;html=1;fontSize=12;fontStyle=0;aspect=fixed;shape=mxgraph.aws4.resourceIcon;resIcon=mxgraph.aws4.s3;" vertex="1" parent="1">
          <mxGeometry x="505.25" y="767.75" width="49.5" height="49.5" as="geometry" />
        </mxCell>
        <mxCell id="4sYesMDpXX-5hcElLDRR-242" value="Interatcty" style="text;html=1;align=center;verticalAlign=middle;whiteSpace=wrap;rounded=0;" vertex="1" parent="1">
          <mxGeometry x="500" y="808.5" width="60" height="30" as="geometry" />
        </mxCell>
        <mxCell id="4sYesMDpXX-5hcElLDRR-243" value="" style="shape=image;verticalLabelPosition=bottom;labelBackgroundColor=default;verticalAlign=top;aspect=fixed;imageAspect=0;image=data:image/png,iVBORw0KGgoAAAANSUhEUgAAAgEAAAFpCAYAAAAFqfvLAAAeP0lEQVR42u3dCZglRYEn8ACUWxQPVBBEHE/ACxkP8EDxHB0FRXe88L4dcNSBcWUaB9hBVxfFY2yleS+zuhstzxkcF/FgZFWEZZRBQLC6KjOr2rZtEJH7aLo2MqtWRZqu+73MfL//9/2+5qjuroqIjIiXGREZgoiIiIgMYE6buHdYUewThvInhG5xQEjG/jIkxaF/4uDqv5fKr1s19uCQrt9JwYmIiNQ5p6/ZM6TZM0KSHRkdH/85iYP6D0I3vzQk+W+ijdHkPN0Q5dFPojOjz8eJwt/HXw8L6fh+oZNtrwJERESWOudM3i0OvE+Mg/Bb4wD/6WqgT/KrFzDAL4ZNURHS/JvVBCQpXhRWj91fZYmIiCwkKy6/RxxcXxidEJ0TB9vr+zzgz0ExHr/nr0TvCkNjj1CZIiIiM6Uzsf/07fbvR7c2Z9Cf0UT8uTpxcvCacPrI/VS0iIjI5ORWYSh/akiyT1Sfntsz6G9JuUbhe9E7Qyd7gEYgIiKDlWqFfv7xARr478rtoZudG8vhPdUOBhERkVZm5cgu04v6/nPAB/67cnM0XG1ZLO+QiIiIND5Te/M709vtDPazMxKS7NiQrL2PBiQiIs1K+Um2OoSn2ltvUJ+/60OaLQ+d0YdpVCIiUu+Ue/mT/I3RLwzgi+q2aFXoZI/TyEREpF4ZntwmpMVrp25jG7SXVDf/eugW+2p0NZn0LpvcWkGIyGCmvO2fFkfEwekyA3SvtxkW3eodB7I4WX7h3cPQxF+EoeI5IcneFsv3n6u1LN3s32J5/zj+t19On1B5dbWr4851cs30/xsLaT4af//507/3M9FxIc1eH7pjzw2d7JHV5EFEpNEpj/BN8h8akPu9oyD7hO2Fc0x5PkOSv2Bq8WX2pfjPVyzwHRNzdUv0s2goThaOmfpeJvZQMSJS/wzlD6wWq/W202TL4ifQ4ii3pu8iK8Z3r+5Yle126sVSm2paj+uqbaLlVto0f4iKE5H6pBxgkvzd0bUG3dr6URgae+zAt9VTR7aLA/7zpl40lWcNrs+x6Avx5/ir6mcSEelLVhaPrgYYg2wzdhJ0i1NCun6ngWqj5Wudu/nLqhc3NeplU7P2+2h1SIqXD1zdikifUr2+t/jH6dPsDLCNO3Aof0r7704Vh04fRnXNANXtjXHCc0ac8DzL6ZIislSfrPa28K8F7yZIs0+27lZyJ7vX9BHUl6rjcrJXHBPSNbvptERkcZLmb4qdy3U62Nb4WUjH92t8uyzXO5RbI5P8JnW6uR0H2ZeqXTsiIvNK+ZKfqWeqOtU23kJOsiMb2S67Y0+P3/+3aryqv2aKs6oyExGZfUdb7Du9X1on2mblNrmmPB6oDu4pD+pRb/P0wzipf6F1AyKy5STZSwZsYdWgHz38n7Xeh94ZPzB+n99VV4t2Z+D8OMk/SEcnIndMubq6m33EbdaBdFXoZM+sVXtcUewTv68va49LYlP1EqpkdC8dn4iEMDyxg+f/FpOFbv7qWrTFJDvegr+ebS88MQxv2FknKDKoKbcTJfl5OkSmPyF+sM+PosbUQ88VoZM9X2coMmjpjD5s6i1nOkLu4As9fbvd6nX3DUnxReXe9/UC3bCq2FXHKDIQdwDG94sX/q91fGxe9q892TmQ5ofHv+83yrs2fl3ViYi0ON3igHixX6nDYwb/Xp3DvxQpz6GoFqcp55oaslZApJ0TgINsAWQOt4i/XS3WW9y7UE+Mf/YaZVt7l4dk7DE6TZG2JMkfH/1O58YcJwI/WJRPheVBNUlx1NSxtsq1IW6q6kxEGp7qrPX8ap0a8/SdMHzJtvP/9L9+p+l9/8qykadL5iu9tliksXcARh9uESCLcLrg18Pw5DZzbn8r1z4o/v4LlWHjXRROX7OnDlWkSSkv2iRfqwNjkXxqTu1v6oU/G5Rbax4NjVsnINKUrLj8HtXsXefF4t4R+NDsHgFU2/+c/Nc+14W0eLEOVqTOWX7h3UM3O1uHxZKcLJhmr9/yI6hqAeDtyqq1NoYke5uOVqS26wDyFToqltDNoZM9+U7trtoBkJ2sfAZmMni0zlakbikvTB0UvThdLpnY4w4TgDT7pHIZOMfpdEXqkqH8qfZh00PnVccLV3cA8k8pj4E9Zvpkna9I3x8BxE9l3Xy9DokeLxQ8LXSLf1EWA3+WwAk6YZF+pVwImOQ/1hkBffR3OmORvtwFyE/SAQF9XyyYZEfqkEV6OgEoDp7asqMTAvru1tDJnq9jFunJY4DRe8aLLtfxADVyQ/QUHbTIUqd8sYcOB6jfgtH11XsjRGTJJgAv1NkANfbTMDyxg85aZLGzcmSXqZd56GiAOm8dzBIdtsji3wX4rA4GaMhE4O06bZHFytSpgF7OAjTFLRYKiixGlk1uHS+mC3UqQMOMVY8xa3t3df1OYdXYg0Nn/MD4vb4gpMVrp97DUhwzdQ5LdnLo5h+L/235H5V3ZMsXZlWOn/7aN0eHhe7Y00O32DesHrt/GJ7cxuAli5Mkf6POBGjmjoGi09f+s5PtPTXA5++Kv348+lp0UfT7JT87Ic1H46/fnTpmO/9Q6GZ/E5Kxx1SnvYrMKisuv8fUm9t0JkBjHbbkfWX5yXto7LHx0/rr48TjlDgAnxP/3qtre7jS1ERkKPpAnKg8Myxft6MBTzZzF8B72oHGuzIOdA9Y3EH/km3jYH9Q7COPjX/+v0fXNLyMbgtJcX41genmL6seKcjALwZ84PQpXDoRoOG7BfJvLvzOaLFPHCT/NnSzs+OfeWP738mQXxgnBCdWC8OtMRjItQCn6jyAFq0PeMWc+sDJya2mdkZVd0QvGfDy+22cEJwRJ1OHO4xpICYAo3vFSr9ZxwG0yLrq3SczrtrPHzW18j5fo8w2q7wLcmZIiyOqxyLSwpRbUTR0oH3vF/jY5vu8NbvFwf998Wt+ppzmpFz8+KnQmdjfwNmaHQHju08ftKGBA21zW7WK//+nWxww/aHnRmWzYBfG8nxrGN6ws4G00Y8Cin/WmIH23g3Izp0+/8QhaEuj3CnxP73RsZGPAdbvFCvvKo0YgEU4j2C4OhFRGpJy+4uGC8Cibjcszgqd7MkG2Tpn6h0BVsMCsFTOjJOBxxlw67kW4FANFIAeHET05WorptTqcKBhjROAnu3UKHdmrF53XwNwv1NWgsOBAOjHaYRJcZSjifu6IDB/v4YIQB9dVB3TLH15FHCRBghA39cLlI8IytfYS48yNPYIDQ+AGvlVSLKXGKB7cxfgOA0OgNrpFp2wcmQXA/XSTgIu0dgAqKk8JMXBBuulSCd7pAYGQO23E3bzD9lBsOi7ArL3alwANEPxg+pNt7Jok4CzNSoAGmRDdIgBfKGZemPgTRoUAI17PJAUxxjIF7QgsHiRhgRAo3cPdLLtDejzehRQnKIRAdBw/ycka+9jUJ/z44DsAo0HgBZYE5LRhxvYZ5vhiR1iod2i4QDQEleFbnGQAX5WjwLGnq7BANAyN0QvMMjPuCgwO1ZjAaCFbglD2UsN9FtcD5B/RUMBoKU2hm7xOoP9Xb8v4AqNBIBWTwSS/I0G/M0vCtyogQDQcptCmr/JwH+HlwaNH6hhADAwdwTS4giD/x/fF/AGjQKAAXJz6I491wRgaj3ASRoEAIO3fbA42CQgyVdpDAAMoN+GobFHDPok4EcaAgADaiyka3Yb5EnArzQCAAZXcX5Yvm7HAdweeMm2sQBu1wAAGGjd/IwwObnVgN0FmNhD5QNAdUfgmAGbBIw9RqUDQOX2wdo6mOSHqHQA+IPfhJVrHzQgk4Di5SocAO7gJ+HUke0G4O2BxVtUNgDcaaHgxwbgyODib1U2AGxufUDx7JZPAvL3q2gA2Ky1IVl7nza/POgfVDIA3KWvtnlNwD+qYADY4vkBr2npJCA/QeUCwBZdGU4fuV8Ltwhmx6tcAJhR2sbDgj6oYgFgNtsG23aaYJq/T8UCwCyk+Wi73jbonAAAmMPdgOzDbVoT8DaVCgCzdmNYNfbgtjwOeJUKBYA5WdWSSUD2PJUJAHOyKSTFwc2fBAzlT1CZADBn54XJya0aviZgdC8VCQDz2S1QvLjZk4DhiR1UJADMy09bcDcgv1ZFAsC8HNb0bYIXq0QAmJefh2WTWzd4ElB8QyUCwHzXBuSHN/nUwFNUIgDMdxKQXeDoYAAYXE9p6sLAF6g8AFiQLzd0EjCxh8oDgAXZGLrjD23q3YArVSAALGiB4P9q6iTguyoQABbkqnDqyHZNnAR8XOUBwAJ1i1c0cIdA/mqVBwALnQRkZzdvEtDJ9lZ5ALBgm5q5QDApxlUeACxUsayJ6wJWqzgAWLDLG7guIHuHigOAxdguOL5f09YFPFLFAcCi+KcmPhIYUXEAMIiPBJL8VBUHAIugM7F/syYBafY8FQcAi7JL4JhmTQLK4w6T/FoVBwAL9v0mPhIYVnEAsGC3hBWX36Npk4DDVBwALILu+F838ZHA71QeACz0vID8s018odBpKg8AFuyy5k0C0vxZKg4AFmxTOG3i3s2aBExObhW/8StUHgAsdF1A/ldNfCTwfpUHAAt2UvMmAauKXeM3foPKA4AF+Y/QyCRFV+UBwIJcH5ZNbt2sCUD5DXezj6g8AFigzujDGvRa4Yn94zf9YxUHAItyXsDh9R/8hyd2CEl2fCiPOlRpALBIimX1ngAMjT8tfqMjKgoAFv1OwFdq+ul/cptqhpLkG1UUACyJK+o3ATh9zZ5xAvADlQMAS+rW6kN3fW7/Zy+N39RvVQwA9ED5wbseRwIXx8Rv6HaVAgA9Uq696+/Wv2z7+I0MqQwA6PXiwOK1/ZsArBjfPaTZBSoCAPriuD4d/zv2mPiXr1UBANA3X+jD2wCLA+JffJXCB4C++lo/DgD6vYIHgD7rZuf28BFAfkh0nYIHgDpMAvJLezMBSPMXxr/wZoUOALWZBKzvxRqAg+JfdoMCB4BaubUXrwC+WkEDQA0t3R2A8YfGv2CdQgaAQZoEpGt2C2k+qoABYJAmAcsvvHucAJyjcAFg0CYBSf4ZBQsAgzYJSPM3KVQAGLRJQJI/xVkAADBok4Dlo/eMf1imQAFg0CYBSb5KYQLAoE0CkuLlChIABm0SsHLtg4ITAQFgwCYBk5NbxT/g+woRABpp00JeDPQ6BQgAjXX1/CYAq4pd42/+jQIEgMYame9iwM8pPABotJ/M4/XA4wfG33i7wgOABkvzb85jMWBxvsIDgMZL5/pugMMVGgC0QDf7yOwnAMOT28TfdJmCA4A2PA7I3u4NgQAwiDrZ82e5GDDbPv6GQqEBQEsMjT1ilgcDZe9QYADQGpvC8MQOM08Alk1uHb/4CgUGAK2xbnZ3AYaylyosAGjVzoCzZ/so4FwFBgBtmgTkH5vFjoDxJyosAGib7MhZTAKyREEBQNvuBBQHzHA40Iad4xdep7AAoFU2zrwzoJu9QUEBQOseBVw8m9cF/0BBAUDLpPlnZzohcO/qIAGFBQBt2xnw6hnuAuTHKSgAaKEVxT4zTQIuVFAA0Dq/2vIEYMX47h4FAEArFwV+aYa7ANnbFBIAtHJR4JtmOCAo/6aCAoAWOn3Nnls4IGhih/hFNygoABi08wGS/BCFBABt3BqYfWSGUwLzDykoAGilQ2Y6JfAshQQArXNlOGfybnc9AVg2uXX8omsUFAC07VFA8S8zHRX8OAUFAK3cGvisGdYDFG9VUADQtrsA+fowPLnNTIcEfUJhAUDr7gJ8duZXB3ezsxUWALRMJ3vyzJOAJF+rsACgVX4+8wRg5cguwUuDAKBljwKyo2eeBKTZkxQWALTKzWH1uvvO4lFA9kqFBQCt2hVwRphVytsFCgwAWqQ4eHaTgPKlAgoMANqyFuCCMOskearQAKAtk4DiiLlMAr6j0ACgFbItvyzozpOAixQaALRiLcBRYU5J8hGFBgCNtyEMb9h5rpOACQUHAI1fEHh0mHPKmYPCA4AmWxeGJ3aYzyTgWoUHAE2+C5C/K8wrSX6LAgSAxirCqSPbzXcScLsCBIDG3gV4VZh3ypcMKEQAaKLzwuTkVguZBFgTAADNsykkY38ZFpQkv1JBAkDjtgQmYcFJ8rUKEwAa5fchmdhj4ZOAbn6pwgSAQdgSeOdXCZ+rQAGgMX4Shie3WaRJQP51BQoAjXBbGBp7bFi0dPPTFCoANOIxwAlhUdPNT1SwAFB7Pw3Dl2y7uJOAtHiLggWAWrspdCb2D4ueoeI5ChcAau2dYUnSGX2YwgWA2q4D+N8LOxp4SynfPJTkGxU0ANTO2pCu2S0saZL8FwoaAGrl1pAUB4clT5IPK2wAqNVjgHeFniTJj1PgAFAbq0PPkmQvUeAAUAs/C8vX7di7ScDqsfsrdADou1+F09fsGXqeJB9T+ADQN9eFTva40Jek+UoVAAB9sTF0x/869C3laUQqAQD6sBMge3voa9L8USoCAHotOzbUItYFAEDvdItTQm2SZstVCgD0xGdCrZLkh6kUAFhyK8Kyya3rNQkY3rBz/MZuVDkAsGQ+tXRvBVz43YCvqiAAWIo1ANlHQq2TZv9NRQHAou8CODnUPh4JAMBi2hjKs3gak25+hkoDgAW7PiTFi0KjkhSHqjgAWJBfh3T8iaFxKbctpPmoCgSAeT3/vzh0sr1DY9PNP6QSAWCuii+GdP1OodFJ1+wWf5ibVCYAzHYBYHFMfc8AmPuZAaerVACY0YbokNCqpOP7xR9qk8oFgLv03bBifPfQynSzs1UwANzJLSHN39ee2/+b3y54sIoGgDv4RRjKnxAGIkn+PRUOAPltIc0+2fzV/3PJUP5UFQ/AgPuv0Bk/MAxkkuIsDQCAAXRjSLJjwzmTdwsDm5XFo6vbIBoDAIPjzJDmDwlS3Q34nAYBwAC4LKTZ8wz8dz5F8BqNA4CWWhcH/7eH4cltDPqbnQhkR2skALTMlaGbvz8sX7ejgX6mNwwm+Y81GABa4NqQZCeH5aP3NMDPem3A2GNiwd2q8QDQSN18fRz8jw+ril0N6vOaCMSZk4YEQLP8PI5fR4bhS7Y1kC8kp45sVx2coEEBUG/lneuvVqv9W33Of3/ODrhRAwOghkaqW/6nr9nTgL10bxl8r4YGQG1W+afZ8tDJnulTf+92C5yp4QHQJ78L3aITB/7nD/bRvv1KJ7tXrIQ1GiIAPZHmo9Xb/JLi0GqNmvR7t0D++OgmjROAJVBEq+In/rd6xl/b9QHF6zRUgNqukL+6Id9rueD8/4Zu/un4if9VBv1GHSucn+BiA6jb7fPif0zdtZ3Yo9oql+QfiL8m1WBbLqbrz/d1fbVvv5t/PToxfo9HhKGxRzi3v8kpV2N28zNcdAC1kc94Jn66fqfQLfYNSfGi+PXvDt3sw9Un8an+/DvRz6rn8OWfNXVHoXTL9J9/+5/8t7XV13XzS+OfcW78969FX6gmIUn+dyHJXhknH0+qXkgnrV0ouP105bv4APptKHupgUl6fJDQyC7Tt5lcgAB9U5xlQJL+ZPW6+1a3hFyIAP1wXUjzhxiMpI9bByf2CEn2SxcjQM+92SAkNbgjMHb/OBG42AUJ0CvZvxp8pD45beLeIc0ucGECLLkN1YcvkdpNBJL8hy5QgCWzKaTFiw04Us+UZzw7RwBgaZSH7ojUOuWBQuU7nl2wAIu5HfDbTtuT5iQt3hIb7s0uXIAFLwT8ZfVGV5FmTQSyJ1XHTLqIAebr2urIX5FGplzFmubnuJAB5uyWkBSHGkikBesEiqPCH19IAcCW3R66xSsMINKedMYPjA17xMUNMIM0O9qgIe3LisvvUb3Ccur1lC50gDv7J4OFtDtD+VNjQ7/MxQ5wh50AJxsgZEAeD2TbT58pcKMLH3AYUPH3BgYZvFRvI8zT6khMHQEwkMcBWwMgg57u2NPjxfBjHQIwWNsAsyMNACJ/uDNQHBovjAt1DkDLXR0dotMX+fOUZwuk+eHxAvmJjgJo5VHAyejDdfYiM2Vo/Gmhm/2bbYVAS3y/ev26iMxlMjDxF9X2mW6+XicCNHQB4CfD8gvvrkMXmW+GL9k2pMURIc2/6ShioCHWxT7rWTpwkcVMeUstzd8UL7DvRLfpaID6Kc4K6ZrddNgiS5l0/U4hLV4c0mx5vPAmdDxAn11TvTxt2eTWOmiRXqbaXTC+X+hm7whpvjJejIUOCejhp/9vhBXju+uMReqSofyBIc2eVx3NOTUxuCi6dok7g5ujK6KvxQnJh0M3f1nojD7MOQjQ4mf/XgEs0qCsXnff6jXH5YWbFO+ZHqw/Hf/5i9NrDaLi/OmB+09N/b80/0r8/5+Lv+fE+HvfG//5NdHB1XHI5R2JzSXJ36yzhFa5vnoXyvCGnXWqIrLlLF+34/RpYTpPaLbbq3eflHcaRURmnSQ/VQcKjbWxultYrj0SEZlzVhaP1pFSc78Lafb66AJlcYd1Pp+vDi8TEVng3YD/0KlSYyf9oa12i4Om1r+Un4AHsiyujD5qxb+ILF7Kkw8NNNTTjZs94KZc8NrN/mF618sgPO//TkiyV4ZTR7bTYYnI4qY8RKSbX2rAoXbKHTJbSrnzpdoFk38+2tCyn/8XIc1PCCuKfXRSIrK0qbYmGnSoldtCJ9t71m14eHKbkGbPiJ+YPxF/b97Qn7nc9vvBOPg/SqckIr29G5DkPzfwUCNDC2rTneyR8c94Z/TV6Lc1/RnXxAl4p1r4mIzupSMSkf7F2gDqdBdgMT8Nl5PcchtdNdjmn4rOq9Yb9PbRxvrq2X63OCX+bK+q1jWIiNTrbkB2sQGIGvhMT9p7+bhhqHhOdcegHJy7+dfjP/8wXge/jL9eN8fvufz6y6LvVQf3JNnJ8dd3xz/32eH0kfvpYESkAXcD8sMNQPT9rXd1GTSHJ3YIq4pdw8q1D6oW6JV3J7rFAdX+/PLfy9eId7J76ThEpD2Z+iRjMKJfPuAiFBHpV6ZOEbzVYEQfjMVP1tu7CEVE+ns34KMGJHp/LoDX34qI9D/lq0iTfMLARO8mANnZd/naaxER6XEcIETvXO9kPBGRuiUpvm2Aogd3Ad7hYhMRqd0kYGKPGp+2Rhuk+TkeA4iI1DXODmDp3FDtuRcRkTrfESi6BiyW4C7Au1xcIiJ1T7VboDpK1cDFIim+4TGAiEhT0hk/0CFCLI44oVw+ek8XlYhIk5JkxxrAWPA6gM7E/i4mEZGmpbx9m+YrDWTMfx1A9noXkohIU1O+WS0pzjegMQ+fdwGJiDQ9newBcSIwblBjDr4fTh3ZzsUjItKGJPnjq+NeDW7MvBDw4jhxvJeLRkSkTUmLI2Inf7tBji3Iw4rx3V0sIiJtTDd7g4kAd+G3oZM90kUiItLmJMV7DHj8mRtDtzjIxSEiMghJs6MNfPzhLICkONRFISIyWHcElhkAB165WPQQF4OIyCCmm59oIBxY10RPcRGIiAz2HYH3WCw4cH4X0uxJGr+IiITQLV4RB4abDY4D4Vehkz1OoxcRkT+mkz2z+oRokGyz/wrJ6F4au4iIbO6OwL6OGG6tb4WVI7to5CIictdZufZBccA4z6DZKh8Nyya31rhFRGTmDF+ybRw4TjV4Nt5N0Rs1aBERmXuGspdObyUzoDbP5RYAiojIwpKMPrx6s5xBtUnSMLxhZ41XREQWnnT9TnFg+UK0yQBba78P3exvNFgREVmCuwLFoXGgGTPY1tKPQnf8oRqpiIgsXZav2zEk2clx0Nlo4K3J6X9JcZTV/yIi0rsM5U+NA9AvDMJ9dWZIJvbQGEVEpPfpZNuHNP/vcTC61oDcU2tCd+y5GqCIiPQ/6Zrd4sD0meg2A/SSuir6QBie2EGjExGReqXaTpgP20Ww6K6v1mF0sntpZCIiUu8MjT8tpPk5Bu8Fu6U6uXH12P01KhERaVbS8SfGT7BfspNgHvv9k+wT8ZP/3hqRiIg0O+VgNrWt0BHEWzYWkuKYsKrYVaMREZF25bSJe8fJwLG2Fv6Z8tFJ+Z4Ge/1FRGQg0i32nb478JsBHfzzqZ9/9OEag4iIDGbK1xZPva3wa9Ovvm3zwL8uTn5OqdZKiIiIyJ+kOpI4f0FIs0/GX69owaC/Mf4sF8RfT4q/PiMMT26jkkVERGaTNH9I6GbvCEnxjTiQbmjIwJ9Fnw9pcUS1BkJEREQWISvGd4+D64tDkh1fnZvfzdf3/fZ+dX5//H7K72sof6BKEhER6VWS0b1Ct3h26GZvmJ4cnB59N/7zL+OvNy98v35+SfStkGbL46/Hxb/rdaE79vSwfPSeCl9ERKTOKffcd7IHhBXFPmFo7LGhM35gSIpDoxdVt+zT/IXVv5eL9cr/X35decdheMPOCk9EBiH/DytdnIA7HZ+8AAAAAElFTkSuQmCCwETvJgDZ2Xf52msREelxHCBE71zvZDwRkbolKb5tgKIHdwHe4WITEandJGBijxqftkYbpPk5HgOIiNQ1zg5g6dxQ7bkXEZE63xEougYsluAuwLtcXCIidU+1W6A6StXAxSIpvuExgIhIU9IZP9AhQiyOOKFcPnpPF5WISJOSZMcawFjwOoDOxP4uJhGRpqW8fZvmKw1kzH8dQPZ6F5KISFNTvlktKc43oDEPn3cBiYg0PZ3sAXEiMG5QYw6+H04d2c7FIyLShiT546vjXg1uzLwQ8OI4cbyXi0ZEpE1JiyNiJ3+7QY4tyMOK8d1dLCIibUw3e4OJAHfht6GTPdJFIiLS5iTFewx4/JkbQ7c4yMUhIjIISbOjDXz84SyApDjURSEiMlh3BJYZAAdeuVj0EBeDiMggppufaCAcWNdET3ERiIgM9h2B91gsOHB+F9LsSRq/iIiE0C1eEQeGmw2OA+FXoZM9TqMXEZE/ppM9s/qEaJBss/8KyeheGruIiGzujsC+jhhurW8=;" vertex="1" parent="1">
          <mxGeometry x="-406.5" y="425.54999999999995" width="83" height="58.41" as="geometry" />
        </mxCell>
        <mxCell id="4sYesMDpXX-5hcElLDRR-244" value="" style="shape=image;verticalLabelPosition=bottom;labelBackgroundColor=default;verticalAlign=top;aspect=fixed;imageAspect=0;image=data:image/png,iVBORw0KGgoAAAANSUhEUgAAAgEAAAFpCAYAAAAFqfvLAAAeP0lEQVR42u3dCZglRYEn8ACUWxQPVBBEHE/ACxkP8EDxHB0FRXe88L4dcNSBcWUaB9hBVxfFY2yleS+zuhstzxkcF/FgZFWEZZRBQLC6KjOr2rZtEJH7aLo2MqtWRZqu+73MfL//9/2+5qjuroqIjIiXGREZgoiIiIgMYE6buHdYUewThvInhG5xQEjG/jIkxaF/4uDqv5fKr1s19uCQrt9JwYmIiNQ5p6/ZM6TZM0KSHRkdH/85iYP6D0I3vzQk+W+ijdHkPN0Q5dFPojOjz8eJwt/HXw8L6fh+oZNtrwJERESWOudM3i0OvE+Mg/Bb4wD/6WqgT/KrFzDAL4ZNURHS/JvVBCQpXhRWj91fZYmIiCwkKy6/RxxcXxidEJ0TB9vr+zzgz0ExHr/nr0TvCkNjj1CZIiIiM6Uzsf/07fbvR7c2Z9Cf0UT8uTpxcvCacPrI/VS0iIjI5ORWYSh/akiyT1Sfntsz6G9JuUbhe9E7Qyd7gEYgIiKDlWqFfv7xARr478rtoZudG8vhPdUOBhERkVZm5cgu04v6/nPAB/67cnM0XG1ZLO+QiIiIND5Te/M709vtDPazMxKS7NiQrL2PBiQiIs1K+Um2OoSn2ltvUJ+/60OaLQ+d0YdpVCIiUu+Ue/mT/I3RLwzgi+q2aFXoZI/TyEREpF4ZntwmpMVrp25jG7SXVDf/eugW+2p0NZn0LpvcWkGIyGCmvO2fFkfEwekyA3SvtxkW3eodB7I4WX7h3cPQxF+EoeI5IcneFsv3n6u1LN3s32J5/zj+t19On1B5dbWr4851cs30/xsLaT4af//507/3M9FxIc1eH7pjzw2d7JHV5EFEpNEpj/BN8h8akPu9oyD7hO2Fc0x5PkOSv2Bq8WX2pfjPVyzwHRNzdUv0s2goThaOmfpeJvZQMSJS/wzlD6wWq/W202TL4ifQ4ii3pu8iK8Z3r+5Yle126sVSm2paj+uqbaLlVto0f4iKE5H6pBxgkvzd0bUG3dr6URgae+zAt9VTR7aLA/7zpl40lWcNrs+x6Avx5/ir6mcSEelLVhaPrgYYg2wzdhJ0i1NCun6ngWqj5Wudu/nLqhc3NeplU7P2+2h1SIqXD1zdikifUr2+t/jH6dPsDLCNO3Aof0r7704Vh04fRnXNANXtjXHCc0ac8DzL6ZIislSfrPa28K8F7yZIs0+27lZyJ7vX9BHUl6rjcrJXHBPSNbvptERkcZLmb4qdy3U62Nb4WUjH92t8uyzXO5RbI5P8JnW6uR0H2ZeqXTsiIvNK+ZKfqWeqOtU23kJOsiMb2S67Y0+P3/+3aryqv2aKs6oyExGZfUdb7Du9X1on2mblNrmmPB6oDu4pD+pRb/P0wzipf6F1AyKy5STZSwZsYdWgHz38n7Xeh94ZPzB+n99VV4t2Z+D8OMk/SEcnIndMubq6m33EbdaBdFXoZM+sVXtcUewTv68va49LYlP1EqpkdC8dn4iEMDyxg+f/FpOFbv7qWrTFJDvegr+ebS88MQxv2FknKDKoKbcTJfl5OkSmPyF+sM+PosbUQ88VoZM9X2coMmjpjD5s6i1nOkLu4As9fbvd6nX3DUnxReXe9/UC3bCq2FXHKDIQdwDG94sX/q91fGxe9q892TmQ5ofHv+83yrs2fl3ViYi0ON3igHixX6nDYwb/Xp3DvxQpz6GoFqcp55oaslZApJ0TgINsAWQOt4i/XS3WW9y7UE+Mf/YaZVt7l4dk7DE6TZG2JMkfH/1O58YcJwI/WJRPheVBNUlx1NSxtsq1IW6q6kxEGp7qrPX8ap0a8/SdMHzJtvP/9L9+p+l9/8qykadL5iu9tliksXcARh9uESCLcLrg18Pw5DZzbn8r1z4o/v4LlWHjXRROX7OnDlWkSSkv2iRfqwNjkXxqTu1v6oU/G5Rbax4NjVsnINKUrLj8HtXsXefF4t4R+NDsHgFU2/+c/Nc+14W0eLEOVqTOWX7h3UM3O1uHxZKcLJhmr9/yI6hqAeDtyqq1NoYke5uOVqS26wDyFToqltDNoZM9+U7trtoBkJ2sfAZmMni0zlakbikvTB0UvThdLpnY4w4TgDT7pHIZOMfpdEXqkqH8qfZh00PnVccLV3cA8k8pj4E9Zvpkna9I3x8BxE9l3Xy9DokeLxQ8LXSLf1EWA3+WwAk6YZF+pVwImOQ/1hkBffR3OmORvtwFyE/SAQF9XyyYZEfqkEV6OgEoDp7asqMTAvru1tDJnq9jFunJY4DRe8aLLtfxADVyQ/QUHbTIUqd8sYcOB6jfgtH11XsjRGTJJgAv1NkANfbTMDyxg85aZLGzcmSXqZd56GiAOm8dzBIdtsji3wX4rA4GaMhE4O06bZHFytSpgF7OAjTFLRYKiixGlk1uHS+mC3UqQMOMVY8xa3t3df1OYdXYg0Nn/MD4vb4gpMVrp97DUhwzdQ5LdnLo5h+L/235H5V3ZMsXZlWOn/7aN0eHhe7Y00O32DesHrt/GJ7cxuAli5Mkf6POBGjmjoGi09f+s5PtPTXA5++Kv348+lp0UfT7JT87Ic1H46/fnTpmO/9Q6GZ/E5Kxx1SnvYrMKisuv8fUm9t0JkBjHbbkfWX5yXto7LHx0/rr48TjlDgAnxP/3qtre7jS1ERkKPpAnKg8Myxft6MBTzZzF8B72oHGuzIOdA9Y3EH/km3jYH9Q7COPjX/+v0fXNLyMbgtJcX41genmL6seKcjALwZ84PQpXDoRoOG7BfJvLvzOaLFPHCT/NnSzs+OfeWP738mQXxgnBCdWC8OtMRjItQCn6jyAFq0PeMWc+sDJya2mdkZVd0QvGfDy+22cEJwRJ1OHO4xpICYAo3vFSr9ZxwG0yLrq3SczrtrPHzW18j5fo8w2q7wLcmZIiyOqxyLSwpRbUTR0oH3vF/jY5vu8NbvFwf998Wt+ppzmpFz8+KnQmdjfwNmaHQHju08ftKGBA21zW7WK//+nWxww/aHnRmWzYBfG8nxrGN6ws4G00Y8Cin/WmIH23g3Izp0+/8QhaEuj3CnxP73RsZGPAdbvFCvvKo0YgEU4j2C4OhFRGpJy+4uGC8Cibjcszgqd7MkG2Tpn6h0BVsMCsFTOjJOBxxlw67kW4FANFIAeHET05WorptTqcKBhjROAnu3UKHdmrF53XwNwv1NWgsOBAOjHaYRJcZSjifu6IDB/v4YIQB9dVB3TLH15FHCRBghA39cLlI8IytfYS48yNPYIDQ+AGvlVSLKXGKB7cxfgOA0OgNrpFp2wcmQXA/XSTgIu0dgAqKk8JMXBBuulSCd7pAYGQO23E3bzD9lBsOi7ArL3alwANEPxg+pNt7Jok4CzNSoAGmRDdIgBfKGZemPgTRoUAI17PJAUxxjIF7QgsHiRhgRAo3cPdLLtDejzehRQnKIRAdBw/ycka+9jUJ/z44DsAo0HgBZYE5LRhxvYZ5vhiR1iod2i4QDQEleFbnGQAX5WjwLGnq7BANAyN0QvMMjPuCgwO1ZjAaCFbglD2UsN9FtcD5B/RUMBoKU2hm7xOoP9Xb8v4AqNBIBWTwSS/I0G/M0vCtyogQDQcptCmr/JwH+HlwaNH6hhADAwdwTS4giD/x/fF/AGjQKAAXJz6I491wRgaj3ASRoEAIO3fbA42CQgyVdpDAAMoN+GobFHDPok4EcaAgADaiyka3Yb5EnArzQCAAZXcX5Yvm7HAdweeMm2sQBu1wAAGGjd/IwwObnVgN0FmNhD5QNAdUfgmAGbBIw9RqUDQOX2wdo6mOSHqHQA+IPfhJVrHzQgk4Di5SocAO7gJ+HUke0G4O2BxVtUNgDcaaHgxwbgyODib1U2AGxufUDx7JZPAvL3q2gA2Ky1IVl7nza/POgfVDIA3KWvtnlNwD+qYADY4vkBr2npJCA/QeUCwBZdGU4fuV8Ltwhmx6tcAJhR2sbDgj6oYgFgNtsG23aaYJq/T8UCwCyk+Wi73jbonAAAmMPdgOzDbVoT8DaVCgCzdmNYNfbgtjwOeJUKBYA5WdWSSUD2PJUJAHOyKSTFwc2fBAzlT1CZADBn54XJya0aviZgdC8VCQDz2S1QvLjZk4DhiR1UJADMy09bcDcgv1ZFAsC8HNb0bYIXq0QAmJefh2WTWzd4ElB8QyUCwHzXBuSHN/nUwFNUIgDMdxKQXeDoYAAYXE9p6sLAF6g8AFiQLzd0EjCxh8oDgAXZGLrjD23q3YArVSAALGiB4P9q6iTguyoQABbkqnDqyHZNnAR8XOUBwAJ1i1c0cIdA/mqVBwALnQRkZzdvEtDJ9lZ5ALBgm5q5QDApxlUeACxUsayJ6wJWqzgAWLDLG7guIHuHigOAxdguOL5f09YFPFLFAcCi+KcmPhIYUXEAMIiPBJL8VBUHAIugM7F/syYBafY8FQcAi7JL4JhmTQLK4w6T/FoVBwAL9v0mPhIYVnEAsGC3hBWX36Npk4DDVBwALILu+F838ZHA71QeACz0vID8s018odBpKg8AFuyy5k0C0vxZKg4AFmxTOG3i3s2aBExObhW/8StUHgAsdF1A/ldNfCTwfpUHAAt2UvMmAauKXeM3foPKA4AF+Y/QyCRFV+UBwIJcH5ZNbt2sCUD5DXezj6g8AFigzujDGvRa4Yn94zf9YxUHAItyXsDh9R/8hyd2CEl2fCiPOlRpALBIimX1ngAMjT8tfqMjKgoAFv1OwFdq+ul/cptqhpLkG1UUACyJK+o3ATh9zZ5xAvADlQMAS+rW6kN3fW7/Zy+N39RvVQwA9ED5wbseRwIXx8Rv6HaVAgA9Uq696+/Wv2z7+I0MqQwA6PXiwOK1/ZsArBjfPaTZBSoCAPriuD4d/zv2mPiXr1UBANA3X+jD2wCLA+JffJXCB4C++lo/DgD6vYIHgD7rZuf28BFAfkh0nYIHgDpMAvJLezMBSPMXxr/wZoUOALWZBKzvxRqAg+JfdoMCB4BaubUXrwC+WkEDQA0t3R2A8YfGv2CdQgaAQZoEpGt2C2k+qoABYJAmAcsvvHucAJyjcAFg0CYBSf4ZBQsAgzYJSPM3KVQAGLRJQJI/xVkAADBok4Dlo/eMf1imQAFg0CYBSb5KYQLAoE0CkuLlChIABm0SsHLtg4ITAQFgwCYBk5NbxT/g+woRABpp00JeDPQ6BQgAjXX1/CYAq4pd42/+jQIEgMYame9iwM8pPABotJ/M4/XA4wfG33i7wgOABkvzb85jMWBxvsIDgMZL5/pugMMVGgC0QDf7yOwnAMOT28TfdJmCA4A2PA7I3u4NgQAwiDrZ82e5GDDbPv6GQqEBQEsMjT1ilgcDZe9QYADQGpvC8MQOM08Alk1uHb/4CgUGAK2xbnZ3AYaylyosAGjVzoCzZ/so4FwFBgBtmgTkH5vFjoDxJyosAGib7MhZTAKyREEBQNvuBBQHzHA40Iad4xdep7AAoFU2zrwzoJu9QUEBQOseBVw8m9cF/0BBAUDLpPlnZzohcO/qIAGFBQBt2xnw6hnuAuTHKSgAaKEVxT4zTQIuVFAA0Dq/2vIEYMX47h4FAEArFwV+aYa7ANnbFBIAtHJR4JtmOCAo/6aCAoAWOn3Nnls4IGhih/hFNygoABi08wGS/BCFBABt3BqYfWSGUwLzDykoAGilQ2Y6JfAshQQArXNlOGfybnc9AVg2uXX8omsUFAC07VFA8S8zHRX8OAUFAK3cGvisGdYDFG9VUADQtrsA+fowPLnNTIcEfUJhAUDr7gJ8duZXB3ezsxUWALRMJ3vyzJOAJF+rsACgVX4+8wRg5cguwUuDAKBljwKyo2eeBKTZkxQWALTKzWH1uvvO4lFA9kqFBQCt2hVwRphVytsFCgwAWqQ4eHaTgPKlAgoMANqyFuCCMOskearQAKAtk4DiiLlMAr6j0ACgFbItvyzozpOAixQaALRiLcBRYU5J8hGFBgCNtyEMb9h5rpOACQUHAI1fEHh0mHPKmYPCA4AmWxeGJ3aYzyTgWoUHAE2+C5C/K8wrSX6LAgSAxirCqSPbzXcScLsCBIDG3gV4VZh3ypcMKEQAaKLzwuTkVguZBFgTAADNsykkY38ZFpQkv1JBAkDjtgQmYcFJ8rUKEwAa5fchmdhj4ZOAbn6pwgSAQdgSeOdXCZ+rQAGgMX4Shie3WaRJQP51BQoAjXBbGBp7bFi0dPPTFCoANOIxwAlhUdPNT1SwAFB7Pw3Dl2y7uJOAtHiLggWAWrspdCb2D4ueoeI5ChcAau2dYUnSGX2YwgWA2q4D+N8LOxp4SynfPJTkGxU0ANTO2pCu2S0saZL8FwoaAGrl1pAUB4clT5IPK2wAqNVjgHeFniTJj1PgAFAbq0PPkmQvUeAAUAs/C8vX7di7ScDqsfsrdADou1+F09fsGXqeJB9T+ADQN9eFTva40Jek+UoVAAB9sTF0x/869C3laUQqAQD6sBMge3voa9L8USoCAHotOzbUItYFAEDvdItTQm2SZstVCgD0xGdCrZLkh6kUAFhyK8Kyya3rNQkY3rBz/MZuVDkAsGQ+tXRvBVz43YCvqiAAWIo1ANlHQq2TZv9NRQHAou8CODnUPh4JAMBi2hjKs3gak25+hkoDgAW7PiTFi0KjkhSHqjgAWJBfh3T8iaFxKbctpPmoCgSAeT3/vzh0sr1DY9PNP6QSAWCuii+GdP1OodFJ1+wWf5ibVCYAzHYBYHFMfc8AmPuZAaerVACY0YbokNCqpOP7xR9qk8oFgLv03bBifPfQynSzs1UwANzJLSHN39ee2/+b3y54sIoGgDv4RRjKnxAGIkn+PRUOAPltIc0+2fzV/3PJUP5UFQ/AgPuv0Bk/MAxkkuIsDQCAAXRjSLJjwzmTdwsDm5XFo6vbIBoDAIPjzJDmDwlS3Q34nAYBwAC4LKTZ8wz8dz5F8BqNA4CWWhcH/7eH4cltDPqbnQhkR2skALTMlaGbvz8sX7ejgX6mNwwm+Y81GABa4NqQZCeH5aP3NMDPem3A2GNiwd2q8QDQSN18fRz8jw+ril0N6vOaCMSZk4YEQLP8PI5fR4bhS7Y1kC8kp45sVx2coEEBUG/lneuvVqv9W33Of3/ODrhRAwOghkaqW/6nr9nTgL10bxl8r4YGQG1W+afZ8tDJnulTf+92C5yp4QHQJ78L3aITB/7nD/bRvv1KJ7tXrIQ1GiIAPZHmo9Xb/JLi0GqNmvR7t0D++OgmjROAJVBEq+In/rd6xl/b9QHF6zRUgNqukL+6Id9rueD8/4Zu/un4if9VBv1GHSucn+BiA6jb7fPif0zdtZ3Yo9oql+QfiL8m1WBbLqbrz/d1fbVvv5t/PToxfo9HhKGxRzi3v8kpV2N28zNcdAC1kc94Jn66fqfQLfYNSfGi+PXvDt3sw9Un8an+/DvRz6rn8OWfNXVHoXTL9J9/+5/8t7XV13XzS+OfcW78969FX6gmIUn+dyHJXhknH0+qXkgnrV0ouP105bv4APptKHupgUl6fJDQyC7Tt5lcgAB9U5xlQJL+ZPW6+1a3hFyIAP1wXUjzhxiMpI9bByf2CEn2SxcjQM+92SAkNbgjMHb/OBG42AUJ0CvZvxp8pD45beLeIc0ucGECLLkN1YcvkdpNBJL8hy5QgCWzKaTFiw04Us+UZzw7RwBgaZSH7ojUOuWBQuU7nl2wAIu5HfDbTtuT5iQt3hIb7s0uXIAFLwT8ZfVGV5FmTQSyJ1XHTLqIAebr2urIX5FGplzFmubnuJAB5uyWkBSHGkikBesEiqPCH19IAcCW3R66xSsMINKedMYPjA17xMUNMIM0O9qgIe3LisvvUb3Ccur1lC50gDv7J4OFtDtD+VNjQ7/MxQ5wh50AJxsgZEAeD2TbT58pcKMLH3AYUPH3BgYZvFRvI8zT6khMHQEwkMcBWwMgg57u2NPjxfBjHQIwWNsAsyMNACJ/uDNQHBovjAt1DkDLXR0dotMX+fOUZwuk+eHxAvmJjgJo5VHAyejDdfYiM2Vo/Gmhm/2bbYVAS3y/ev26iMxlMjDxF9X2mW6+XicCNHQB4CfD8gvvrkMXmW+GL9k2pMURIc2/6ShioCHWxT7rWTpwkcVMeUstzd8UL7DvRLfpaID6Kc4K6ZrddNgiS5l0/U4hLV4c0mx5vPAmdDxAn11TvTxt2eTWOmiRXqbaXTC+X+hm7whpvjJejIUOCejhp/9vhBXju+uMReqSofyBIc2eVx3NOTUxuCi6dok7g5ujK6KvxQnJh0M3f1nojD7MOQjQ4mf/XgEs0qCsXnff6jXH5YWbFO+ZHqw/Hf/5i9NrDaLi/OmB+09N/b80/0r8/5+Lv+fE+HvfG//5NdHB1XHI5R2JzSXJ36yzhFa5vnoXyvCGnXWqIrLlLF+34/RpYTpPaLbbq3eflHcaRURmnSQ/VQcKjbWxultYrj0SEZlzVhaP1pFSc78Lafb66AJlcYd1Pp+vDi8TEVng3YD/0KlSYyf9oa12i4Om1r+Un4AHsiyujD5qxb+ILF7Kkw8NNNTTjZs94KZc8NrN/mF618sgPO//TkiyV4ZTR7bTYYnI4qY8RKSbX2rAoXbKHTJbSrnzpdoFk38+2tCyn/8XIc1PCCuKfXRSIrK0qbYmGnSoldtCJ9t71m14eHKbkGbPiJ+YPxF/b97Qn7nc9vvBOPg/SqckIr29G5DkPzfwUCNDC2rTneyR8c94Z/TV6Lc1/RnXxAl4p1r4mIzupSMSkf7F2gDqdBdgMT8Nl5PcchtdNdjmn4rOq9Yb9PbRxvrq2X63OCX+bK+q1jWIiNTrbkB2sQGIGvhMT9p7+bhhqHhOdcegHJy7+dfjP/8wXge/jL9eN8fvufz6y6LvVQf3JNnJ8dd3xz/32eH0kfvpYESkAXcD8sMNQPT9rXd1GTSHJ3YIq4pdw8q1D6oW6JV3J7rFAdX+/PLfy9eId7J76ThEpD2Z+iRjMKJfPuAiFBHpV6ZOEbzVYEQfjMVP1tu7CEVE+ns34KMGJHp/LoDX34qI9D/lq0iTfMLARO8mANnZd/naaxER6XEcIETvXO9kPBGRuiUpvm2Aogd3Ad7hYhMRqd0kYGKPGp+2Rhuk+TkeA4iI1DXODmDp3FDtuRcRkTrfESi6BiyW4C7Au1xcIiJ1T7VboDpK1cDFIim+4TGAiEhT0hk/0CFCLI44oVw+ek8XlYhIk5JkxxrAWPA6gM7E/i4mEZGmpbx9m+YrDWTMfx1A9noXkohIU1O+WS0pzjegMQ+fdwGJiDQ9newBcSIwblBjDr4fTh3ZzsUjItKGJPnjq+NeDW7MvBDw4jhxvJeLRkSkTUmLI2Inf7tBji3Iw4rx3V0sIiJtTDd7g4kAd+G3oZM90kUiItLmJMV7DHj8mRtDtzjIxSEiMghJs6MNfPzhLICkONRFISIyWHcElhkAB165WPQQF4OIyCCmm59oIBxY10RPcRGIiAz2HYH3WCw4cH4X0uxJGr+IiITQLV4RB4abDY4D4Vehkz1OoxcRkT+mkz2z+oRokGyz/wrJ6F4au4iIbO6OwL6OGG6tb4WVI7to5CIictdZufZBccA4z6DZKh8Nyya31rhFRGTmDF+ybRw4TjV4Nt5N0Rs1aBERmXuGspdObyUzoDbP5RYAiojIwpKMPrx6s5xBtUnSMLxhZ41XREQWnnT9TnFg+UK0yQBba78P3exvNFgREVmCuwLFoXGgGTPY1tKPQnf8oRqpiIgsXZav2zEk2clx0Nlo4K3J6X9JcZTV/yIi0rsM5U+NA9AvDMJ9dWZIJvbQGEVEpPfpZNuHNP/vcTC61oDcU2tCd+y5GqCIiPQ/6Zrd4sD0meg2A/SSuir6QBie2EGjExGReqXaTpgP20Ww6K6v1mF0sntpZCIiUu8MjT8tpPk5Bu8Fu6U6uXH12P01KhERaVbS8SfGT7BfspNgHvv9k+wT8ZP/3hqRiIg0O+VgNrWt0BHEWzYWkuKYsKrYVaMREZF25bSJe8fJwLG2Fv6Z8tFJ+Z4Ge/1FRGQg0i32nb478JsBHfzzqZ9/9OEag4iIDGbK1xZPva3wa9Ovvm3zwL8uTn5OqdZKiIiIyJ+kOpI4f0FIs0/GX69owaC/Mf4sF8RfT4q/PiMMT26jkkVERGaTNH9I6GbvCEnxjTiQbmjIwJ9Fnw9pcUS1BkJEREQWISvGd4+D64tDkh1fnZvfzdf3/fZ+dX5//H7K72sof6BKEhER6VWS0b1Ct3h26GZvmJ4cnB59N/7zL+OvNy98v35+SfStkGbL46/Hxb/rdaE79vSwfPSeCl9ERKTOKffcd7IHhBXFPmFo7LGhM35gSIpDoxdVt+zT/IXVv5eL9cr/X35decdheMPOCk9EBiH/DytdnIA7HZ+8AAAAAElFTkSuQmCCwETvJgDZ2Xf52msREelxHCBE71zvZDwRkbolKb5tgKIHdwHe4WITEandJGBijxqftkYbpPk5HgOIiNQ1zg5g6dxQ7bkXEZE63xEougYsluAuwLtcXCIidU+1W6A6StXAxSIpvuExgIhIU9IZP9AhQiyOOKFcPnpPF5WISJOSZMcawFjwOoDOxP4uJhGRpqW8fZvmKw1kzH8dQPZ6F5KISFNTvlktKc43oDEPn3cBiYg0PZ3sAXEiMG5QYw6+H04d2c7FIyLShiT546vjXg1uzLwQ8OI4cbyXi0ZEpE1JiyNiJ3+7QY4tyMOK8d1dLCIibUw3e4OJAHfht6GTPdJFIiLS5iTFewx4/JkbQ7c4yMUhIjIISbOjDXz84SyApDjURSEiMlh3BJYZAAdeuVj0EBeDiMggppufaCAcWNdET3ERiIgM9h2B91gsOHB+F9LsSRq/iIiE0C1eEQeGmw2OA+FXoZM9TqMXEZE/ppM9s/qEaJBss/8KyeheGruIiGzujsC+jhhurW8=;" vertex="1" parent="1">
          <mxGeometry x="-406.5" y="510" width="83" height="58.41" as="geometry" />
        </mxCell>
        <mxCell id="4sYesMDpXX-5hcElLDRR-245" value="" style="shape=image;verticalLabelPosition=bottom;labelBackgroundColor=default;verticalAlign=top;aspect=fixed;imageAspect=0;image=data:image/png,iVBORw0KGgoAAAANSUhEUgAAAgEAAAFpCAYAAAAFqfvLAAAeP0lEQVR42u3dCZglRYEn8ACUWxQPVBBEHE/ACxkP8EDxHB0FRXe88L4dcNSBcWUaB9hBVxfFY2yleS+zuhstzxkcF/FgZFWEZZRBQLC6KjOr2rZtEJH7aLo2MqtWRZqu+73MfL//9/2+5qjuroqIjIiXGREZgoiIiIgMYE6buHdYUewThvInhG5xQEjG/jIkxaF/4uDqv5fKr1s19uCQrt9JwYmIiNQ5p6/ZM6TZM0KSHRkdH/85iYP6D0I3vzQk+W+ijdHkPN0Q5dFPojOjz8eJwt/HXw8L6fh+oZNtrwJERESWOudM3i0OvE+Mg/Bb4wD/6WqgT/KrFzDAL4ZNURHS/JvVBCQpXhRWj91fZYmIiCwkKy6/RxxcXxidEJ0TB9vr+zzgz0ExHr/nr0TvCkNjj1CZIiIiM6Uzsf/07fbvR7c2Z9Cf0UT8uTpxcvCacPrI/VS0iIjI5ORWYSh/akiyT1Sfntsz6G9JuUbhe9E7Qyd7gEYgIiKDlWqFfv7xARr478rtoZudG8vhPdUOBhERkVZm5cgu04v6/nPAB/67cnM0XG1ZLO+QiIiIND5Te/M709vtDPazMxKS7NiQrL2PBiQiIs1K+Um2OoSn2ltvUJ+/60OaLQ+d0YdpVCIiUu+Ue/mT/I3RLwzgi+q2aFXoZI/TyEREpF4ZntwmpMVrp25jG7SXVDf/eugW+2p0NZn0LpvcWkGIyGCmvO2fFkfEwekyA3SvtxkW3eodB7I4WX7h3cPQxF+EoeI5IcneFsv3n6u1LN3s32J5/zj+t19On1B5dbWr4851cs30/xsLaT4af//507/3M9FxIc1eH7pjzw2d7JHV5EFEpNEpj/BN8h8akPu9oyD7hO2Fc0x5PkOSv2Bq8WX2pfjPVyzwHRNzdUv0s2goThaOmfpeJvZQMSJS/wzlD6wWq/W202TL4ifQ4ii3pu8iK8Z3r+5Yle126sVSm2paj+uqbaLlVto0f4iKE5H6pBxgkvzd0bUG3dr6URgae+zAt9VTR7aLA/7zpl40lWcNrs+x6Avx5/ir6mcSEelLVhaPrgYYg2wzdhJ0i1NCun6ngWqj5Wudu/nLqhc3NeplU7P2+2h1SIqXD1zdikifUr2+t/jH6dPsDLCNO3Aof0r7704Vh04fRnXNANXtjXHCc0ac8DzL6ZIislSfrPa28K8F7yZIs0+27lZyJ7vX9BHUl6rjcrJXHBPSNbvptERkcZLmb4qdy3U62Nb4WUjH92t8uyzXO5RbI5P8JnW6uR0H2ZeqXTsiIvNK+ZKfqWeqOtU23kJOsiMb2S67Y0+P3/+3aryqv2aKs6oyExGZfUdb7Du9X1on2mblNrmmPB6oDu4pD+pRb/P0wzipf6F1AyKy5STZSwZsYdWgHz38n7Xeh94ZPzB+n99VV4t2Z+D8OMk/SEcnIndMubq6m33EbdaBdFXoZM+sVXtcUewTv68va49LYlP1EqpkdC8dn4iEMDyxg+f/FpOFbv7qWrTFJDvegr+ebS88MQxv2FknKDKoKbcTJfl5OkSmPyF+sM+PosbUQ88VoZM9X2coMmjpjD5s6i1nOkLu4As9fbvd6nX3DUnxReXe9/UC3bCq2FXHKDIQdwDG94sX/q91fGxe9q892TmQ5ofHv+83yrs2fl3ViYi0ON3igHixX6nDYwb/Xp3DvxQpz6GoFqcp55oaslZApJ0TgINsAWQOt4i/XS3WW9y7UE+Mf/YaZVt7l4dk7DE6TZG2JMkfH/1O58YcJwI/WJRPheVBNUlx1NSxtsq1IW6q6kxEGp7qrPX8ap0a8/SdMHzJtvP/9L9+p+l9/8qykadL5iu9tliksXcARh9uESCLcLrg18Pw5DZzbn8r1z4o/v4LlWHjXRROX7OnDlWkSSkv2iRfqwNjkXxqTu1v6oU/G5Rbax4NjVsnINKUrLj8HtXsXefF4t4R+NDsHgFU2/+c/Nc+14W0eLEOVqTOWX7h3UM3O1uHxZKcLJhmr9/yI6hqAeDtyqq1NoYke5uOVqS26wDyFToqltDNoZM9+U7trtoBkJ2sfAZmMni0zlakbikvTB0UvThdLpnY4w4TgDT7pHIZOMfpdEXqkqH8qfZh00PnVccLV3cA8k8pj4E9Zvpkna9I3x8BxE9l3Xy9DokeLxQ8LXSLf1EWA3+WwAk6YZF+pVwImOQ/1hkBffR3OmORvtwFyE/SAQF9XyyYZEfqkEV6OgEoDp7asqMTAvru1tDJnq9jFunJY4DRe8aLLtfxADVyQ/QUHbTIUqd8sYcOB6jfgtH11XsjRGTJJgAv1NkANfbTMDyxg85aZLGzcmSXqZd56GiAOm8dzBIdtsji3wX4rA4GaMhE4O06bZHFytSpgF7OAjTFLRYKiixGlk1uHS+mC3UqQMOMVY8xa3t3df1OYdXYg0Nn/MD4vb4gpMVrp97DUhwzdQ5LdnLo5h+L/235H5V3ZMsXZlWOn/7aN0eHhe7Y00O32DesHrt/GJ7cxuAli5Mkf6POBGjmjoGi09f+s5PtPTXA5++Kv348+lp0UfT7JT87Ic1H46/fnTpmO/9Q6GZ/E5Kxx1SnvYrMKisuv8fUm9t0JkBjHbbkfWX5yXto7LHx0/rr48TjlDgAnxP/3qtre7jS1ERkKPpAnKg8Myxft6MBTzZzF8B72oHGuzIOdA9Y3EH/km3jYH9Q7COPjX/+v0fXNLyMbgtJcX41genmL6seKcjALwZ84PQpXDoRoOG7BfJvLvzOaLFPHCT/NnSzs+OfeWP738mQXxgnBCdWC8OtMRjItQCn6jyAFq0PeMWc+sDJya2mdkZVd0QvGfDy+22cEJwRJ1OHO4xpICYAo3vFSr9ZxwG0yLrq3SczrtrPHzW18j5fo8w2q7wLcmZIiyOqxyLSwpRbUTR0oH3vF/jY5vu8NbvFwf998Wt+ppzmpFz8+KnQmdjfwNmaHQHju08ftKGBA21zW7WK//+nWxww/aHnRmWzYBfG8nxrGN6ws4G00Y8Cin/WmIH23g3Izp0+/8QhaEuj3CnxP73RsZGPAdbvFCvvKo0YgEU4j2C4OhFRGpJy+4uGC8Cibjcszgqd7MkG2Tpn6h0BVsMCsFTOjJOBxxlw67kW4FANFIAeHET05WorptTqcKBhjROAnu3UKHdmrF53XwNwv1NWgsOBAOjHaYRJcZSjifu6IDB/v4YIQB9dVB3TLH15FHCRBghA39cLlI8IytfYS48yNPYIDQ+AGvlVSLKXGKB7cxfgOA0OgNrpFp2wcmQXA/XSTgIu0dgAqKk8JMXBBuulSCd7pAYGQO23E3bzD9lBsOi7ArL3alwANEPxg+pNt7Jok4CzNSoAGmRDdIgBfKGZemPgTRoUAI17PJAUxxjIF7QgsHiRhgRAo3cPdLLtDejzehRQnKIRAdBw/ycka+9jUJ/z44DsAo0HgBZYE5LRhxvYZ5vhiR1iod2i4QDQEleFbnGQAX5WjwLGnq7BANAyN0QvMMjPuCgwO1ZjAaCFbglD2UsN9FtcD5B/RUMBoKU2hm7xOoP9Xb8v4AqNBIBWTwSS/I0G/M0vCtyogQDQcptCmr/JwH+HlwaNH6hhADAwdwTS4giD/x/fF/AGjQKAAXJz6I491wRgaj3ASRoEAIO3fbA42CQgyVdpDAAMoN+GobFHDPok4EcaAgADaiyka3Yb5EnArzQCAAZXcX5Yvm7HAdweeMm2sQBu1wAAGGjd/IwwObnVgN0FmNhD5QNAdUfgmAGbBIw9RqUDQOX2wdo6mOSHqHQA+IPfhJVrHzQgk4Di5SocAO7gJ+HUke0G4O2BxVtUNgDcaaHgxwbgyODib1U2AGxufUDx7JZPAvL3q2gA2Ky1IVl7nza/POgfVDIA3KWvtnlNwD+qYADY4vkBr2npJCA/QeUCwBZdGU4fuV8Ltwhmx6tcAJhR2sbDgj6oYgFgNtsG23aaYJq/T8UCwCyk+Wi73jbonAAAmMPdgOzDbVoT8DaVCgCzdmNYNfbgtjwOeJUKBYA5WdWSSUD2PJUJAHOyKSTFwc2fBAzlT1CZADBn54XJya0aviZgdC8VCQDz2S1QvLjZk4DhiR1UJADMy09bcDcgv1ZFAsC8HNb0bYIXq0QAmJefh2WTWzd4ElB8QyUCwHzXBuSHN/nUwFNUIgDMdxKQXeDoYAAYXE9p6sLAF6g8AFiQLzd0EjCxh8oDgAXZGLrjD23q3YArVSAALGiB4P9q6iTguyoQABbkqnDqyHZNnAR8XOUBwAJ1i1c0cIdA/mqVBwALnQRkZzdvEtDJ9lZ5ALBgm5q5QDApxlUeACxUsayJ6wJWqzgAWLDLG7guIHuHigOAxdguOL5f09YFPFLFAcCi+KcmPhIYUXEAMIiPBJL8VBUHAIugM7F/syYBafY8FQcAi7JL4JhmTQLK4w6T/FoVBwAL9v0mPhIYVnEAsGC3hBWX36Npk4DDVBwALILu+F838ZHA71QeACz0vID8s018odBpKg8AFuyy5k0C0vxZKg4AFmxTOG3i3s2aBExObhW/8StUHgAsdF1A/ldNfCTwfpUHAAt2UvMmAauKXeM3foPKA4AF+Y/QyCRFV+UBwIJcH5ZNbt2sCUD5DXezj6g8AFigzujDGvRa4Yn94zf9YxUHAItyXsDh9R/8hyd2CEl2fCiPOlRpALBIimX1ngAMjT8tfqMjKgoAFv1OwFdq+ul/cptqhpLkG1UUACyJK+o3ATh9zZ5xAvADlQMAS+rW6kN3fW7/Zy+N39RvVQwA9ED5wbseRwIXx8Rv6HaVAgA9Uq696+/Wv2z7+I0MqQwA6PXiwOK1/ZsArBjfPaTZBSoCAPriuD4d/zv2mPiXr1UBANA3X+jD2wCLA+JffJXCB4C++lo/DgD6vYIHgD7rZuf28BFAfkh0nYIHgDpMAvJLezMBSPMXxr/wZoUOALWZBKzvxRqAg+JfdoMCB4BaubUXrwC+WkEDQA0t3R2A8YfGv2CdQgaAQZoEpGt2C2k+qoABYJAmAcsvvHucAJyjcAFg0CYBSf4ZBQsAgzYJSPM3KVQAGLRJQJI/xVkAADBok4Dlo/eMf1imQAFg0CYBSb5KYQLAoE0CkuLlChIABm0SsHLtg4ITAQFgwCYBk5NbxT/g+woRABpp00JeDPQ6BQgAjXX1/CYAq4pd42/+jQIEgMYame9iwM8pPABotJ/M4/XA4wfG33i7wgOABkvzb85jMWBxvsIDgMZL5/pugMMVGgC0QDf7yOwnAMOT28TfdJmCA4A2PA7I3u4NgQAwiDrZ82e5GDDbPv6GQqEBQEsMjT1ilgcDZe9QYADQGpvC8MQOM08Alk1uHb/4CgUGAK2xbnZ3AYaylyosAGjVzoCzZ/so4FwFBgBtmgTkH5vFjoDxJyosAGib7MhZTAKyREEBQNvuBBQHzHA40Iad4xdep7AAoFU2zrwzoJu9QUEBQOseBVw8m9cF/0BBAUDLpPlnZzohcO/qIAGFBQBt2xnw6hnuAuTHKSgAaKEVxT4zTQIuVFAA0Dq/2vIEYMX47h4FAEArFwV+aYa7ANnbFBIAtHJR4JtmOCAo/6aCAoAWOn3Nnls4IGhih/hFNygoABi08wGS/BCFBABt3BqYfWSGUwLzDykoAGilQ2Y6JfAshQQArXNlOGfybnc9AVg2uXX8omsUFAC07VFA8S8zHRX8OAUFAK3cGvisGdYDFG9VUADQtrsA+fowPLnNTIcEfUJhAUDr7gJ8duZXB3ezsxUWALRMJ3vyzJOAJF+rsACgVX4+8wRg5cguwUuDAKBljwKyo2eeBKTZkxQWALTKzWH1uvvO4lFA9kqFBQCt2hVwRphVytsFCgwAWqQ4eHaTgPKlAgoMANqyFuCCMOskearQAKAtk4DiiLlMAr6j0ACgFbItvyzozpOAixQaALRiLcBRYU5J8hGFBgCNtyEMb9h5rpOACQUHAI1fEHh0mHPKmYPCA4AmWxeGJ3aYzyTgWoUHAE2+C5C/K8wrSX6LAgSAxirCqSPbzXcScLsCBIDG3gV4VZh3ypcMKEQAaKLzwuTkVguZBFgTAADNsykkY38ZFpQkv1JBAkDjtgQmYcFJ8rUKEwAa5fchmdhj4ZOAbn6pwgSAQdgSeOdXCZ+rQAGgMX4Shie3WaRJQP51BQoAjXBbGBp7bFi0dPPTFCoANOIxwAlhUdPNT1SwAFB7Pw3Dl2y7uJOAtHiLggWAWrspdCb2D4ueoeI5ChcAau2dYUnSGX2YwgWA2q4D+N8LOxp4SynfPJTkGxU0ANTO2pCu2S0saZL8FwoaAGrl1pAUB4clT5IPK2wAqNVjgHeFniTJj1PgAFAbq0PPkmQvUeAAUAs/C8vX7di7ScDqsfsrdADou1+F09fsGXqeJB9T+ADQN9eFTva40Jek+UoVAAB9sTF0x/869C3laUQqAQD6sBMge3voa9L8USoCAHotOzbUItYFAEDvdItTQm2SZstVCgD0xGdCrZLkh6kUAFhyK8Kyya3rNQkY3rBz/MZuVDkAsGQ+tXRvBVz43YCvqiAAWIo1ANlHQq2TZv9NRQHAou8CODnUPh4JAMBi2hjKs3gak25+hkoDgAW7PiTFi0KjkhSHqjgAWJBfh3T8iaFxKbctpPmoCgSAeT3/vzh0sr1DY9PNP6QSAWCuii+GdP1OodFJ1+wWf5ibVCYAzHYBYHFMfc8AmPuZAaerVACY0YbokNCqpOP7xR9qk8oFgLv03bBifPfQynSzs1UwANzJLSHN39ee2/+b3y54sIoGgDv4RRjKnxAGIkn+PRUOAPltIc0+2fzV/3PJUP5UFQ/AgPuv0Bk/MAxkkuIsDQCAAXRjSLJjwzmTdwsDm5XFo6vbIBoDAIPjzJDmDwlS3Q34nAYBwAC4LKTZ8wz8dz5F8BqNA4CWWhcH/7eH4cltDPqbnQhkR2skALTMlaGbvz8sX7ejgX6mNwwm+Y81GABa4NqQZCeH5aP3NMDPem3A2GNiwd2q8QDQSN18fRz8jw+ril0N6vOaCMSZk4YEQLP8PI5fR4bhS7Y1kC8kp45sVx2coEEBUG/lneuvVqv9W33Of3/ODrhRAwOghkaqW/6nr9nTgL10bxl8r4YGQG1W+afZ8tDJnulTf+92C5yp4QHQJ78L3aITB/7nD/bRvv1KJ7tXrIQ1GiIAPZHmo9Xb/JLi0GqNmvR7t0D++OgmjROAJVBEq+In/rd6xl/b9QHF6zRUgNqukL+6Id9rueD8/4Zu/un4if9VBv1GHSucn+BiA6jb7fPif0zdtZ3Yo9oql+QfiL8m1WBbLqbrz/d1fbVvv5t/PToxfo9HhKGxRzi3v8kpV2N28zNcdAC1kc94Jn66fqfQLfYNSfGi+PXvDt3sw9Un8an+/DvRz6rn8OWfNXVHoXTL9J9/+5/8t7XV13XzS+OfcW78969FX6gmIUn+dyHJXhknH0+qXkgnrV0ouP105bv4APptKHupgUl6fJDQyC7Tt5lcgAB9U5xlQJL+ZPW6+1a3hFyIAP1wXUjzhxiMpI9bByf2CEn2SxcjQM+92SAkNbgjMHb/OBG42AUJ0CvZvxp8pD45beLeIc0ucGECLLkN1YcvkdpNBJL8hy5QgCWzKaTFiw04Us+UZzw7RwBgaZSH7ojUOuWBQuU7nl2wAIu5HfDbTtuT5iQt3hIb7s0uXIAFLwT8ZfVGV5FmTQSyJ1XHTLqIAebr2urIX5FGplzFmubnuJAB5uyWkBSHGkikBesEiqPCH19IAcCW3R66xSsMINKedMYPjA17xMUNMIM0O9qgIe3LisvvUb3Ccur1lC50gDv7J4OFtDtD+VNjQ7/MxQ5wh50AJxsgZEAeD2TbT58pcKMLH3AYUPH3BgYZvFRvI8zT6khMHQEwkMcBWwMgg57u2NPjxfBjHQIwWNsAsyMNACJ/uDNQHBovjAt1DkDLXR0dotMX+fOUZwuk+eHxAvmJjgJo5VHAyejDdfYiM2Vo/Gmhm/2bbYVAS3y/ev26iMxlMjDxF9X2mW6+XicCNHQB4CfD8gvvrkMXmW+GL9k2pMURIc2/6ShioCHWxT7rWTpwkcVMeUstzd8UL7DvRLfpaID6Kc4K6ZrddNgiS5l0/U4hLV4c0mx5vPAmdDxAn11TvTxt2eTWOmiRXqbaXTC+X+hm7whpvjJejIUOCejhp/9vhBXju+uMReqSofyBIc2eVx3NOTUxuCi6dok7g5ujK6KvxQnJh0M3f1nojD7MOQjQ4mf/XgEs0qCsXnff6jXH5YWbFO+ZHqw/Hf/5i9NrDaLi/OmB+09N/b80/0r8/5+Lv+fE+HvfG//5NdHB1XHI5R2JzSXJ36yzhFa5vnoXyvCGnXWqIrLlLF+34/RpYTpPaLbbq3eflHcaRURmnSQ/VQcKjbWxultYrj0SEZlzVhaP1pFSc78Lafb66AJlcYd1Pp+vDi8TEVng3YD/0KlSYyf9oa12i4Om1r+Un4AHsiyujD5qxb+ILF7Kkw8NNNTTjZs94KZc8NrN/mF618sgPO//TkiyV4ZTR7bTYYnI4qY8RKSbX2rAoXbKHTJbSrnzpdoFk38+2tCyn/8XIc1PCCuKfXRSIrK0qbYmGnSoldtCJ9t71m14eHKbkGbPiJ+YPxF/b97Qn7nc9vvBOPg/SqckIr29G5DkPzfwUCNDC2rTneyR8c94Z/TV6Lc1/RnXxAl4p1r4mIzupSMSkf7F2gDqdBdgMT8Nl5PcchtdNdjmn4rOq9Yb9PbRxvrq2X63OCX+bK+q1jWIiNTrbkB2sQGIGvhMT9p7+bhhqHhOdcegHJy7+dfjP/8wXge/jL9eN8fvufz6y6LvVQf3JNnJ8dd3xz/32eH0kfvpYESkAXcD8sMNQPT9rXd1GTSHJ3YIq4pdw8q1D6oW6JV3J7rFAdX+/PLfy9eId7J76ThEpD2Z+iRjMKJfPuAiFBHpV6ZOEbzVYEQfjMVP1tu7CEVE+ns34KMGJHp/LoDX34qI9D/lq0iTfMLARO8mANnZd/naaxER6XEcIETvXO9kPBGRuiUpvm2Aogd3Ad7hYhMRqd0kYGKPGp+2Rhuk+TkeA4iI1DXODmDp3FDtuRcRkTrfESi6BiyW4C7Au1xcIiJ1T7VboDpK1cDFIim+4TGAiEhT0hk/0CFCLI44oVw+ek8XlYhIk5JkxxrAWPA6gM7E/i4mEZGmpbx9m+YrDWTMfx1A9noXkohIU1O+WS0pzjegMQ+fdwGJiDQ9newBcSIwblBjDr4fTh3ZzsUjItKGJPnjq+NeDW7MvBDw4jhxvJeLRkSkTUmLI2Inf7tBji3Iw4rx3V0sIiJtTDd7g4kAd+G3oZM90kUiItLmJMV7DHj8mRtDtzjIxSEiMghJs6MNfPzhLICkONRFISIyWHcElhkAB165WPQQF4OIyCCmm59oIBxY10RPcRGIiAz2HYH3WCw4cH4X0uxJGr+IiITQLV4RB4abDY4D4Vehkz1OoxcRkT+mkz2z+oRokGyz/wrJ6F4au4iIbO6OwL6OGG6tb4WVI7to5CIictdZufZBccA4z6DZKh8Nyya31rhFRGTmDF+ybRw4TjV4Nt5N0Rs1aBERmXuGspdObyUzoDbP5RYAiojIwpKMPrx6s5xBtUnSMLxhZ41XREQWnnT9TnFg+UK0yQBba78P3exvNFgREVmCuwLFoXGgGTPY1tKPQnf8oRqpiIgsXZav2zEk2clx0Nlo4K3J6X9JcZTV/yIi0rsM5U+NA9AvDMJ9dWZIJvbQGEVEpPfpZNuHNP/vcTC61oDcU2tCd+y5GqCIiPQ/6Zrd4sD0meg2A/SSuir6QBie2EGjExGReqXaTpgP20Ww6K6v1mF0sntpZCIiUu8MjT8tpPk5Bu8Fu6U6uXH12P01KhERaVbS8SfGT7BfspNgHvv9k+wT8ZP/3hqRiIg0O+VgNrWt0BHEWzYWkuKYsKrYVaMREZF25bSJe8fJwLG2Fv6Z8tFJ+Z4Ge/1FRGQg0i32nb478JsBHfzzqZ9/9OEag4iIDGbK1xZPva3wa9Ovvm3zwL8uTn5OqdZKiIiIyJ+kOpI4f0FIs0/GX69owaC/Mf4sF8RfT4q/PiMMT26jkkVERGaTNH9I6GbvCEnxjTiQbmjIwJ9Fnw9pcUS1BkJEREQWISvGd4+D64tDkh1fnZvfzdf3/fZ+dX5//H7K72sof6BKEhER6VWS0b1Ct3h26GZvmJ4cnB59N/7zL+OvNy98v35+SfStkGbL46/Hxb/rdaE79vSwfPSeCl9ERKTOKffcd7IHhBXFPmFo7LGhM35gSIpDoxdVt+zT/IXVv5eL9cr/X35decdheMPOCk9EBiH/DytdnIA7HZ+8AAAAAElFTkSuQmCCwETvJgDZ2Xf52msREelxHCBE71zvZDwRkbolKb5tgKIHdwHe4WITEandJGBijxqftkYbpPk5HgOIiNQ1zg5g6dxQ7bkXEZE63xEougYsluAuwLtcXCIidU+1W6A6StXAxSIpvuExgIhIU9IZP9AhQiyOOKFcPnpPF5WISJOSZMcawFjwOoDOxP4uJhGRpqW8fZvmKw1kzH8dQPZ6F5KISFNTvlktKc43oDEPn3cBiYg0PZ3sAXEiMG5QYw6+H04d2c7FIyLShiT546vjXg1uzLwQ8OI4cbyXi0ZEpE1JiyNiJ3+7QY4tyMOK8d1dLCIibUw3e4OJAHfht6GTPdJFIiLS5iTFewx4/JkbQ7c4yMUhIjIISbOjDXz84SyApDjURSEiMlh3BJYZAAdeuVj0EBeDiMggppufaCAcWNdET3ERiIgM9h2B91gsOHB+F9LsSRq/iIiE0C1eEQeGmw2OA+FXoZM9TqMXEZE/ppM9s/qEaJBss/8KyeheGruIiGzujsC+jhhurW8=;" vertex="1" parent="1">
          <mxGeometry x="-406.5" y="602.09" width="83" height="58.41" as="geometry" />
        </mxCell>
        <mxCell id="4sYesMDpXX-5hcElLDRR-246" value="" style="shape=image;verticalLabelPosition=bottom;labelBackgroundColor=default;verticalAlign=top;aspect=fixed;imageAspect=0;image=data:image/png,iVBORw0KGgoAAAANSUhEUgAAAgEAAAFpCAYAAAAFqfvLAAAeP0lEQVR42u3dCZglRYEn8ACUWxQPVBBEHE/ACxkP8EDxHB0FRXe88L4dcNSBcWUaB9hBVxfFY2yleS+zuhstzxkcF/FgZFWEZZRBQLC6KjOr2rZtEJH7aLo2MqtWRZqu+73MfL//9/2+5qjuroqIjIiXGREZgoiIiIgMYE6buHdYUewThvInhG5xQEjG/jIkxaF/4uDqv5fKr1s19uCQrt9JwYmIiNQ5p6/ZM6TZM0KSHRkdH/85iYP6D0I3vzQk+W+ijdHkPN0Q5dFPojOjz8eJwt/HXw8L6fh+oZNtrwJERESWOudM3i0OvE+Mg/Bb4wD/6WqgT/KrFzDAL4ZNURHS/JvVBCQpXhRWj91fZYmIiCwkKy6/RxxcXxidEJ0TB9vr+zzgz0ExHr/nr0TvCkNjj1CZIiIiM6Uzsf/07fbvR7c2Z9Cf0UT8uTpxcvCacPrI/VS0iIjI5ORWYSh/akiyT1Sfntsz6G9JuUbhe9E7Qyd7gEYgIiKDlWqFfv7xARr478rtoZudG8vhPdUOBhERkVZm5cgu04v6/nPAB/67cnM0XG1ZLO+QiIiIND5Te/M709vtDPazMxKS7NiQrL2PBiQiIs1K+Um2OoSn2ltvUJ+/60OaLQ+d0YdpVCIiUu+Ue/mT/I3RLwzgi+q2aFXoZI/TyEREpF4ZntwmpMVrp25jG7SXVDf/eugW+2p0NZn0LpvcWkGIyGCmvO2fFkfEwekyA3SvtxkW3eodB7I4WX7h3cPQxF+EoeI5IcneFsv3n6u1LN3s32J5/zj+t19On1B5dbWr4851cs30/xsLaT4af//507/3M9FxIc1eH7pjzw2d7JHV5EFEpNEpj/BN8h8akPu9oyD7hO2Fc0x5PkOSv2Bq8WX2pfjPVyzwHRNzdUv0s2goThaOmfpeJvZQMSJS/wzlD6wWq/W202TL4ifQ4ii3pu8iK8Z3r+5Yle126sVSm2paj+uqbaLlVto0f4iKE5H6pBxgkvzd0bUG3dr6URgae+zAt9VTR7aLA/7zpl40lWcNrs+x6Avx5/ir6mcSEelLVhaPrgYYg2wzdhJ0i1NCun6ngWqj5Wudu/nLqhc3NeplU7P2+2h1SIqXD1zdikifUr2+t/jH6dPsDLCNO3Aof0r7704Vh04fRnXNANXtjXHCc0ac8DzL6ZIislSfrPa28K8F7yZIs0+27lZyJ7vX9BHUl6rjcrJXHBPSNbvptERkcZLmb4qdy3U62Nb4WUjH92t8uyzXO5RbI5P8JnW6uR0H2ZeqXTsiIvNK+ZKfqWeqOtU23kJOsiMb2S67Y0+P3/+3aryqv2aKs6oyExGZfUdb7Du9X1on2mblNrmmPB6oDu4pD+pRb/P0wzipf6F1AyKy5STZSwZsYdWgHz38n7Xeh94ZPzB+n99VV4t2Z+D8OMk/SEcnIndMubq6m33EbdaBdFXoZM+sVXtcUewTv68va49LYlP1EqpkdC8dn4iEMDyxg+f/FpOFbv7qWrTFJDvegr+ebS88MQxv2FknKDKoKbcTJfl5OkSmPyF+sM+PosbUQ88VoZM9X2coMmjpjD5s6i1nOkLu4As9fbvd6nX3DUnxReXe9/UC3bCq2FXHKDIQdwDG94sX/q91fGxe9q892TmQ5ofHv+83yrs2fl3ViYi0ON3igHixX6nDYwb/Xp3DvxQpz6GoFqcp55oaslZApJ0TgINsAWQOt4i/XS3WW9y7UE+Mf/YaZVt7l4dk7DE6TZG2JMkfH/1O58YcJwI/WJRPheVBNUlx1NSxtsq1IW6q6kxEGp7qrPX8ap0a8/SdMHzJtvP/9L9+p+l9/8qykadL5iu9tliksXcARh9uESCLcLrg18Pw5DZzbn8r1z4o/v4LlWHjXRROX7OnDlWkSSkv2iRfqwNjkXxqTu1v6oU/G5Rbax4NjVsnINKUrLj8HtXsXefF4t4R+NDsHgFU2/+c/Nc+14W0eLEOVqTOWX7h3UM3O1uHxZKcLJhmr9/yI6hqAeDtyqq1NoYke5uOVqS26wDyFToqltDNoZM9+U7trtoBkJ2sfAZmMni0zlakbikvTB0UvThdLpnY4w4TgDT7pHIZOMfpdEXqkqH8qfZh00PnVccLV3cA8k8pj4E9Zvpkna9I3x8BxE9l3Xy9DokeLxQ8LXSLf1EWA3+WwAk6YZF+pVwImOQ/1hkBffR3OmORvtwFyE/SAQF9XyyYZEfqkEV6OgEoDp7asqMTAvru1tDJnq9jFunJY4DRe8aLLtfxADVyQ/QUHbTIUqd8sYcOB6jfgtH11XsjRGTJJgAv1NkANfbTMDyxg85aZLGzcmSXqZd56GiAOm8dzBIdtsji3wX4rA4GaMhE4O06bZHFytSpgF7OAjTFLRYKiixGlk1uHS+mC3UqQMOMVY8xa3t3df1OYdXYg0Nn/MD4vb4gpMVrp97DUhwzdQ5LdnLo5h+L/235H5V3ZMsXZlWOn/7aN0eHhe7Y00O32DesHrt/GJ7cxuAli5Mkf6POBGjmjoGi09f+s5PtPTXA5++Kv348+lp0UfT7JT87Ic1H46/fnTpmO/9Q6GZ/E5Kxx1SnvYrMKisuv8fUm9t0JkBjHbbkfWX5yXto7LHx0/rr48TjlDgAnxP/3qtre7jS1ERkKPpAnKg8Myxft6MBTzZzF8B72oHGuzIOdA9Y3EH/km3jYH9Q7COPjX/+v0fXNLyMbgtJcX41genmL6seKcjALwZ84PQpXDoRoOG7BfJvLvzOaLFPHCT/NnSzs+OfeWP738mQXxgnBCdWC8OtMRjItQCn6jyAFq0PeMWc+sDJya2mdkZVd0QvGfDy+22cEJwRJ1OHO4xpICYAo3vFSr9ZxwG0yLrq3SczrtrPHzW18j5fo8w2q7wLcmZIiyOqxyLSwpRbUTR0oH3vF/jY5vu8NbvFwf998Wt+ppzmpFz8+KnQmdjfwNmaHQHju08ftKGBA21zW7WK//+nWxww/aHnRmWzYBfG8nxrGN6ws4G00Y8Cin/WmIH23g3Izp0+/8QhaEuj3CnxP73RsZGPAdbvFCvvKo0YgEU4j2C4OhFRGpJy+4uGC8Cibjcszgqd7MkG2Tpn6h0BVsMCsFTOjJOBxxlw67kW4FANFIAeHET05WorptTqcKBhjROAnu3UKHdmrF53XwNwv1NWgsOBAOjHaYRJcZSjifu6IDB/v4YIQB9dVB3TLH15FHCRBghA39cLlI8IytfYS48yNPYIDQ+AGvlVSLKXGKB7cxfgOA0OgNrpFp2wcmQXA/XSTgIu0dgAqKk8JMXBBuulSCd7pAYGQO23E3bzD9lBsOi7ArL3alwANEPxg+pNt7Jok4CzNSoAGmRDdIgBfKGZemPgTRoUAI17PJAUxxjIF7QgsHiRhgRAo3cPdLLtDejzehRQnKIRAdBw/ycka+9jUJ/z44DsAo0HgBZYE5LRhxvYZ5vhiR1iod2i4QDQEleFbnGQAX5WjwLGnq7BANAyN0QvMMjPuCgwO1ZjAaCFbglD2UsN9FtcD5B/RUMBoKU2hm7xOoP9Xb8v4AqNBIBWTwSS/I0G/M0vCtyogQDQcptCmr/JwH+HlwaNH6hhADAwdwTS4giD/x/fF/AGjQKAAXJz6I491wRgaj3ASRoEAIO3fbA42CQgyVdpDAAMoN+GobFHDPok4EcaAgADaiyka3Yb5EnArzQCAAZXcX5Yvm7HAdweeMm2sQBu1wAAGGjd/IwwObnVgN0FmNhD5QNAdUfgmAGbBIw9RqUDQOX2wdo6mOSHqHQA+IPfhJVrHzQgk4Di5SocAO7gJ+HUke0G4O2BxVtUNgDcaaHgxwbgyODib1U2AGxufUDx7JZPAvL3q2gA2Ky1IVl7nza/POgfVDIA3KWvtnlNwD+qYADY4vkBr2npJCA/QeUCwBZdGU4fuV8Ltwhmx6tcAJhR2sbDgj6oYgFgNtsG23aaYJq/T8UCwCyk+Wi73jbonAAAmMPdgOzDbVoT8DaVCgCzdmNYNfbgtjwOeJUKBYA5WdWSSUD2PJUJAHOyKSTFwc2fBAzlT1CZADBn54XJya0aviZgdC8VCQDz2S1QvLjZk4DhiR1UJADMy09bcDcgv1ZFAsC8HNb0bYIXq0QAmJefh2WTWzd4ElB8QyUCwHzXBuSHN/nUwFNUIgDMdxKQXeDoYAAYXE9p6sLAF6g8AFiQLzd0EjCxh8oDgAXZGLrjD23q3YArVSAALGiB4P9q6iTguyoQABbkqnDqyHZNnAR8XOUBwAJ1i1c0cIdA/mqVBwALnQRkZzdvEtDJ9lZ5ALBgm5q5QDApxlUeACxUsayJ6wJWqzgAWLDLG7guIHuHigOAxdguOL5f09YFPFLFAcCi+KcmPhIYUXEAMIiPBJL8VBUHAIugM7F/syYBafY8FQcAi7JL4JhmTQLK4w6T/FoVBwAL9v0mPhIYVnEAsGC3hBWX36Npk4DDVBwALILu+F838ZHA71QeACz0vID8s018odBpKg8AFuyy5k0C0vxZKg4AFmxTOG3i3s2aBExObhW/8StUHgAsdF1A/ldNfCTwfpUHAAt2UvMmAauKXeM3foPKA4AF+Y/QyCRFV+UBwIJcH5ZNbt2sCUD5DXezj6g8AFigzujDGvRa4Yn94zf9YxUHAItyXsDh9R/8hyd2CEl2fCiPOlRpALBIimX1ngAMjT8tfqMjKgoAFv1OwFdq+ul/cptqhpLkG1UUACyJK+o3ATh9zZ5xAvADlQMAS+rW6kN3fW7/Zy+N39RvVQwA9ED5wbseRwIXx8Rv6HaVAgA9Uq696+/Wv2z7+I0MqQwA6PXiwOK1/ZsArBjfPaTZBSoCAPriuD4d/zv2mPiXr1UBANA3X+jD2wCLA+JffJXCB4C++lo/DgD6vYIHgD7rZuf28BFAfkh0nYIHgDpMAvJLezMBSPMXxr/wZoUOALWZBKzvxRqAg+JfdoMCB4BaubUXrwC+WkEDQA0t3R2A8YfGv2CdQgaAQZoEpGt2C2k+qoABYJAmAcsvvHucAJyjcAFg0CYBSf4ZBQsAgzYJSPM3KVQAGLRJQJI/xVkAADBok4Dlo/eMf1imQAFg0CYBSb5KYQLAoE0CkuLlChIABm0SsHLtg4ITAQFgwCYBk5NbxT/g+woRABpp00JeDPQ6BQgAjXX1/CYAq4pd42/+jQIEgMYame9iwM8pPABotJ/M4/XA4wfG33i7wgOABkvzb85jMWBxvsIDgMZL5/pugMMVGgC0QDf7yOwnAMOT28TfdJmCA4A2PA7I3u4NgQAwiDrZ82e5GDDbPv6GQqEBQEsMjT1ilgcDZe9QYADQGpvC8MQOM08Alk1uHb/4CgUGAK2xbnZ3AYaylyosAGjVzoCzZ/so4FwFBgBtmgTkH5vFjoDxJyosAGib7MhZTAKyREEBQNvuBBQHzHA40Iad4xdep7AAoFU2zrwzoJu9QUEBQOseBVw8m9cF/0BBAUDLpPlnZzohcO/qIAGFBQBt2xnw6hnuAuTHKSgAaKEVxT4zTQIuVFAA0Dq/2vIEYMX47h4FAEArFwV+aYa7ANnbFBIAtHJR4JtmOCAo/6aCAoAWOn3Nnls4IGhih/hFNygoABi08wGS/BCFBABt3BqYfWSGUwLzDykoAGilQ2Y6JfAshQQArXNlOGfybnc9AVg2uXX8omsUFAC07VFA8S8zHRX8OAUFAK3cGvisGdYDFG9VUADQtrsA+fowPLnNTIcEfUJhAUDr7gJ8duZXB3ezsxUWALRMJ3vyzJOAJF+rsACgVX4+8wRg5cguwUuDAKBljwKyo2eeBKTZkxQWALTKzWH1uvvO4lFA9kqFBQCt2hVwRphVytsFCgwAWqQ4eHaTgPKlAgoMANqyFuCCMOskearQAKAtk4DiiLlMAr6j0ACgFbItvyzozpOAixQaALRiLcBRYU5J8hGFBgCNtyEMb9h5rpOACQUHAI1fEHh0mHPKmYPCA4AmWxeGJ3aYzyTgWoUHAE2+C5C/K8wrSX6LAgSAxirCqSPbzXcScLsCBIDG3gV4VZh3ypcMKEQAaKLzwuTkVguZBFgTAADNsykkY38ZFpQkv1JBAkDjtgQmYcFJ8rUKEwAa5fchmdhj4ZOAbn6pwgSAQdgSeOdXCZ+rQAGgMX4Shie3WaRJQP51BQoAjXBbGBp7bFi0dPPTFCoANOIxwAlhUdPNT1SwAFB7Pw3Dl2y7uJOAtHiLggWAWrspdCb2D4ueoeI5ChcAau2dYUnSGX2YwgWA2q4D+N8LOxp4SynfPJTkGxU0ANTO2pCu2S0saZL8FwoaAGrl1pAUB4clT5IPK2wAqNVjgHeFniTJj1PgAFAbq0PPkmQvUeAAUAs/C8vX7di7ScDqsfsrdADou1+F09fsGXqeJB9T+ADQN9eFTva40Jek+UoVAAB9sTF0x/869C3laUQqAQD6sBMge3voa9L8USoCAHotOzbUItYFAEDvdItTQm2SZstVCgD0xGdCrZLkh6kUAFhyK8Kyya3rNQkY3rBz/MZuVDkAsGQ+tXRvBVz43YCvqiAAWIo1ANlHQq2TZv9NRQHAou8CODnUPh4JAMBi2hjKs3gak25+hkoDgAW7PiTFi0KjkhSHqjgAWJBfh3T8iaFxKbctpPmoCgSAeT3/vzh0sr1DY9PNP6QSAWCuii+GdP1OodFJ1+wWf5ibVCYAzHYBYHFMfc8AmPuZAaerVACY0YbokNCqpOP7xR9qk8oFgLv03bBifPfQynSzs1UwANzJLSHN39ee2/+b3y54sIoGgDv4RRjKnxAGIkn+PRUOAPltIc0+2fzV/3PJUP5UFQ/AgPuv0Bk/MAxkkuIsDQCAAXRjSLJjwzmTdwsDm5XFo6vbIBoDAIPjzJDmDwlS3Q34nAYBwAC4LKTZ8wz8dz5F8BqNA4CWWhcH/7eH4cltDPqbnQhkR2skALTMlaGbvz8sX7ejgX6mNwwm+Y81GABa4NqQZCeH5aP3NMDPem3A2GNiwd2q8QDQSN18fRz8jw+ril0N6vOaCMSZk4YEQLP8PI5fR4bhS7Y1kC8kp45sVx2coEEBUG/lneuvVqv9W33Of3/ODrhRAwOghkaqW/6nr9nTgL10bxl8r4YGQG1W+afZ8tDJnulTf+92C5yp4QHQJ78L3aITB/7nD/bRvv1KJ7tXrIQ1GiIAPZHmo9Xb/JLi0GqNmvR7t0D++OgmjROAJVBEq+In/rd6xl/b9QHF6zRUgNqukL+6Id9rueD8/4Zu/un4if9VBv1GHSucn+BiA6jb7fPif0zdtZ3Yo9oql+QfiL8m1WBbLqbrz/d1fbVvv5t/PToxfo9HhKGxRzi3v8kpV2N28zNcdAC1kc94Jn66fqfQLfYNSfGi+PXvDt3sw9Un8an+/DvRz6rn8OWfNXVHoXTL9J9/+5/8t7XV13XzS+OfcW78969FX6gmIUn+dyHJXhknH0+qXkgnrV0ouP105bv4APptKHupgUl6fJDQyC7Tt5lcgAB9U5xlQJL+ZPW6+1a3hFyIAP1wXUjzhxiMpI9bByf2CEn2SxcjQM+92SAkNbgjMHb/OBG42AUJ0CvZvxp8pD45beLeIc0ucGECLLkN1YcvkdpNBJL8hy5QgCWzKaTFiw04Us+UZzw7RwBgaZSH7ojUOuWBQuU7nl2wAIu5HfDbTtuT5iQt3hIb7s0uXIAFLwT8ZfVGV5FmTQSyJ1XHTLqIAebr2urIX5FGplzFmubnuJAB5uyWkBSHGkikBesEiqPCH19IAcCW3R66xSsMINKedMYPjA17xMUNMIM0O9qgIe3LisvvUb3Ccur1lC50gDv7J4OFtDtD+VNjQ7/MxQ5wh50AJxsgZEAeD2TbT58pcKMLH3AYUPH3BgYZvFRvI8zT6khMHQEwkMcBWwMgg57u2NPjxfBjHQIwWNsAsyMNACJ/uDNQHBovjAt1DkDLXR0dotMX+fOUZwuk+eHxAvmJjgJo5VHAyejDdfYiM2Vo/Gmhm/2bbYVAS3y/ev26iMxlMjDxF9X2mW6+XicCNHQB4CfD8gvvrkMXmW+GL9k2pMURIc2/6ShioCHWxT7rWTpwkcVMeUstzd8UL7DvRLfpaID6Kc4K6ZrddNgiS5l0/U4hLV4c0mx5vPAmdDxAn11TvTxt2eTWOmiRXqbaXTC+X+hm7whpvjJejIUOCejhp/9vhBXju+uMReqSofyBIc2eVx3NOTUxuCi6dok7g5ujK6KvxQnJh0M3f1nojD7MOQjQ4mf/XgEs0qCsXnff6jXH5YWbFO+ZHqw/Hf/5i9NrDaLi/OmB+09N/b80/0r8/5+Lv+fE+HvfG//5NdHB1XHI5R2JzSXJ36yzhFa5vnoXyvCGnXWqIrLlLF+34/RpYTpPaLbbq3eflHcaRURmnSQ/VQcKjbWxultYrj0SEZlzVhaP1pFSc78Lafb66AJlcYd1Pp+vDi8TEVng3YD/0KlSYyf9oa12i4Om1r+Un4AHsiyujD5qxb+ILF7Kkw8NNNTTjZs94KZc8NrN/mF618sgPO//TkiyV4ZTR7bTYYnI4qY8RKSbX2rAoXbKHTJbSrnzpdoFk38+2tCyn/8XIc1PCCuKfXRSIrK0qbYmGnSoldtCJ9t71m14eHKbkGbPiJ+YPxF/b97Qn7nc9vvBOPg/SqckIr29G5DkPzfwUCNDC2rTneyR8c94Z/TV6Lc1/RnXxAl4p1r4mIzupSMSkf7F2gDqdBdgMT8Nl5PcchtdNdjmn4rOq9Yb9PbRxvrq2X63OCX+bK+q1jWIiNTrbkB2sQGIGvhMT9p7+bhhqHhOdcegHJy7+dfjP/8wXge/jL9eN8fvufz6y6LvVQf3JNnJ8dd3xz/32eH0kfvpYESkAXcD8sMNQPT9rXd1GTSHJ3YIq4pdw8q1D6oW6JV3J7rFAdX+/PLfy9eId7J76ThEpD2Z+iRjMKJfPuAiFBHpV6ZOEbzVYEQfjMVP1tu7CEVE+ns34KMGJHp/LoDX34qI9D/lq0iTfMLARO8mANnZd/naaxER6XEcIETvXO9kPBGRuiUpvm2Aogd3Ad7hYhMRqd0kYGKPGp+2Rhuk+TkeA4iI1DXODmDp3FDtuRcRkTrfESi6BiyW4C7Au1xcIiJ1T7VboDpK1cDFIim+4TGAiEhT0hk/0CFCLI44oVw+ek8XlYhIk5JkxxrAWPA6gM7E/i4mEZGmpbx9m+YrDWTMfx1A9noXkohIU1O+WS0pzjegMQ+fdwGJiDQ9newBcSIwblBjDr4fTh3ZzsUjItKGJPnjq+NeDW7MvBDw4jhxvJeLRkSkTUmLI2Inf7tBji3Iw4rx3V0sIiJtTDd7g4kAd+G3oZM90kUiItLmJMV7DHj8mRtDtzjIxSEiMghJs6MNfPzhLICkONRFISIyWHcElhkAB165WPQQF4OIyCCmm59oIBxY10RPcRGIiAz2HYH3WCw4cH4X0uxJGr+IiITQLV4RB4abDY4D4Vehkz1OoxcRkT+mkz2z+oRokGyz/wrJ6F4au4iIbO6OwL6OGG6tb4WVI7to5CIictdZufZBccA4z6DZKh8Nyya31rhFRGTmDF+ybRw4TjV4Nt5N0Rs1aBERmXuGspdObyUzoDbP5RYAiojIwpKMPrx6s5xBtUnSMLxhZ41XREQWnnT9TnFg+UK0yQBba78P3exvNFgREVmCuwLFoXGgGTPY1tKPQnf8oRqpiIgsXZav2zEk2clx0Nlo4K3J6X9JcZTV/yIi0rsM5U+NA9AvDMJ9dWZIJvbQGEVEpPfpZNuHNP/vcTC61oDcU2tCd+y5GqCIiPQ/6Zrd4sD0meg2A/SSuir6QBie2EGjExGReqXaTpgP20Ww6K6v1mF0sntpZCIiUu8MjT8tpPk5Bu8Fu6U6uXH12P01KhERaVbS8SfGT7BfspNgHvv9k+wT8ZP/3hqRiIg0O+VgNrWt0BHEWzYWkuKYsKrYVaMREZF25bSJe8fJwLG2Fv6Z8tFJ+Z4Ge/1FRGQg0i32nb478JsBHfzzqZ9/9OEag4iIDGbK1xZPva3wa9Ovvm3zwL8uTn5OqdZKiIiIyJ+kOpI4f0FIs0/GX69owaC/Mf4sF8RfT4q/PiMMT26jkkVERGaTNH9I6GbvCEnxjTiQbmjIwJ9Fnw9pcUS1BkJEREQWISvGd4+D64tDkh1fnZvfzdf3/fZ+dX5//H7K72sof6BKEhER6VWS0b1Ct3h26GZvmJ4cnB59N/7zL+OvNy98v35+SfStkGbL46/Hxb/rdaE79vSwfPSeCl9ERKTOKffcd7IHhBXFPmFo7LGhM35gSIpDoxdVt+zT/IXVv5eL9cr/X35decdheMPOCk9EBiH/DytdnIA7HZ+8AAAAAElFTkSuQmCCwETvJgDZ2Xf52msREelxHCBE71zvZDwRkbolKb5tgKIHdwHe4WITEandJGBijxqftkYbpPk5HgOIiNQ1zg5g6dxQ7bkXEZE63xEougYsluAuwLtcXCIidU+1W6A6StXAxSIpvuExgIhIU9IZP9AhQiyOOKFcPnpPF5WISJOSZMcawFjwOoDOxP4uJhGRpqW8fZvmKw1kzH8dQPZ6F5KISFNTvlktKc43oDEPn3cBiYg0PZ3sAXEiMG5QYw6+H04d2c7FIyLShiT546vjXg1uzLwQ8OI4cbyXi0ZEpE1JiyNiJ3+7QY4tyMOK8d1dLCIibUw3e4OJAHfht6GTPdJFIiLS5iTFewx4/JkbQ7c4yMUhIjIISbOjDXz84SyApDjURSEiMlh3BJYZAAdeuVj0EBeDiMggppufaCAcWNdET3ERiIgM9h2B91gsOHB+F9LsSRq/iIiE0C1eEQeGmw2OA+FXoZM9TqMXEZE/ppM9s/qEaJBss/8KyeheGruIiGzujsC+jhhurW8=;" vertex="1" parent="1">
          <mxGeometry x="-406.5" y="681.59" width="83" height="58.41" as="geometry" />
        </mxCell>
        <mxCell id="4sYesMDpXX-5hcElLDRR-247" value="" style="shape=image;verticalLabelPosition=bottom;labelBackgroundColor=default;verticalAlign=top;aspect=fixed;imageAspect=0;image=data:image/png,iVBORw0KGgoAAAANSUhEUgAAAgEAAAFpCAYAAAAFqfvLAAAeP0lEQVR42u3dCZglRYEn8ACUWxQPVBBEHE/ACxkP8EDxHB0FRXe88L4dcNSBcWUaB9hBVxfFY2yleS+zuhstzxkcF/FgZFWEZZRBQLC6KjOr2rZtEJH7aLo2MqtWRZqu+73MfL//9/2+5qjuroqIjIiXGREZgoiIiIgMYE6buHdYUewThvInhG5xQEjG/jIkxaF/4uDqv5fKr1s19uCQrt9JwYmIiNQ5p6/ZM6TZM0KSHRkdH/85iYP6D0I3vzQk+W+ijdHkPN0Q5dFPojOjz8eJwt/HXw8L6fh+oZNtrwJERESWOudM3i0OvE+Mg/Bb4wD/6WqgT/KrFzDAL4ZNURHS/JvVBCQpXhRWj91fZYmIiCwkKy6/RxxcXxidEJ0TB9vr+zzgz0ExHr/nr0TvCkNjj1CZIiIiM6Uzsf/07fbvR7c2Z9Cf0UT8uTpxcvCacPrI/VS0iIjI5ORWYSh/akiyT1Sfntsz6G9JuUbhe9E7Qyd7gEYgIiKDlWqFfv7xARr478rtoZudG8vhPdUOBhERkVZm5cgu04v6/nPAB/67cnM0XG1ZLO+QiIiIND5Te/M709vtDPazMxKS7NiQrL2PBiQiIs1K+Um2OoSn2ltvUJ+/60OaLQ+d0YdpVCIiUu+Ue/mT/I3RLwzgi+q2aFXoZI/TyEREpF4ZntwmpMVrp25jG7SXVDf/eugW+2p0NZn0LpvcWkGIyGCmvO2fFkfEwekyA3SvtxkW3eodB7I4WX7h3cPQxF+EoeI5IcneFsv3n6u1LN3s32J5/zj+t19On1B5dbWr4851cs30/xsLaT4af//507/3M9FxIc1eH7pjzw2d7JHV5EFEpNEpj/BN8h8akPu9oyD7hO2Fc0x5PkOSv2Bq8WX2pfjPVyzwHRNzdUv0s2goThaOmfpeJvZQMSJS/wzlD6wWq/W202TL4ifQ4ii3pu8iK8Z3r+5Yle126sVSm2paj+uqbaLlVto0f4iKE5H6pBxgkvzd0bUG3dr6URgae+zAt9VTR7aLA/7zpl40lWcNrs+x6Avx5/ir6mcSEelLVhaPrgYYg2wzdhJ0i1NCun6ngWqj5Wudu/nLqhc3NeplU7P2+2h1SIqXD1zdikifUr2+t/jH6dPsDLCNO3Aof0r7704Vh04fRnXNANXtjXHCc0ac8DzL6ZIislSfrPa28K8F7yZIs0+27lZyJ7vX9BHUl6rjcrJXHBPSNbvptERkcZLmb4qdy3U62Nb4WUjH92t8uyzXO5RbI5P8JnW6uR0H2ZeqXTsiIvNK+ZKfqWeqOtU23kJOsiMb2S67Y0+P3/+3aryqv2aKs6oyExGZfUdb7Du9X1on2mblNrmmPB6oDu4pD+pRb/P0wzipf6F1AyKy5STZSwZsYdWgHz38n7Xeh94ZPzB+n99VV4t2Z+D8OMk/SEcnIndMubq6m33EbdaBdFXoZM+sVXtcUewTv68va49LYlP1EqpkdC8dn4iEMDyxg+f/FpOFbv7qWrTFJDvegr+ebS88MQxv2FknKDKoKbcTJfl5OkSmPyF+sM+PosbUQ88VoZM9X2coMmjpjD5s6i1nOkLu4As9fbvd6nX3DUnxReXe9/UC3bCq2FXHKDIQdwDG94sX/q91fGxe9q892TmQ5ofHv+83yrs2fl3ViYi0ON3igHixX6nDYwb/Xp3DvxQpz6GoFqcp55oaslZApJ0TgINsAWQOt4i/XS3WW9y7UE+Mf/YaZVt7l4dk7DE6TZG2JMkfH/1O58YcJwI/WJRPheVBNUlx1NSxtsq1IW6q6kxEGp7qrPX8ap0a8/SdMHzJtvP/9L9+p+l9/8qykadL5iu9tliksXcARh9uESCLcLrg18Pw5DZzbn8r1z4o/v4LlWHjXRROX7OnDlWkSSkv2iRfqwNjkXxqTu1v6oU/G5Rbax4NjVsnINKUrLj8HtXsXefF4t4R+NDsHgFU2/+c/Nc+14W0eLEOVqTOWX7h3UM3O1uHxZKcLJhmr9/yI6hqAeDtyqq1NoYke5uOVqS26wDyFToqltDNoZM9+U7trtoBkJ2sfAZmMni0zlakbikvTB0UvThdLpnY4w4TgDT7pHIZOMfpdEXqkqH8qfZh00PnVccLV3cA8k8pj4E9Zvpkna9I3x8BxE9l3Xy9DokeLxQ8LXSLf1EWA3+WwAk6YZF+pVwImOQ/1hkBffR3OmORvtwFyE/SAQF9XyyYZEfqkEV6OgEoDp7asqMTAvru1tDJnq9jFunJY4DRe8aLLtfxADVyQ/QUHbTIUqd8sYcOB6jfgtH11XsjRGTJJgAv1NkANfbTMDyxg85aZLGzcmSXqZd56GiAOm8dzBIdtsji3wX4rA4GaMhE4O06bZHFytSpgF7OAjTFLRYKiixGlk1uHS+mC3UqQMOMVY8xa3t3df1OYdXYg0Nn/MD4vb4gpMVrp97DUhwzdQ5LdnLo5h+L/235H5V3ZMsXZlWOn/7aN0eHhe7Y00O32DesHrt/GJ7cxuAli5Mkf6POBGjmjoGi09f+s5PtPTXA5++Kv348+lp0UfT7JT87Ic1H46/fnTpmO/9Q6GZ/E5Kxx1SnvYrMKisuv8fUm9t0JkBjHbbkfWX5yXto7LHx0/rr48TjlDgAnxP/3qtre7jS1ERkKPpAnKg8Myxft6MBTzZzF8B72oHGuzIOdA9Y3EH/km3jYH9Q7COPjX/+v0fXNLyMbgtJcX41genmL6seKcjALwZ84PQpXDoRoOG7BfJvLvzOaLFPHCT/NnSzs+OfeWP738mQXxgnBCdWC8OtMRjItQCn6jyAFq0PeMWc+sDJya2mdkZVd0QvGfDy+22cEJwRJ1OHO4xpICYAo3vFSr9ZxwG0yLrq3SczrtrPHzW18j5fo8w2q7wLcmZIiyOqxyLSwpRbUTR0oH3vF/jY5vu8NbvFwf998Wt+ppzmpFz8+KnQmdjfwNmaHQHju08ftKGBA21zW7WK//+nWxww/aHnRmWzYBfG8nxrGN6ws4G00Y8Cin/WmIH23g3Izp0+/8QhaEuj3CnxP73RsZGPAdbvFCvvKo0YgEU4j2C4OhFRGpJy+4uGC8Cibjcszgqd7MkG2Tpn6h0BVsMCsFTOjJOBxxlw67kW4FANFIAeHET05WorptTqcKBhjROAnu3UKHdmrF53XwNwv1NWgsOBAOjHaYRJcZSjifu6IDB/v4YIQB9dVB3TLH15FHCRBghA39cLlI8IytfYS48yNPYIDQ+AGvlVSLKXGKB7cxfgOA0OgNrpFp2wcmQXA/XSTgIu0dgAqKk8JMXBBuulSCd7pAYGQO23E3bzD9lBsOi7ArL3alwANEPxg+pNt7Jok4CzNSoAGmRDdIgBfKGZemPgTRoUAI17PJAUxxjIF7QgsHiRhgRAo3cPdLLtDejzehRQnKIRAdBw/ycka+9jUJ/z44DsAo0HgBZYE5LRhxvYZ5vhiR1iod2i4QDQEleFbnGQAX5WjwLGnq7BANAyN0QvMMjPuCgwO1ZjAaCFbglD2UsN9FtcD5B/RUMBoKU2hm7xOoP9Xb8v4AqNBIBWTwSS/I0G/M0vCtyogQDQcptCmr/JwH+HlwaNH6hhADAwdwTS4giD/x/fF/AGjQKAAXJz6I491wRgaj3ASRoEAIO3fbA42CQgyVdpDAAMoN+GobFHDPok4EcaAgADaiyka3Yb5EnArzQCAAZXcX5Yvm7HAdweeMm2sQBu1wAAGGjd/IwwObnVgN0FmNhD5QNAdUfgmAGbBIw9RqUDQOX2wdo6mOSHqHQA+IPfhJVrHzQgk4Di5SocAO7gJ+HUke0G4O2BxVtUNgDcaaHgxwbgyODib1U2AGxufUDx7JZPAvL3q2gA2Ky1IVl7nza/POgfVDIA3KWvtnlNwD+qYADY4vkBr2npJCA/QeUCwBZdGU4fuV8Ltwhmx6tcAJhR2sbDgj6oYgFgNtsG23aaYJq/T8UCwCyk+Wi73jbonAAAmMPdgOzDbVoT8DaVCgCzdmNYNfbgtjwOeJUKBYA5WdWSSUD2PJUJAHOyKSTFwc2fBAzlT1CZADBn54XJya0aviZgdC8VCQDz2S1QvLjZk4DhiR1UJADMy09bcDcgv1ZFAsC8HNb0bYIXq0QAmJefh2WTWzd4ElB8QyUCwHzXBuSHN/nUwFNUIgDMdxKQXeDoYAAYXE9p6sLAF6g8AFiQLzd0EjCxh8oDgAXZGLrjD23q3YArVSAALGiB4P9q6iTguyoQABbkqnDqyHZNnAR8XOUBwAJ1i1c0cIdA/mqVBwALnQRkZzdvEtDJ9lZ5ALBgm5q5QDApxlUeACxUsayJ6wJWqzgAWLDLG7guIHuHigOAxdguOL5f09YFPFLFAcCi+KcmPhIYUXEAMIiPBJL8VBUHAIugM7F/syYBafY8FQcAi7JL4JhmTQLK4w6T/FoVBwAL9v0mPhIYVnEAsGC3hBWX36Npk4DDVBwALILu+F838ZHA71QeACz0vID8s018odBpKg8AFuyy5k0C0vxZKg4AFmxTOG3i3s2aBExObhW/8StUHgAsdF1A/ldNfCTwfpUHAAt2UvMmAauKXeM3foPKA4AF+Y/QyCRFV+UBwIJcH5ZNbt2sCUD5DXezj6g8AFigzujDGvRa4Yn94zf9YxUHAItyXsDh9R/8hyd2CEl2fCiPOlRpALBIimX1ngAMjT8tfqMjKgoAFv1OwFdq+ul/cptqhpLkG1UUACyJK+o3ATh9zZ5xAvADlQMAS+rW6kN3fW7/Zy+N39RvVQwA9ED5wbseRwIXx8Rv6HaVAgA9Uq696+/Wv2z7+I0MqQwA6PXiwOK1/ZsArBjfPaTZBSoCAPriuD4d/zv2mPiXr1UBANA3X+jD2wCLA+JffJXCB4C++lo/DgD6vYIHgD7rZuf28BFAfkh0nYIHgDpMAvJLezMBSPMXxr/wZoUOALWZBKzvxRqAg+JfdoMCB4BaubUXrwC+WkEDQA0t3R2A8YfGv2CdQgaAQZoEpGt2C2k+qoABYJAmAcsvvHucAJyjcAFg0CYBSf4ZBQsAgzYJSPM3KVQAGLRJQJI/xVkAADBok4Dlo/eMf1imQAFg0CYBSb5KYQLAoE0CkuLlChIABm0SsHLtg4ITAQFgwCYBk5NbxT/g+woRABpp00JeDPQ6BQgAjXX1/CYAq4pd42/+jQIEgMYame9iwM8pPABotJ/M4/XA4wfG33i7wgOABkvzb85jMWBxvsIDgMZL5/pugMMVGgC0QDf7yOwnAMOT28TfdJmCA4A2PA7I3u4NgQAwiDrZ82e5GDDbPv6GQqEBQEsMjT1ilgcDZe9QYADQGpvC8MQOM08Alk1uHb/4CgUGAK2xbnZ3AYaylyosAGjVzoCzZ/so4FwFBgBtmgTkH5vFjoDxJyosAGib7MhZTAKyREEBQNvuBBQHzHA40Iad4xdep7AAoFU2zrwzoJu9QUEBQOseBVw8m9cF/0BBAUDLpPlnZzohcO/qIAGFBQBt2xnw6hnuAuTHKSgAaKEVxT4zTQIuVFAA0Dq/2vIEYMX47h4FAEArFwV+aYa7ANnbFBIAtHJR4JtmOCAo/6aCAoAWOn3Nnls4IGhih/hFNygoABi08wGS/BCFBABt3BqYfWSGUwLzDykoAGilQ2Y6JfAshQQArXNlOGfybnc9AVg2uXX8omsUFAC07VFA8S8zHRX8OAUFAK3cGvisGdYDFG9VUADQtrsA+fowPLnNTIcEfUJhAUDr7gJ8duZXB3ezsxUWALRMJ3vyzJOAJF+rsACgVX4+8wRg5cguwUuDAKBljwKyo2eeBKTZkxQWALTKzWH1uvvO4lFA9kqFBQCt2hVwRphVytsFCgwAWqQ4eHaTgPKlAgoMANqyFuCCMOskearQAKAtk4DiiLlMAr6j0ACgFbItvyzozpOAixQaALRiLcBRYU5J8hGFBgCNtyEMb9h5rpOACQUHAI1fEHh0mHPKmYPCA4AmWxeGJ3aYzyTgWoUHAE2+C5C/K8wrSX6LAgSAxirCqSPbzXcScLsCBIDG3gV4VZh3ypcMKEQAaKLzwuTkVguZBFgTAADNsykkY38ZFpQkv1JBAkDjtgQmYcFJ8rUKEwAa5fchmdhj4ZOAbn6pwgSAQdgSeOdXCZ+rQAGgMX4Shie3WaRJQP51BQoAjXBbGBp7bFi0dPPTFCoANOIxwAlhUdPNT1SwAFB7Pw3Dl2y7uJOAtHiLggWAWrspdCb2D4ueoeI5ChcAau2dYUnSGX2YwgWA2q4D+N8LOxp4SynfPJTkGxU0ANTO2pCu2S0saZL8FwoaAGrl1pAUB4clT5IPK2wAqNVjgHeFniTJj1PgAFAbq0PPkmQvUeAAUAs/C8vX7di7ScDqsfsrdADou1+F09fsGXqeJB9T+ADQN9eFTva40Jek+UoVAAB9sTF0x/869C3laUQqAQD6sBMge3voa9L8USoCAHotOzbUItYFAEDvdItTQm2SZstVCgD0xGdCrZLkh6kUAFhyK8Kyya3rNQkY3rBz/MZuVDkAsGQ+tXRvBVz43YCvqiAAWIo1ANlHQq2TZv9NRQHAou8CODnUPh4JAMBi2hjKs3gak25+hkoDgAW7PiTFi0KjkhSHqjgAWJBfh3T8iaFxKbctpPmoCgSAeT3/vzh0sr1DY9PNP6QSAWCuii+GdP1OodFJ1+wWf5ibVCYAzHYBYHFMfc8AmPuZAaerVACY0YbokNCqpOP7xR9qk8oFgLv03bBifPfQynSzs1UwANzJLSHN39ee2/+b3y54sIoGgDv4RRjKnxAGIkn+PRUOAPltIc0+2fzV/3PJUP5UFQ/AgPuv0Bk/MAxkkuIsDQCAAXRjSLJjwzmTdwsDm5XFo6vbIBoDAIPjzJDmDwlS3Q34nAYBwAC4LKTZ8wz8dz5F8BqNA4CWWhcH/7eH4cltDPqbnQhkR2skALTMlaGbvz8sX7ejgX6mNwwm+Y81GABa4NqQZCeH5aP3NMDPem3A2GNiwd2q8QDQSN18fRz8jw+ril0N6vOaCMSZk4YEQLP8PI5fR4bhS7Y1kC8kp45sVx2coEEBUG/lneuvVqv9W33Of3/ODrhRAwOghkaqW/6nr9nTgL10bxl8r4YGQG1W+afZ8tDJnulTf+92C5yp4QHQJ78L3aITB/7nD/bRvv1KJ7tXrIQ1GiIAPZHmo9Xb/JLi0GqNmvR7t0D++OgmjROAJVBEq+In/rd6xl/b9QHF6zRUgNqukL+6Id9rueD8/4Zu/un4if9VBv1GHSucn+BiA6jb7fPif0zdtZ3Yo9oql+QfiL8m1WBbLqbrz/d1fbVvv5t/PToxfo9HhKGxRzi3v8kpV2N28zNcdAC1kc94Jn66fqfQLfYNSfGi+PXvDt3sw9Un8an+/DvRz6rn8OWfNXVHoXTL9J9/+5/8t7XV13XzS+OfcW78969FX6gmIUn+dyHJXhknH0+qXkgnrV0ouP105bv4APptKHupgUl6fJDQyC7Tt5lcgAB9U5xlQJL+ZPW6+1a3hFyIAP1wXUjzhxiMpI9bByf2CEn2SxcjQM+92SAkNbgjMHb/OBG42AUJ0CvZvxp8pD45beLeIc0ucGECLLkN1YcvkdpNBJL8hy5QgCWzKaTFiw04Us+UZzw7RwBgaZSH7ojUOuWBQuU7nl2wAIu5HfDbTtuT5iQt3hIb7s0uXIAFLwT8ZfVGV5FmTQSyJ1XHTLqIAebr2urIX5FGplzFmubnuJAB5uyWkBSHGkikBesEiqPCH19IAcCW3R66xSsMINKedMYPjA17xMUNMIM0O9qgIe3LisvvUb3Ccur1lC50gDv7J4OFtDtD+VNjQ7/MxQ5wh50AJxsgZEAeD2TbT58pcKMLH3AYUPH3BgYZvFRvI8zT6khMHQEwkMcBWwMgg57u2NPjxfBjHQIwWNsAsyMNACJ/uDNQHBovjAt1DkDLXR0dotMX+fOUZwuk+eHxAvmJjgJo5VHAyejDdfYiM2Vo/Gmhm/2bbYVAS3y/ev26iMxlMjDxF9X2mW6+XicCNHQB4CfD8gvvrkMXmW+GL9k2pMURIc2/6ShioCHWxT7rWTpwkcVMeUstzd8UL7DvRLfpaID6Kc4K6ZrddNgiS5l0/U4hLV4c0mx5vPAmdDxAn11TvTxt2eTWOmiRXqbaXTC+X+hm7whpvjJejIUOCejhp/9vhBXju+uMReqSofyBIc2eVx3NOTUxuCi6dok7g5ujK6KvxQnJh0M3f1nojD7MOQjQ4mf/XgEs0qCsXnff6jXH5YWbFO+ZHqw/Hf/5i9NrDaLi/OmB+09N/b80/0r8/5+Lv+fE+HvfG//5NdHB1XHI5R2JzSXJ36yzhFa5vnoXyvCGnXWqIrLlLF+34/RpYTpPaLbbq3eflHcaRURmnSQ/VQcKjbWxultYrj0SEZlzVhaP1pFSc78Lafb66AJlcYd1Pp+vDi8TEVng3YD/0KlSYyf9oa12i4Om1r+Un4AHsiyujD5qxb+ILF7Kkw8NNNTTjZs94KZc8NrN/mF618sgPO//TkiyV4ZTR7bTYYnI4qY8RKSbX2rAoXbKHTJbSrnzpdoFk38+2tCyn/8XIc1PCCuKfXRSIrK0qbYmGnSoldtCJ9t71m14eHKbkGbPiJ+YPxF/b97Qn7nc9vvBOPg/SqckIr29G5DkPzfwUCNDC2rTneyR8c94Z/TV6Lc1/RnXxAl4p1r4mIzupSMSkf7F2gDqdBdgMT8Nl5PcchtdNdjmn4rOq9Yb9PbRxvrq2X63OCX+bK+q1jWIiNTrbkB2sQGIGvhMT9p7+bhhqHhOdcegHJy7+dfjP/8wXge/jL9eN8fvufz6y6LvVQf3JNnJ8dd3xz/32eH0kfvpYESkAXcD8sMNQPT9rXd1GTSHJ3YIq4pdw8q1D6oW6JV3J7rFAdX+/PLfy9eId7J76ThEpD2Z+iRjMKJfPuAiFBHpV6ZOEbzVYEQfjMVP1tu7CEVE+ns34KMGJHp/LoDX34qI9D/lq0iTfMLARO8mANnZd/naaxER6XEcIETvXO9kPBGRuiUpvm2Aogd3Ad7hYhMRqd0kYGKPGp+2Rhuk+TkeA4iI1DXODmDp3FDtuRcRkTrfESi6BiyW4C7Au1xcIiJ1T7VboDpK1cDFIim+4TGAiEhT0hk/0CFCLI44oVw+ek8XlYhIk5JkxxrAWPA6gM7E/i4mEZGmpbx9m+YrDWTMfx1A9noXkohIU1O+WS0pzjegMQ+fdwGJiDQ9newBcSIwblBjDr4fTh3ZzsUjItKGJPnjq+NeDW7MvBDw4jhxvJeLRkSkTUmLI2Inf7tBji3Iw4rx3V0sIiJtTDd7g4kAd+G3oZM90kUiItLmJMV7DHj8mRtDtzjIxSEiMghJs6MNfPzhLICkONRFISIyWHcElhkAB165WPQQF4OIyCCmm59oIBxY10RPcRGIiAz2HYH3WCw4cH4X0uxJGr+IiITQLV4RB4abDY4D4Vehkz1OoxcRkT+mkz2z+oRokGyz/wrJ6F4au4iIbO6OwL6OGG6tb4WVI7to5CIictdZufZBccA4z6DZKh8Nyya31rhFRGTmDF+ybRw4TjV4Nt5N0Rs1aBERmXuGspdObyUzoDbP5RYAiojIwpKMPrx6s5xBtUnSMLxhZ41XREQWnnT9TnFg+UK0yQBba78P3exvNFgREVmCuwLFoXGgGTPY1tKPQnf8oRqpiIgsXZav2zEk2clx0Nlo4K3J6X9JcZTV/yIi0rsM5U+NA9AvDMJ9dWZIJvbQGEVEpPfpZNuHNP/vcTC61oDcU2tCd+y5GqCIiPQ/6Zrd4sD0meg2A/SSuir6QBie2EGjExGReqXaTpgP20Ww6K6v1mF0sntpZCIiUu8MjT8tpPk5Bu8Fu6U6uXH12P01KhERaVbS8SfGT7BfspNgHvv9k+wT8ZP/3hqRiIg0O+VgNrWt0BHEWzYWkuKYsKrYVaMREZF25bSJe8fJwLG2Fv6Z8tFJ+Z4Ge/1FRGQg0i32nb478JsBHfzzqZ9/9OEag4iIDGbK1xZPva3wa9Ovvm3zwL8uTn5OqdZKiIiIyJ+kOpI4f0FIs0/GX69owaC/Mf4sF8RfT4q/PiMMT26jkkVERGaTNH9I6GbvCEnxjTiQbmjIwJ9Fnw9pcUS1BkJEREQWISvGd4+D64tDkh1fnZvfzdf3/fZ+dX5//H7K72sof6BKEhER6VWS0b1Ct3h26GZvmJ4cnB59N/7zL+OvNy98v35+SfStkGbL46/Hxb/rdaE79vSwfPSeCl9ERKTOKffcd7IHhBXFPmFo7LGhM35gSIpDoxdVt+zT/IXVv5eL9cr/X35decdheMPOCk9EBiH/DytdnIA7HZ+8AAAAAElFTkSuQmCCwETvJgDZ2Xf52msREelxHCBE71zvZDwRkbolKb5tgKIHdwHe4WITEandJGBijxqftkYbpPk5HgOIiNQ1zg5g6dxQ7bkXEZE63xEougYsluAuwLtcXCIidU+1W6A6StXAxSIpvuExgIhIU9IZP9AhQiyOOKFcPnpPF5WISJOSZMcawFjwOoDOxP4uJhGRpqW8fZvmKw1kzH8dQPZ6F5KISFNTvlktKc43oDEPn3cBiYg0PZ3sAXEiMG5QYw6+H04d2c7FIyLShiT546vjXg1uzLwQ8OI4cbyXi0ZEpE1JiyNiJ3+7QY4tyMOK8d1dLCIibUw3e4OJAHfht6GTPdJFIiLS5iTFewx4/JkbQ7c4yMUhIjIISbOjDXz84SyApDjURSEiMlh3BJYZAAdeuVj0EBeDiMggppufaCAcWNdET3ERiIgM9h2B91gsOHB+F9LsSRq/iIiE0C1eEQeGmw2OA+FXoZM9TqMXEZE/ppM9s/qEaJBss/8KyeheGruIiGzujsC+jhhurW8=;" vertex="1" parent="1">
          <mxGeometry x="-406.5" y="771.59" width="83" height="58.41" as="geometry" />
        </mxCell>
        <mxCell id="4sYesMDpXX-5hcElLDRR-248" value="LAMBDA" style="text;html=1;align=center;verticalAlign=middle;whiteSpace=wrap;rounded=0;" vertex="1" parent="1">
          <mxGeometry x="-200" y="580" width="60" height="30" as="geometry" />
        </mxCell>
        <mxCell id="4sYesMDpXX-5hcElLDRR-249" value="&lt;font style=&quot;color: rgb(255, 255, 255);&quot;&gt;Account&lt;/font&gt;" style="text;html=1;align=center;verticalAlign=middle;whiteSpace=wrap;rounded=0;" vertex="1" parent="1">
          <mxGeometry x="-398" y="352.20000000000005" width="60" height="30" as="geometry" />
        </mxCell>
        <mxCell id="4sYesMDpXX-5hcElLDRR-250" value="&lt;font style=&quot;color: rgb(255, 255, 255);&quot;&gt;Oportunities&lt;/font&gt;" style="text;html=1;align=center;verticalAlign=middle;whiteSpace=wrap;rounded=0;" vertex="1" parent="1">
          <mxGeometry x="-398" y="439" width="60" height="30" as="geometry" />
        </mxCell>
        <mxCell id="4sYesMDpXX-5hcElLDRR-251" value="&lt;font style=&quot;color: rgb(255, 255, 255);&quot;&gt;Prospect&lt;/font&gt;" style="text;html=1;align=center;verticalAlign=middle;whiteSpace=wrap;rounded=0;" vertex="1" parent="1">
          <mxGeometry x="-398" y="520.5" width="60" height="30" as="geometry" />
        </mxCell>
        <mxCell id="4sYesMDpXX-5hcElLDRR-252" value="&lt;font style=&quot;color: rgb(255, 255, 255);&quot;&gt;Contact&lt;/font&gt;" style="text;html=1;align=center;verticalAlign=middle;whiteSpace=wrap;rounded=0;" vertex="1" parent="1">
          <mxGeometry x="-398" y="615" width="60" height="30" as="geometry" />
        </mxCell>
        <mxCell id="4sYesMDpXX-5hcElLDRR-253" value="&lt;font style=&quot;color: rgb(255, 255, 255);&quot;&gt;Interaction&lt;/font&gt;" style="text;html=1;align=center;verticalAlign=middle;whiteSpace=wrap;rounded=0;" vertex="1" parent="1">
          <mxGeometry x="-398" y="690.5" width="60" height="30" as="geometry" />
        </mxCell>
        <mxCell id="4sYesMDpXX-5hcElLDRR-254" value="&lt;font style=&quot;color: rgb(255, 255, 255);&quot;&gt;NPS&lt;/font&gt;" style="text;html=1;align=center;verticalAlign=middle;whiteSpace=wrap;rounded=0;" vertex="1" parent="1">
          <mxGeometry x="-400.5" y="780.5" width="60" height="30" as="geometry" />
        </mxCell>
        <mxCell id="4sYesMDpXX-5hcElLDRR-255" value="" style="endArrow=classic;startArrow=classic;html=1;rounded=0;entryX=0.917;entryY=0.14;entryDx=0;entryDy=0;entryPerimeter=0;" edge="1" parent="1" target="4sYesMDpXX-5hcElLDRR-205">
          <mxGeometry width="50" height="50" relative="1" as="geometry">
            <mxPoint x="-95" y="559.5" as="sourcePoint" />
            <mxPoint x="-45" y="509.5" as="targetPoint" />
            <Array as="points">
              <mxPoint x="-95" y="370" />
            </Array>
          </mxGeometry>
        </mxCell>
        <mxCell id="4sYesMDpXX-5hcElLDRR-256" value="" style="endArrow=classic;html=1;rounded=0;entryX=0.967;entryY=0.288;entryDx=0;entryDy=0;entryPerimeter=0;" edge="1" parent="1">
          <mxGeometry width="50" height="50" relative="1" as="geometry">
            <mxPoint x="-98" y="451" as="sourcePoint" />
            <mxPoint x="-306.96000000000004" y="451.28" as="targetPoint" />
          </mxGeometry>
        </mxCell>
        <mxCell id="4sYesMDpXX-5hcElLDRR-257" value="" style="endArrow=classic;html=1;rounded=0;entryX=0.967;entryY=0.288;entryDx=0;entryDy=0;entryPerimeter=0;" edge="1" parent="1">
          <mxGeometry width="50" height="50" relative="1" as="geometry">
            <mxPoint x="-95" y="535" as="sourcePoint" />
            <mxPoint x="-303.96000000000004" y="535.28" as="targetPoint" />
          </mxGeometry>
        </mxCell>
        <mxCell id="4sYesMDpXX-5hcElLDRR-258" value="Objetos salesforce" style="text;html=1;align=center;verticalAlign=middle;whiteSpace=wrap;rounded=0;" vertex="1" parent="1">
          <mxGeometry x="-395" y="250" width="60" height="30" as="geometry" />
        </mxCell>
        <mxCell id="4sYesMDpXX-5hcElLDRR-259" value="" style="endArrow=classic;startArrow=classic;html=1;rounded=0;entryX=0.435;entryY=0.972;entryDx=0;entryDy=0;entryPerimeter=0;" edge="1" parent="1">
          <mxGeometry width="50" height="50" relative="1" as="geometry">
            <mxPoint x="-300" y="800" as="sourcePoint" />
            <mxPoint x="-94.98500000000013" y="632.0039999999999" as="targetPoint" />
            <Array as="points">
              <mxPoint x="-95" y="800" />
            </Array>
          </mxGeometry>
        </mxCell>
        <mxCell id="4sYesMDpXX-5hcElLDRR-260" value="" style="endArrow=classic;html=1;rounded=0;" edge="1" parent="1">
          <mxGeometry width="50" height="50" relative="1" as="geometry">
            <mxPoint x="-95" y="710.5" as="sourcePoint" />
            <mxPoint x="-300" y="710" as="targetPoint" />
          </mxGeometry>
        </mxCell>
        <mxCell id="4sYesMDpXX-5hcElLDRR-261" value="" style="endArrow=classic;html=1;rounded=0;" edge="1" parent="1">
          <mxGeometry width="50" height="50" relative="1" as="geometry">
            <mxPoint x="-97" y="650" as="sourcePoint" />
            <mxPoint x="-305" y="647" as="targetPoint" />
          </mxGeometry>
        </mxCell>
        <mxCell id="4sYesMDpXX-5hcElLDRR-262" value="" style="endArrow=classic;startArrow=classic;html=1;rounded=0;entryX=0;entryY=0.5;entryDx=0;entryDy=0;entryPerimeter=0;exitX=0.169;exitY=0.503;exitDx=0;exitDy=0;exitPerimeter=0;" edge="1" parent="1" source="4sYesMDpXX-5hcElLDRR-201" target="4sYesMDpXX-5hcElLDRR-202">
          <mxGeometry width="50" height="50" relative="1" as="geometry">
            <mxPoint x="-60" y="600" as="sourcePoint" />
            <mxPoint y="200" as="targetPoint" />
            <Array as="points">
              <mxPoint x="-40" y="570" />
              <mxPoint x="-40" y="289" />
            </Array>
          </mxGeometry>
        </mxCell>
        <mxCell id="4sYesMDpXX-5hcElLDRR-263" value="" style="endArrow=classic;startArrow=classic;html=1;rounded=0;entryX=0.557;entryY=0.247;entryDx=0;entryDy=0;entryPerimeter=0;" edge="1" parent="1" target="4sYesMDpXX-5hcElLDRR-201">
          <mxGeometry width="50" height="50" relative="1" as="geometry">
            <mxPoint x="276.79999999999995" y="290" as="sourcePoint" />
            <mxPoint x="326.79999999999995" y="240" as="targetPoint" />
            <Array as="points">
              <mxPoint x="320" y="290" />
            </Array>
          </mxGeometry>
        </mxCell>
        <mxCell id="4sYesMDpXX-5hcElLDRR-274" value="" style="outlineConnect=0;dashed=0;verticalLabelPosition=bottom;verticalAlign=top;align=center;html=1;shape=mxgraph.aws3.cloud_2;fillColor=#F58534;gradientColor=none;" vertex="1" parent="1">
          <mxGeometry x="-215" y="140" width="75" height="75" as="geometry" />
        </mxCell>
        <mxCell id="4sYesMDpXX-5hcElLDRR-275" value="" style="endArrow=classic;html=1;rounded=0;" edge="1" parent="1">
          <mxGeometry width="50" height="50" relative="1" as="geometry">
            <mxPoint x="-61" y="596.95" as="sourcePoint" />
            <mxPoint x="50" y="450" as="targetPoint" />
            <Array as="points">
              <mxPoint y="597" />
              <mxPoint y="450" />
            </Array>
          </mxGeometry>
        </mxCell>
        <mxCell id="4sYesMDpXX-5hcElLDRR-276" value="" style="endArrow=classic;html=1;rounded=0;entryX=0.015;entryY=0.942;entryDx=0;entryDy=0;entryPerimeter=0;" edge="1" parent="1">
          <mxGeometry width="50" height="50" relative="1" as="geometry">
            <mxPoint x="-0.5" y="598" as="sourcePoint" />
            <mxPoint x="61.80000000000018" y="804.6399999999999" as="targetPoint" />
            <Array as="points">
              <mxPoint y="805" />
            </Array>
          </mxGeometry>
        </mxCell>
        <mxCell id="4sYesMDpXX-5hcElLDRR-277" value="" style="endArrow=classic;html=1;rounded=0;entryX=0;entryY=0.714;entryDx=0;entryDy=0;entryPerimeter=0;" edge="1" parent="1" target="4sYesMDpXX-5hcElLDRR-207">
          <mxGeometry width="50" height="50" relative="1" as="geometry">
            <mxPoint x="1.5" y="710.5" as="sourcePoint" />
            <mxPoint x="51.5" y="660.5" as="targetPoint" />
          </mxGeometry>
        </mxCell>
        <mxCell id="4sYesMDpXX-5hcElLDRR-278" value="" style="endArrow=classic;html=1;rounded=0;entryX=0;entryY=0.714;entryDx=0;entryDy=0;entryPerimeter=0;" edge="1" parent="1">
          <mxGeometry width="50" height="50" relative="1" as="geometry">
            <mxPoint x="1.5" y="632.5" as="sourcePoint" />
            <mxPoint x="60" y="632" as="targetPoint" />
          </mxGeometry>
        </mxCell>
        <mxCell id="4sYesMDpXX-5hcElLDRR-279" value="" style="endArrow=classic;html=1;rounded=0;entryX=0;entryY=0.714;entryDx=0;entryDy=0;entryPerimeter=0;" edge="1" parent="1">
          <mxGeometry width="50" height="50" relative="1" as="geometry">
            <mxPoint x="1.5" y="545.79" as="sourcePoint" />
            <mxPoint x="60" y="545.29" as="targetPoint" />
          </mxGeometry>
        </mxCell>
        <mxCell id="4sYesMDpXX-5hcElLDRR-280" value="" style="endArrow=classic;startArrow=classic;html=1;rounded=0;entryX=0.498;entryY=0.58;entryDx=0;entryDy=0;entryPerimeter=0;" edge="1" parent="1" target="4sYesMDpXX-5hcElLDRR-201">
          <mxGeometry width="50" height="50" relative="1" as="geometry">
            <mxPoint x="180" y="450" as="sourcePoint" />
            <mxPoint x="248.8" y="565" as="targetPoint" />
            <Array as="points">
              <mxPoint x="220" y="450" />
              <mxPoint x="220" y="630" />
            </Array>
          </mxGeometry>
        </mxCell>
        <mxCell id="4sYesMDpXX-5hcElLDRR-281" value="" style="endArrow=classic;html=1;rounded=0;entryX=1;entryY=0.333;entryDx=0;entryDy=0;entryPerimeter=0;" edge="1" parent="1" target="4sYesMDpXX-5hcElLDRR-207">
          <mxGeometry width="50" height="50" relative="1" as="geometry">
            <mxPoint x="220" y="550" as="sourcePoint" />
            <mxPoint x="280" y="320" as="targetPoint" />
          </mxGeometry>
        </mxCell>
        <mxCell id="4sYesMDpXX-5hcElLDRR-284" value="" style="endArrow=classic;html=1;rounded=0;entryX=0.418;entryY=0.58;entryDx=0;entryDy=0;entryPerimeter=0;" edge="1" parent="1" target="4sYesMDpXX-5hcElLDRR-201">
          <mxGeometry width="50" height="50" relative="1" as="geometry">
            <mxPoint x="220" y="630" as="sourcePoint" />
            <mxPoint x="280" y="370" as="targetPoint" />
          </mxGeometry>
        </mxCell>
        <mxCell id="4sYesMDpXX-5hcElLDRR-285" value="" style="endArrow=classic;html=1;rounded=0;entryX=0.418;entryY=0.796;entryDx=0;entryDy=0;entryPerimeter=0;" edge="1" parent="1" target="4sYesMDpXX-5hcElLDRR-201">
          <mxGeometry width="50" height="50" relative="1" as="geometry">
            <mxPoint x="220" y="630" as="sourcePoint" />
            <mxPoint x="280" y="510" as="targetPoint" />
            <Array as="points">
              <mxPoint x="220" y="800" />
            </Array>
          </mxGeometry>
        </mxCell>
        <mxCell id="4sYesMDpXX-5hcElLDRR-286" value="" style="endArrow=classic;html=1;rounded=0;entryX=1;entryY=0.714;entryDx=0;entryDy=0;entryPerimeter=0;" edge="1" parent="1" target="4sYesMDpXX-5hcElLDRR-207">
          <mxGeometry width="50" height="50" relative="1" as="geometry">
            <mxPoint x="220" y="710" as="sourcePoint" />
            <mxPoint x="280" y="510" as="targetPoint" />
          </mxGeometry>
        </mxCell>
        <mxCell id="4sYesMDpXX-5hcElLDRR-290" value="" style="endArrow=classic;html=1;rounded=0;" edge="1" parent="1">
          <mxGeometry width="50" height="50" relative="1" as="geometry">
            <mxPoint x="380" y="630" as="sourcePoint" />
            <mxPoint x="460" y="440" as="targetPoint" />
            <Array as="points">
              <mxPoint x="400" y="630" />
              <mxPoint x="420" y="630" />
              <mxPoint x="420" y="440" />
            </Array>
          </mxGeometry>
        </mxCell>
        <mxCell id="4sYesMDpXX-5hcElLDRR-291" value="" style="endArrow=classic;html=1;rounded=0;entryX=0.706;entryY=0.582;entryDx=0;entryDy=0;entryPerimeter=0;" edge="1" parent="1">
          <mxGeometry width="50" height="50" relative="1" as="geometry">
            <mxPoint x="420" y="630" as="sourcePoint" />
            <mxPoint x="469.52999999999975" y="629.8700000000003" as="targetPoint" />
          </mxGeometry>
        </mxCell>
        <mxCell id="4sYesMDpXX-5hcElLDRR-292" value="" style="endArrow=classic;html=1;rounded=0;entryX=0.697;entryY=0.478;entryDx=0;entryDy=0;entryPerimeter=0;" edge="1" parent="1" target="4sYesMDpXX-5hcElLDRR-201">
          <mxGeometry width="50" height="50" relative="1" as="geometry">
            <mxPoint x="420" y="550" as="sourcePoint" />
            <mxPoint x="470" y="500" as="targetPoint" />
          </mxGeometry>
        </mxCell>
        <mxCell id="4sYesMDpXX-5hcElLDRR-293" value="" style="endArrow=classic;html=1;rounded=0;entryX=-0.02;entryY=0.949;entryDx=0;entryDy=0;entryPerimeter=0;" edge="1" parent="1" target="4sYesMDpXX-5hcElLDRR-210">
          <mxGeometry width="50" height="50" relative="1" as="geometry">
            <mxPoint x="420" y="632" as="sourcePoint" />
            <mxPoint x="470" y="582" as="targetPoint" />
            <Array as="points">
              <mxPoint x="420" y="810" />
            </Array>
          </mxGeometry>
        </mxCell>
        <mxCell id="4sYesMDpXX-5hcElLDRR-294" value="" style="endArrow=classic;html=1;rounded=0;entryX=0.706;entryY=0.695;entryDx=0;entryDy=0;entryPerimeter=0;" edge="1" parent="1" target="4sYesMDpXX-5hcElLDRR-201">
          <mxGeometry width="50" height="50" relative="1" as="geometry">
            <mxPoint x="420" y="720.5" as="sourcePoint" />
            <mxPoint x="470" y="670.5" as="targetPoint" />
          </mxGeometry>
        </mxCell>
      </root>
    </mxGraphModel>
  </diagram>
</mxfile>
